M48
;DRILL file {KiCad 4.0.4-stable} date 04/14/17 15:57:32
;FORMAT={-:-/ absolute / inch / decimal}
FMAT,2
INCH,TZ
T1C0.020
T2C0.024
T3C0.025
T4C0.031
T5C0.032
T6C0.032
T7C0.039
T8C0.063
T9C0.118
%
G90
G05
M72
T2
X-0.75Y0.9644
X-0.75Y0.8856
X-0.6234Y0.8
X-0.4266Y0.8
X0.525Y0.3984
X0.525Y0.2016
X0.585Y1.1684
X0.585Y0.9716
T3
X0.225Y1.3
X0.425Y0.625
X0.425Y0.55
X0.525Y0.625
X0.525Y0.55
X0.65Y0.625
X0.65Y0.55
X0.65Y0.47
X1.5Y1.6
X1.6Y1.5
X1.6Y-0.475
X1.7Y1.5
X2.05Y1.475
X2.425Y1.725
T4
X-0.7631Y1.2669
X-0.6844Y1.2669
X-0.6056Y1.2669
X-0.5269Y1.2669
X-0.45Y-0.75
X-0.2681Y1.4419
X-0.2492Y-0.7106
X-0.1894Y1.4419
X-0.15Y0.275
X-0.1106Y1.4419
X-0.1106Y0.0742
X-0.0319Y1.4419
X0.2319Y1.4419
X0.3106Y1.4419
X0.3894Y1.4419
X0.4Y-0.75
X0.4681Y1.4419
X0.6008Y-0.7106
T5
X-0.875Y0.375
X-0.875Y0.175
X-0.5Y1.1
X-0.3Y1.
X-0.3Y0.7
X-0.2Y1.1
X-0.175Y0.9
X0.Y0.3
X0.Y0.
X0.025Y0.9
X0.125Y0.375
X0.125Y0.175
X0.15Y1.075
X0.15Y0.825
X0.15Y0.525
X0.3Y0.1
X0.3Y-0.025
X0.35Y1.075
X0.4016Y-0.45
X0.5375Y0.8125
X0.5375Y0.7125
X0.5984Y-0.45
X0.6Y0.1
X0.6Y-0.025
X0.6375Y0.8125
X0.9Y-0.575
X0.9Y-0.875
X1.Y-0.25
X1.Y-0.55
X1.Y-0.675
X1.Y-0.875
X1.125Y-0.25
X1.125Y-0.55
X1.125Y-0.675
X1.125Y-0.875
X1.225Y-0.575
X1.225Y-0.875
X2.225Y0.625
X2.225Y0.325
T6
X-0.675Y0.375
X-0.675Y0.275
X-0.675Y0.175
X-0.675Y0.075
X-0.375Y0.375
X-0.375Y0.275
X-0.375Y0.175
X-0.375Y0.075
X0.8Y1.55
X0.8Y1.45
X0.8Y1.35
X0.8Y1.25
X0.8Y1.15
X0.8Y1.05
X0.8Y0.95
X0.8Y0.85
X0.8Y0.75
X0.8Y0.65
X0.8Y0.55
X0.8Y0.45
X0.8Y0.35
X0.8Y0.25
X0.8Y0.15
X0.875Y-0.05
X0.875Y-0.15
X1.175Y-0.15
X1.275Y-0.15
X1.375Y-0.15
X1.4Y1.55
X1.4Y1.45
X1.4Y1.35
X1.4Y1.25
X1.4Y1.15
X1.4Y1.05
X1.4Y0.95
X1.4Y0.85
X1.4Y0.75
X1.4Y0.65
X1.4Y0.55
X1.4Y0.45
X1.4Y0.35
X1.4Y0.25
X1.4Y0.15
X1.475Y-0.15
X1.8508Y1.35
T7
X-0.9Y-0.175
X-0.9Y-0.275
X-0.9Y-0.375
X-0.9Y-0.6
X-0.8Y0.725
X-0.795Y1.35
X-0.72Y0.55
X-0.695Y1.35
X-0.675Y1.1
X-0.595Y1.35
X-0.495Y1.35
X-0.35Y0.55
X-0.3Y1.525
X-0.2Y1.525
X-0.1Y1.525
X-0.1Y-0.125
X-0.1Y-0.495
X0.Y1.525
X0.075Y-0.125
X0.075Y-0.495
X0.2Y1.525
X0.3Y1.525
X0.305Y-0.175
X0.35Y0.85
X0.35Y0.48
X0.4Y1.525
X0.5Y1.525
X0.675Y1.435
X0.675Y1.35
X0.675Y-0.175
X0.8Y-0.505
X0.8Y-0.875
X0.9Y-0.3
X1.085Y-0.05
X1.225Y-0.45
X1.325Y-0.505
X1.325Y-0.875
X1.75Y-0.375
X1.75Y-0.925
X1.85Y-0.925
X1.95Y1.575
X1.95Y-0.375
X1.95Y-0.925
X1.9508Y1.35
X2.05Y1.575
X2.05Y0.975
X2.0508Y1.35
X2.15Y1.575
X2.15Y0.975
X2.1508Y1.35
X2.25Y1.575
X2.25Y0.975
X2.2508Y1.35
X2.35Y1.575
X2.35Y0.975
X2.3508Y1.35
X2.45Y1.575
X2.4508Y1.35
X2.5508Y1.35
T8
X-0.5406Y-1.1488
X-0.1469Y-1.1488
X0.3094Y-1.1488
X0.7031Y-1.1488
T9
X-0.9001Y1.6405
X-0.9001Y-0.9186
X1.7571Y0.9364
X1.7571Y0.0506
X2.6429Y0.9364
X2.6429Y0.0506
X2.8401Y1.6405
X2.8401Y-0.9186
T1
X2.2366Y-0.6169G85X2.2366Y-0.5874
G05
X2.3252Y-0.6661G85X2.3252Y-0.6366
G05
X2.4384Y-0.9211G85X2.4089Y-0.9211
G05
X2.6156Y-0.4644G85X2.586Y-0.4644
G05
X2.6205Y-0.7547G85X2.6205Y-0.7252
G05
T7
X1.625Y-0.6205G85X1.625Y-0.6795
G05
X2.075Y-0.6205G85X2.075Y-0.6795
G05
T0
M30
