G04 #@! TF.FileFunction,Copper,L1,Top,Signal*
%FSLAX46Y46*%
G04 Gerber Fmt 4.6, Leading zero omitted, Abs format (unit mm)*
G04 Created by KiCad (PCBNEW 4.0.4-stable) date 04/14/17 15:57:30*
%MOMM*%
%LPD*%
G01*
G04 APERTURE LIST*
%ADD10C,0.150000*%
%ADD11C,0.010000*%
%ADD12R,2.032000X2.032000*%
%ADD13C,2.032000*%
%ADD14C,1.905000*%
%ADD15R,2.286000X1.574800*%
%ADD16O,2.286000X1.574800*%
%ADD17R,1.500000X1.500000*%
%ADD18C,1.500000*%
%ADD19O,1.200000X2.400000*%
%ADD20O,2.400000X1.200000*%
%ADD21C,2.540000*%
%ADD22C,1.778000*%
%ADD23O,1.998980X4.000500*%
%ADD24C,0.010000*%
%ADD25R,2.100580X2.100580*%
%ADD26C,2.199640*%
%ADD27C,2.100580*%
%ADD28R,1.905000X1.905000*%
%ADD29R,0.762000X0.508000*%
%ADD30R,2.499360X2.499360*%
%ADD31C,2.499360*%
%ADD32R,2.000000X2.000000*%
%ADD33C,2.000000*%
%ADD34C,0.889000*%
%ADD35C,0.500000*%
%ADD36C,1.000000*%
%ADD37C,5.000000*%
%ADD38C,2.000000*%
%ADD39C,0.254000*%
G04 APERTURE END LIST*
D10*
D11*
G36*
X28170092Y23872486D02*
X28732908Y23827429D01*
X29207235Y23738807D01*
X29280706Y23717542D01*
X30097578Y23378299D01*
X30846366Y22898203D01*
X31376072Y22422761D01*
X31835128Y21894669D01*
X32181358Y21372757D01*
X32455748Y20792380D01*
X32525661Y20609568D01*
X32634208Y20184991D01*
X32701463Y19652005D01*
X32726724Y19066601D01*
X32709288Y18484766D01*
X32648454Y17962491D01*
X32563268Y17610667D01*
X32191352Y16743657D01*
X31698998Y15987171D01*
X31093541Y15349797D01*
X30382312Y14840122D01*
X30045847Y14662390D01*
X29667794Y14495722D01*
X29285020Y14349788D01*
X28964552Y14249533D01*
X28888332Y14231628D01*
X28530714Y14183357D01*
X28078732Y14157038D01*
X27606094Y14153998D01*
X27186508Y14175564D01*
X27008666Y14197786D01*
X26542855Y14313794D01*
X26022494Y14503168D01*
X25526263Y14734762D01*
X25256875Y14891273D01*
X24691718Y15329924D01*
X25146000Y15329924D01*
X25216788Y15259492D01*
X25406380Y15137474D01*
X25680614Y14984915D01*
X25833137Y14906590D01*
X26197528Y14731621D01*
X26467621Y14616920D01*
X26629182Y14566971D01*
X26667980Y14586259D01*
X26580224Y14671193D01*
X26443753Y14780597D01*
X26364248Y14845426D01*
X27014106Y14845426D01*
X27071397Y14708817D01*
X27181298Y14578632D01*
X27330337Y14457720D01*
X27472111Y14396979D01*
X27561631Y14406067D01*
X27560264Y14421756D01*
X28300409Y14421756D01*
X28342507Y14403848D01*
X28398702Y14421279D01*
X28585329Y14470830D01*
X28658202Y14478000D01*
X28777498Y14526093D01*
X28978601Y14650090D01*
X29089702Y14727855D01*
X29451351Y14727855D01*
X29465151Y14700793D01*
X29577851Y14732532D01*
X29591000Y14737157D01*
X29823427Y14836897D01*
X30103446Y14979799D01*
X30200457Y15034558D01*
X30476293Y15210355D01*
X30597844Y15327826D01*
X30567950Y15391769D01*
X30421496Y15407592D01*
X30181535Y15336632D01*
X29872671Y15123404D01*
X29760333Y15026529D01*
X29546421Y14830754D01*
X29451351Y14727855D01*
X29089702Y14727855D01*
X29220736Y14819572D01*
X29463129Y15004119D01*
X29665007Y15173312D01*
X29785597Y15296730D01*
X29802666Y15331844D01*
X29727142Y15378749D01*
X29536770Y15406292D01*
X29434920Y15409334D01*
X29218331Y15396663D01*
X29058297Y15337409D01*
X28899046Y15199708D01*
X28730977Y15007167D01*
X28485686Y14707620D01*
X28345149Y14517748D01*
X28300409Y14421756D01*
X27560264Y14421756D01*
X27553908Y14494645D01*
X27551401Y14499167D01*
X27417805Y14687738D01*
X27261586Y14847258D01*
X27128855Y14934900D01*
X27081026Y14936061D01*
X27014106Y14845426D01*
X26364248Y14845426D01*
X26231294Y14953836D01*
X26063504Y15091834D01*
X25733333Y15319380D01*
X25630854Y15352000D01*
X26077333Y15352000D01*
X26136398Y15267023D01*
X26284525Y15122503D01*
X26352500Y15063654D01*
X26525547Y14925491D01*
X26610722Y14891615D01*
X26646791Y14953901D01*
X26655528Y15000145D01*
X26656978Y15201541D01*
X26637019Y15288491D01*
X26598566Y15317750D01*
X27178000Y15317750D01*
X27225861Y15217433D01*
X27345633Y15039782D01*
X27501600Y14831282D01*
X27658043Y14638423D01*
X27779245Y14507691D01*
X27823199Y14478000D01*
X27840802Y14554603D01*
X27852474Y14752194D01*
X27855333Y14943667D01*
X27855333Y15409334D01*
X28024666Y15409334D01*
X28028460Y14922500D01*
X28032254Y14435667D01*
X28409460Y14856682D01*
X28600959Y15079596D01*
X28736726Y15255147D01*
X28786666Y15343515D01*
X28710958Y15382776D01*
X28519417Y15406320D01*
X28405666Y15409334D01*
X28024666Y15409334D01*
X27855333Y15409334D01*
X27516666Y15409334D01*
X27304498Y15389022D01*
X27186603Y15338259D01*
X27178000Y15317750D01*
X26598566Y15317750D01*
X26544317Y15359027D01*
X26375297Y15402738D01*
X26199992Y15411678D01*
X26088440Y15377900D01*
X26077333Y15352000D01*
X25630854Y15352000D01*
X25456739Y15407422D01*
X25412446Y15409334D01*
X25228774Y15387319D01*
X25146337Y15333928D01*
X25146000Y15329924D01*
X24691718Y15329924D01*
X24668751Y15347750D01*
X24131538Y15909899D01*
X23673426Y16539189D01*
X23406818Y17039167D01*
X23706983Y17039167D01*
X23761525Y16882396D01*
X23904001Y16643103D01*
X24104223Y16360092D01*
X24331998Y16072169D01*
X24557137Y15818136D01*
X24749450Y15636800D01*
X24846343Y15574705D01*
X25062144Y15518657D01*
X25295227Y15500382D01*
X25470318Y15523324D01*
X25506907Y15544464D01*
X25489774Y15634797D01*
X25393198Y15816151D01*
X25279663Y15988964D01*
X25077561Y16291132D01*
X24880688Y16609562D01*
X24804387Y16742834D01*
X24680949Y16951763D01*
X24641619Y16988794D01*
X24892000Y16988794D01*
X24938288Y16857777D01*
X25059069Y16633784D01*
X25227213Y16359289D01*
X25415591Y16076766D01*
X25597074Y15828691D01*
X25738437Y15663563D01*
X25953938Y15538669D01*
X26207473Y15511284D01*
X26431447Y15580490D01*
X26515560Y15662542D01*
X27407104Y15662542D01*
X27428657Y15538262D01*
X27587158Y15505559D01*
X27630489Y15510325D01*
X27733449Y15544158D01*
X27791260Y15635844D01*
X27819242Y15826513D01*
X27826356Y15979106D01*
X28023959Y15979106D01*
X28032513Y15718565D01*
X28075354Y15558479D01*
X28085014Y15546542D01*
X28199335Y15515290D01*
X28417659Y15506634D01*
X28529514Y15511264D01*
X28723913Y15529130D01*
X28857140Y15573286D01*
X28891281Y15605699D01*
X29258578Y15605699D01*
X29260044Y15566191D01*
X29374653Y15513779D01*
X29585996Y15496176D01*
X29825244Y15512644D01*
X30023570Y15562445D01*
X30049152Y15574646D01*
X30060173Y15584316D01*
X30395333Y15584316D01*
X30458506Y15500722D01*
X30617627Y15499526D01*
X30827094Y15570184D01*
X31041308Y15702154D01*
X31092497Y15745519D01*
X31255695Y15900175D01*
X31301178Y15974088D01*
X31239169Y15997450D01*
X31178500Y15999519D01*
X31024796Y16049851D01*
X30988000Y16129000D01*
X30947622Y16241749D01*
X30913382Y16256000D01*
X30817714Y16192447D01*
X30676618Y16037889D01*
X30531861Y15846480D01*
X30425208Y15672374D01*
X30395333Y15584316D01*
X30060173Y15584316D01*
X30173730Y15683951D01*
X30349473Y15889197D01*
X30519079Y16118813D01*
X30688036Y16372678D01*
X30771541Y16539100D01*
X30783586Y16667693D01*
X30738162Y16808071D01*
X30723158Y16842501D01*
X30633082Y17004840D01*
X30513344Y17080697D01*
X30302513Y17102080D01*
X30223866Y17102667D01*
X29839735Y17102667D01*
X29527582Y16370524D01*
X29396422Y16045224D01*
X29302527Y15777573D01*
X29258578Y15605699D01*
X28891281Y15605699D01*
X28965305Y15675974D01*
X29084516Y15869439D01*
X29221327Y16129000D01*
X29427740Y16528572D01*
X29553378Y16800617D01*
X29592113Y16969601D01*
X29537813Y17059991D01*
X29384350Y17096254D01*
X29125594Y17102855D01*
X28977386Y17102667D01*
X28310029Y17102667D01*
X28167347Y16803461D01*
X28095045Y16577554D01*
X28046026Y16284102D01*
X28023959Y15979106D01*
X27826356Y15979106D01*
X27829397Y16044334D01*
X27833267Y16305649D01*
X27821065Y16410350D01*
X27790355Y16370606D01*
X27773825Y16321768D01*
X27666903Y16085215D01*
X27525748Y15867316D01*
X27407104Y15662542D01*
X26515560Y15662542D01*
X26527561Y15674248D01*
X26553821Y15793477D01*
X26514298Y15989370D01*
X26401649Y16291074D01*
X26330299Y16457415D01*
X26114917Y16947513D01*
X26311638Y16947513D01*
X26365183Y16767742D01*
X26431980Y16594667D01*
X26536430Y16360408D01*
X26618587Y16206673D01*
X26650102Y16171334D01*
X26666029Y16245822D01*
X26655822Y16432869D01*
X26645234Y16522203D01*
X26561194Y16827799D01*
X26414840Y16991798D01*
X26314858Y17016704D01*
X26311638Y16947513D01*
X26114917Y16947513D01*
X26046731Y17102667D01*
X25469365Y17102667D01*
X25141564Y17092859D01*
X24957598Y17060209D01*
X24892930Y16999876D01*
X24892000Y16988794D01*
X24641619Y16988794D01*
X24567567Y17058515D01*
X24402518Y17097383D01*
X24156742Y17102667D01*
X23906660Y17091884D01*
X23743383Y17064156D01*
X23706983Y17039167D01*
X23406818Y17039167D01*
X23322607Y17197089D01*
X23112346Y17822381D01*
X23049905Y18247414D01*
X23022937Y18772934D01*
X23025590Y18975064D01*
X23257938Y18975064D01*
X23309193Y18426182D01*
X23356980Y18081815D01*
X23427670Y17757880D01*
X23486904Y17574650D01*
X23573012Y17395192D01*
X23673206Y17305802D01*
X23844760Y17275198D01*
X24041013Y17272000D01*
X24283627Y17283310D01*
X24437925Y17312257D01*
X24467244Y17335500D01*
X24450674Y17441629D01*
X24407475Y17672777D01*
X24345395Y17988154D01*
X24310447Y18161000D01*
X24203731Y18684368D01*
X24384000Y18684368D01*
X24409688Y18435483D01*
X24475716Y18118942D01*
X24565531Y17795218D01*
X24662578Y17524779D01*
X24741672Y17377834D01*
X24882018Y17315176D01*
X25163505Y17279149D01*
X25414203Y17272000D01*
X26000339Y17272000D01*
X25944597Y17589500D01*
X25874106Y17984936D01*
X25837326Y18150391D01*
X26006217Y18150391D01*
X26027315Y18065828D01*
X26096836Y17972111D01*
X26181708Y18019843D01*
X26235998Y18135429D01*
X26180344Y18218856D01*
X26067548Y18278389D01*
X26025951Y18264841D01*
X26006217Y18150391D01*
X25837326Y18150391D01*
X25815087Y18250427D01*
X25747342Y18422372D01*
X25650673Y18537170D01*
X25504879Y18631222D01*
X25311808Y18729805D01*
X25068592Y18836458D01*
X25939384Y18836458D01*
X25941274Y18831409D01*
X25987835Y18640681D01*
X25992666Y18577409D01*
X26057917Y18482388D01*
X26204607Y18461825D01*
X26359137Y18522072D01*
X26383773Y18543641D01*
X26519410Y18573381D01*
X26749605Y18530892D01*
X27027002Y18436322D01*
X27304245Y18309826D01*
X27533980Y18171553D01*
X27668850Y18041655D01*
X27686000Y17989493D01*
X27732409Y17878224D01*
X27770666Y17864667D01*
X27814910Y17942425D01*
X27845201Y18148407D01*
X27855333Y18415000D01*
X27855333Y18965334D01*
X28024666Y18965334D01*
X28024666Y18386257D01*
X28029747Y18075979D01*
X28054192Y17890883D01*
X28111807Y17786911D01*
X28216398Y17720002D01*
X28236333Y17710739D01*
X28402710Y17574390D01*
X28448000Y17443149D01*
X28462654Y17355464D01*
X28530116Y17304129D01*
X28685633Y17279583D01*
X28964454Y17272265D01*
X29079020Y17272000D01*
X29710040Y17272000D01*
X29891566Y17272000D01*
X30312783Y17272000D01*
X30569064Y17282553D01*
X30695623Y17323367D01*
X30731259Y17408181D01*
X30731307Y17420167D01*
X30679589Y17605846D01*
X30678311Y17608034D01*
X32119576Y17608034D01*
X32135587Y17518578D01*
X32203019Y17470685D01*
X32266654Y17573954D01*
X32322656Y17746660D01*
X32336715Y17819310D01*
X32293366Y17833319D01*
X32205648Y17763935D01*
X32119576Y17608034D01*
X30678311Y17608034D01*
X30610122Y17724730D01*
X30534044Y17895405D01*
X30537206Y17999897D01*
X30532310Y18103679D01*
X30495983Y18118667D01*
X30344556Y18146961D01*
X30276434Y18169607D01*
X30161888Y18154825D01*
X30064584Y18004546D01*
X29976949Y17704570D01*
X29944375Y17547167D01*
X29891566Y17272000D01*
X29710040Y17272000D01*
X29798214Y17589500D01*
X29868803Y17881146D01*
X29876439Y18045262D01*
X29819453Y18112172D01*
X29769104Y18118667D01*
X29652553Y18171460D01*
X29499361Y18302223D01*
X29345443Y18469535D01*
X29261536Y18584334D01*
X32342666Y18584334D01*
X32385000Y18542000D01*
X32427333Y18584334D01*
X32385000Y18626667D01*
X32342666Y18584334D01*
X29261536Y18584334D01*
X29226715Y18631975D01*
X29179091Y18748121D01*
X29197624Y18777764D01*
X29253721Y18828797D01*
X32117770Y18828797D01*
X32131000Y18796000D01*
X32207082Y18715230D01*
X32220663Y18711334D01*
X32257029Y18776840D01*
X32258000Y18796000D01*
X32192912Y18877414D01*
X32168336Y18880667D01*
X32117770Y18828797D01*
X29253721Y18828797D01*
X29289655Y18861487D01*
X29294666Y18887723D01*
X29216925Y18924819D01*
X29011281Y18952261D01*
X28719101Y18964994D01*
X28659666Y18965334D01*
X28024666Y18965334D01*
X27855333Y18965334D01*
X27393650Y18965334D01*
X27087532Y18947068D01*
X26818414Y18900472D01*
X26714020Y18866030D01*
X26525458Y18809104D01*
X26403080Y18859893D01*
X26396770Y18866030D01*
X26238088Y18944759D01*
X26093674Y18965334D01*
X25947802Y18936668D01*
X25939384Y18836458D01*
X25068592Y18836458D01*
X25022173Y18856813D01*
X24756587Y18941923D01*
X24616833Y18963915D01*
X24457115Y18944594D01*
X24393885Y18849649D01*
X24384000Y18684368D01*
X24203731Y18684368D01*
X24155072Y18923000D01*
X23257938Y18975064D01*
X23025590Y18975064D01*
X23030311Y19334567D01*
X23032624Y19364964D01*
X23258497Y19364964D01*
X23279394Y19216865D01*
X23358192Y19135116D01*
X23359061Y19134606D01*
X23562329Y19072376D01*
X23821550Y19056567D01*
X24045209Y19089618D01*
X24100825Y19114844D01*
X24150381Y19222407D01*
X24166695Y19299236D01*
X24357937Y19299236D01*
X24397810Y19161114D01*
X24401873Y19155834D01*
X24519275Y19060267D01*
X24655733Y19092763D01*
X24712003Y19126285D01*
X24775879Y19201943D01*
X24760834Y19267320D01*
X25362062Y19267320D01*
X25362805Y19123945D01*
X25383913Y19094310D01*
X25516584Y19056362D01*
X25652375Y19135643D01*
X25723388Y19283699D01*
X25717515Y19335045D01*
X25908000Y19335045D01*
X25934461Y19167697D01*
X25992519Y19088850D01*
X26050186Y19130602D01*
X26064106Y19178398D01*
X26041122Y19353163D01*
X26000606Y19414594D01*
X25927729Y19445348D01*
X25908000Y19335045D01*
X25717515Y19335045D01*
X25706257Y19433468D01*
X25626582Y19459684D01*
X26258180Y19459684D01*
X26262829Y19257141D01*
X26379744Y19127755D01*
X26437166Y19109753D01*
X26790645Y19069873D01*
X27192986Y19064651D01*
X27545067Y19094676D01*
X27590750Y19102917D01*
X27855333Y19155834D01*
X27855333Y19948073D01*
X28024666Y19948073D01*
X28026744Y19557216D01*
X28048852Y19304636D01*
X28114797Y19159318D01*
X28248390Y19090249D01*
X28473439Y19066414D01*
X28706557Y19059822D01*
X28965354Y19071249D01*
X29152578Y19144911D01*
X29284176Y19259102D01*
X31856564Y19259102D01*
X31873518Y19224967D01*
X31954251Y19137434D01*
X31969102Y19199163D01*
X31948549Y19265319D01*
X31886216Y19357525D01*
X31858062Y19355618D01*
X31856564Y19259102D01*
X29284176Y19259102D01*
X29348952Y19315309D01*
X29381060Y19348116D01*
X29562003Y19559478D01*
X29642280Y19748122D01*
X29654678Y19995562D01*
X29653501Y20025449D01*
X29654299Y20083730D01*
X30158321Y20083730D01*
X30182100Y20002774D01*
X30342633Y19981334D01*
X30543176Y19932818D01*
X30645410Y19859061D01*
X30793490Y19768846D01*
X31023092Y19708314D01*
X31057944Y19703960D01*
X31281011Y19678692D01*
X31426840Y19659057D01*
X31438708Y19656900D01*
X31484194Y19711657D01*
X31480311Y19790834D01*
X31465376Y19812000D01*
X31665333Y19812000D01*
X31694220Y19729535D01*
X31702669Y19727334D01*
X31774955Y19786663D01*
X31792333Y19812000D01*
X31785620Y19890019D01*
X31754996Y19896667D01*
X31668778Y19835207D01*
X31665333Y19812000D01*
X31465376Y19812000D01*
X31406036Y19896094D01*
X31212072Y19952588D01*
X31086044Y19965380D01*
X30847233Y20000200D01*
X30758523Y20063660D01*
X30762574Y20103010D01*
X30728136Y20216820D01*
X30608427Y20303945D01*
X30430812Y20346987D01*
X30291126Y20260121D01*
X30276461Y20244315D01*
X30158321Y20083730D01*
X29654299Y20083730D01*
X29656853Y20269971D01*
X29702123Y20383715D01*
X29768373Y20404667D01*
X29867907Y20468249D01*
X29871371Y20552834D01*
X29838271Y20619773D01*
X29749673Y20665224D01*
X29575947Y20694629D01*
X29287464Y20713429D01*
X28933829Y20725032D01*
X28024666Y20749063D01*
X28024666Y19948073D01*
X27855333Y19948073D01*
X27855333Y20743334D01*
X27568058Y20743334D01*
X27336808Y20706065D01*
X27232048Y20616334D01*
X27121337Y20503742D01*
X27058019Y20489334D01*
X26901616Y20429147D01*
X26716276Y20285434D01*
X26561792Y20113469D01*
X26497973Y19971625D01*
X26447675Y19815379D01*
X26370973Y19689985D01*
X26258180Y19459684D01*
X25626582Y19459684D01*
X25585096Y19473334D01*
X25449623Y19409148D01*
X25362062Y19267320D01*
X24760834Y19267320D01*
X24747278Y19326224D01*
X24672582Y19463656D01*
X24555997Y19637210D01*
X24469641Y19724782D01*
X24460282Y19727334D01*
X24396640Y19655412D01*
X24360036Y19488358D01*
X24357937Y19299236D01*
X24166695Y19299236D01*
X24200563Y19458728D01*
X24243771Y19783435D01*
X24259912Y19960215D01*
X24321174Y20743334D01*
X23942655Y20743334D01*
X23706298Y20734369D01*
X23579673Y20678679D01*
X23503218Y20533066D01*
X23459063Y20392631D01*
X23378686Y20080920D01*
X23305803Y19729176D01*
X23288556Y19627995D01*
X23258497Y19364964D01*
X23032624Y19364964D01*
X23070899Y19867937D01*
X23143568Y20308670D01*
X23156938Y20361956D01*
X23376549Y20946058D01*
X23746187Y20946058D01*
X23839969Y20855390D01*
X24024782Y20868235D01*
X24198112Y20915711D01*
X24273618Y20943397D01*
X24272016Y21029030D01*
X24249284Y21229264D01*
X24228009Y21381015D01*
X24213683Y21477327D01*
X26347488Y21477327D01*
X26438534Y21423732D01*
X26491608Y21420667D01*
X26658335Y21494955D01*
X26744548Y21707896D01*
X26754666Y21850925D01*
X26798916Y21992392D01*
X26913883Y22013446D01*
X27072893Y21932200D01*
X27249272Y21766766D01*
X27416345Y21535253D01*
X27518090Y21332563D01*
X27585016Y21130886D01*
X27565459Y21034774D01*
X27532868Y21016846D01*
X27468220Y20939189D01*
X27478802Y20905436D01*
X27538564Y20837420D01*
X27635017Y20847737D01*
X27721408Y20879392D01*
X27814986Y21004265D01*
X27851629Y21256698D01*
X28024666Y21256698D01*
X28036443Y21039739D01*
X28098922Y20937438D01*
X28252828Y20895413D01*
X28299833Y20889248D01*
X28843063Y20843185D01*
X29233438Y20858514D01*
X29468679Y20935100D01*
X29500285Y20961048D01*
X29600702Y21153343D01*
X29611391Y21393214D01*
X29546344Y21624973D01*
X29419555Y21792935D01*
X29278419Y21844000D01*
X29127837Y21901813D01*
X29058161Y22029876D01*
X29098535Y22160127D01*
X29131710Y22186609D01*
X29199352Y22280199D01*
X29182530Y22323025D01*
X29069498Y22334911D01*
X28953298Y22285295D01*
X28770341Y22202137D01*
X28669178Y22182667D01*
X28553805Y22115486D01*
X28413633Y21948106D01*
X28374551Y21886334D01*
X28244791Y21699729D01*
X28135110Y21596947D01*
X28112188Y21590000D01*
X28057025Y21514975D01*
X28026689Y21327889D01*
X28024666Y21256698D01*
X27851629Y21256698D01*
X27855021Y21280064D01*
X27840831Y21696842D01*
X27801491Y22043850D01*
X27758091Y22360492D01*
X29392764Y22360492D01*
X29427982Y22257163D01*
X29506333Y22182667D01*
X29607963Y22018164D01*
X29633333Y21877919D01*
X29708321Y21670531D01*
X29845000Y21539881D01*
X29996669Y21409984D01*
X30056666Y21300863D01*
X30123276Y21128781D01*
X30279635Y21057250D01*
X30403588Y21086419D01*
X30552356Y21189496D01*
X30602720Y21244410D01*
X30575411Y21336000D01*
X30861000Y21336000D01*
X30867712Y21257982D01*
X30898336Y21251334D01*
X30984554Y21312794D01*
X30988000Y21336000D01*
X30959113Y21418466D01*
X30950663Y21420667D01*
X30878377Y21361338D01*
X30861000Y21336000D01*
X30575411Y21336000D01*
X30574259Y21339862D01*
X30442037Y21472275D01*
X30418082Y21490332D01*
X30347082Y21547667D01*
X31072666Y21547667D01*
X31115000Y21505334D01*
X31157333Y21547667D01*
X31115000Y21590000D01*
X31072666Y21547667D01*
X30347082Y21547667D01*
X30267586Y21611862D01*
X30257381Y21646445D01*
X31354888Y21646445D01*
X31366511Y21596111D01*
X31411333Y21590000D01*
X31481023Y21620979D01*
X31467777Y21646445D01*
X31367298Y21656578D01*
X31354888Y21646445D01*
X30257381Y21646445D01*
X30241797Y21699250D01*
X30316708Y21801667D01*
X30903333Y21801667D01*
X30945666Y21759334D01*
X30988000Y21801667D01*
X30945666Y21844000D01*
X30903333Y21801667D01*
X30316708Y21801667D01*
X30325136Y21813189D01*
X30332979Y21821878D01*
X30458291Y21995047D01*
X30449928Y22136093D01*
X30339877Y22281834D01*
X30173756Y22384501D01*
X30508769Y22384501D01*
X30522333Y22352000D01*
X30634492Y22270495D01*
X30659326Y22267334D01*
X30705230Y22319500D01*
X30691666Y22352000D01*
X30579507Y22433506D01*
X30554673Y22436667D01*
X30508769Y22384501D01*
X30173756Y22384501D01*
X30159661Y22393212D01*
X29864514Y22435557D01*
X29789544Y22436667D01*
X29511276Y22418524D01*
X29392764Y22360492D01*
X27758091Y22360492D01*
X27747650Y22436667D01*
X27306614Y22436667D01*
X27005097Y22416136D01*
X26795420Y22332285D01*
X26628259Y22151727D01*
X26468543Y21869372D01*
X26357929Y21617368D01*
X26347488Y21477327D01*
X24213683Y21477327D01*
X24179692Y21705826D01*
X26082958Y21705826D01*
X26148409Y21674667D01*
X26230116Y21743324D01*
X26324828Y21905868D01*
X26392242Y22062415D01*
X26373567Y22080775D01*
X26253751Y21977413D01*
X26111761Y21816177D01*
X26082958Y21705826D01*
X24179692Y21705826D01*
X24165434Y21801667D01*
X23930015Y21433956D01*
X23775795Y21141346D01*
X23746187Y20946058D01*
X23376549Y20946058D01*
X23448444Y21137275D01*
X23885688Y21855426D01*
X24449433Y22497418D01*
X24688087Y22691911D01*
X27008666Y22691911D01*
X27084811Y22642904D01*
X27279502Y22611799D01*
X27432000Y22606000D01*
X27855333Y22606000D01*
X27855333Y22775334D01*
X29464000Y22775334D01*
X29513608Y22642549D01*
X29675666Y22606000D01*
X29834797Y22633970D01*
X29887333Y22687688D01*
X29821773Y22781343D01*
X29677291Y22884295D01*
X29532188Y22942950D01*
X29511899Y22944667D01*
X29472927Y22873487D01*
X29464000Y22775334D01*
X27855333Y22775334D01*
X27855333Y22891967D01*
X27816170Y23126313D01*
X27751133Y23237445D01*
X29592532Y23237445D01*
X29663728Y23134948D01*
X29813504Y22997193D01*
X30008442Y22849935D01*
X30215126Y22718929D01*
X30400140Y22629930D01*
X30506163Y22606230D01*
X30664810Y22631131D01*
X30690576Y22692431D01*
X30578617Y22792749D01*
X30367101Y22930982D01*
X30110334Y23077002D01*
X29862626Y23200683D01*
X29678283Y23271898D01*
X29633333Y23278929D01*
X29592532Y23237445D01*
X27751133Y23237445D01*
X27720465Y23289848D01*
X27719016Y23291066D01*
X27621962Y23342295D01*
X27516608Y23305697D01*
X27361403Y23161637D01*
X27295683Y23091010D01*
X27129805Y22894098D01*
X27026145Y22740434D01*
X27008666Y22691911D01*
X24688087Y22691911D01*
X24792945Y22777365D01*
X26139029Y22777365D01*
X26163768Y22736847D01*
X26323419Y22730257D01*
X26406226Y22732047D01*
X26602262Y22753248D01*
X26765850Y22825181D01*
X26945220Y22977529D01*
X27136047Y23181208D01*
X27319939Y23396642D01*
X27435289Y23553670D01*
X27459627Y23621339D01*
X27456031Y23622000D01*
X27338807Y23578508D01*
X27126745Y23466138D01*
X26864472Y23312052D01*
X26596613Y23143411D01*
X26367796Y22987376D01*
X26223191Y22871647D01*
X26139029Y22777365D01*
X24792945Y22777365D01*
X25020625Y22962913D01*
X25619218Y22962913D01*
X25657602Y22897994D01*
X25716826Y22836709D01*
X25783695Y22821337D01*
X25890748Y22865132D01*
X26070524Y22981349D01*
X26352500Y23181052D01*
X26567929Y23339856D01*
X26713881Y23456628D01*
X26754666Y23499187D01*
X26685141Y23496036D01*
X26508257Y23441942D01*
X26271553Y23354377D01*
X26022567Y23250814D01*
X25826967Y23158213D01*
X25654984Y23051370D01*
X25619218Y22962913D01*
X25020625Y22962913D01*
X25120445Y23044261D01*
X25879487Y23476966D01*
X26579533Y23740843D01*
X27030522Y23829735D01*
X27581670Y23873435D01*
X28170092Y23872486D01*
X28170092Y23872486D01*
G37*
X28170092Y23872486D02*
X28732908Y23827429D01*
X29207235Y23738807D01*
X29280706Y23717542D01*
X30097578Y23378299D01*
X30846366Y22898203D01*
X31376072Y22422761D01*
X31835128Y21894669D01*
X32181358Y21372757D01*
X32455748Y20792380D01*
X32525661Y20609568D01*
X32634208Y20184991D01*
X32701463Y19652005D01*
X32726724Y19066601D01*
X32709288Y18484766D01*
X32648454Y17962491D01*
X32563268Y17610667D01*
X32191352Y16743657D01*
X31698998Y15987171D01*
X31093541Y15349797D01*
X30382312Y14840122D01*
X30045847Y14662390D01*
X29667794Y14495722D01*
X29285020Y14349788D01*
X28964552Y14249533D01*
X28888332Y14231628D01*
X28530714Y14183357D01*
X28078732Y14157038D01*
X27606094Y14153998D01*
X27186508Y14175564D01*
X27008666Y14197786D01*
X26542855Y14313794D01*
X26022494Y14503168D01*
X25526263Y14734762D01*
X25256875Y14891273D01*
X24691718Y15329924D01*
X25146000Y15329924D01*
X25216788Y15259492D01*
X25406380Y15137474D01*
X25680614Y14984915D01*
X25833137Y14906590D01*
X26197528Y14731621D01*
X26467621Y14616920D01*
X26629182Y14566971D01*
X26667980Y14586259D01*
X26580224Y14671193D01*
X26443753Y14780597D01*
X26364248Y14845426D01*
X27014106Y14845426D01*
X27071397Y14708817D01*
X27181298Y14578632D01*
X27330337Y14457720D01*
X27472111Y14396979D01*
X27561631Y14406067D01*
X27560264Y14421756D01*
X28300409Y14421756D01*
X28342507Y14403848D01*
X28398702Y14421279D01*
X28585329Y14470830D01*
X28658202Y14478000D01*
X28777498Y14526093D01*
X28978601Y14650090D01*
X29089702Y14727855D01*
X29451351Y14727855D01*
X29465151Y14700793D01*
X29577851Y14732532D01*
X29591000Y14737157D01*
X29823427Y14836897D01*
X30103446Y14979799D01*
X30200457Y15034558D01*
X30476293Y15210355D01*
X30597844Y15327826D01*
X30567950Y15391769D01*
X30421496Y15407592D01*
X30181535Y15336632D01*
X29872671Y15123404D01*
X29760333Y15026529D01*
X29546421Y14830754D01*
X29451351Y14727855D01*
X29089702Y14727855D01*
X29220736Y14819572D01*
X29463129Y15004119D01*
X29665007Y15173312D01*
X29785597Y15296730D01*
X29802666Y15331844D01*
X29727142Y15378749D01*
X29536770Y15406292D01*
X29434920Y15409334D01*
X29218331Y15396663D01*
X29058297Y15337409D01*
X28899046Y15199708D01*
X28730977Y15007167D01*
X28485686Y14707620D01*
X28345149Y14517748D01*
X28300409Y14421756D01*
X27560264Y14421756D01*
X27553908Y14494645D01*
X27551401Y14499167D01*
X27417805Y14687738D01*
X27261586Y14847258D01*
X27128855Y14934900D01*
X27081026Y14936061D01*
X27014106Y14845426D01*
X26364248Y14845426D01*
X26231294Y14953836D01*
X26063504Y15091834D01*
X25733333Y15319380D01*
X25630854Y15352000D01*
X26077333Y15352000D01*
X26136398Y15267023D01*
X26284525Y15122503D01*
X26352500Y15063654D01*
X26525547Y14925491D01*
X26610722Y14891615D01*
X26646791Y14953901D01*
X26655528Y15000145D01*
X26656978Y15201541D01*
X26637019Y15288491D01*
X26598566Y15317750D01*
X27178000Y15317750D01*
X27225861Y15217433D01*
X27345633Y15039782D01*
X27501600Y14831282D01*
X27658043Y14638423D01*
X27779245Y14507691D01*
X27823199Y14478000D01*
X27840802Y14554603D01*
X27852474Y14752194D01*
X27855333Y14943667D01*
X27855333Y15409334D01*
X28024666Y15409334D01*
X28028460Y14922500D01*
X28032254Y14435667D01*
X28409460Y14856682D01*
X28600959Y15079596D01*
X28736726Y15255147D01*
X28786666Y15343515D01*
X28710958Y15382776D01*
X28519417Y15406320D01*
X28405666Y15409334D01*
X28024666Y15409334D01*
X27855333Y15409334D01*
X27516666Y15409334D01*
X27304498Y15389022D01*
X27186603Y15338259D01*
X27178000Y15317750D01*
X26598566Y15317750D01*
X26544317Y15359027D01*
X26375297Y15402738D01*
X26199992Y15411678D01*
X26088440Y15377900D01*
X26077333Y15352000D01*
X25630854Y15352000D01*
X25456739Y15407422D01*
X25412446Y15409334D01*
X25228774Y15387319D01*
X25146337Y15333928D01*
X25146000Y15329924D01*
X24691718Y15329924D01*
X24668751Y15347750D01*
X24131538Y15909899D01*
X23673426Y16539189D01*
X23406818Y17039167D01*
X23706983Y17039167D01*
X23761525Y16882396D01*
X23904001Y16643103D01*
X24104223Y16360092D01*
X24331998Y16072169D01*
X24557137Y15818136D01*
X24749450Y15636800D01*
X24846343Y15574705D01*
X25062144Y15518657D01*
X25295227Y15500382D01*
X25470318Y15523324D01*
X25506907Y15544464D01*
X25489774Y15634797D01*
X25393198Y15816151D01*
X25279663Y15988964D01*
X25077561Y16291132D01*
X24880688Y16609562D01*
X24804387Y16742834D01*
X24680949Y16951763D01*
X24641619Y16988794D01*
X24892000Y16988794D01*
X24938288Y16857777D01*
X25059069Y16633784D01*
X25227213Y16359289D01*
X25415591Y16076766D01*
X25597074Y15828691D01*
X25738437Y15663563D01*
X25953938Y15538669D01*
X26207473Y15511284D01*
X26431447Y15580490D01*
X26515560Y15662542D01*
X27407104Y15662542D01*
X27428657Y15538262D01*
X27587158Y15505559D01*
X27630489Y15510325D01*
X27733449Y15544158D01*
X27791260Y15635844D01*
X27819242Y15826513D01*
X27826356Y15979106D01*
X28023959Y15979106D01*
X28032513Y15718565D01*
X28075354Y15558479D01*
X28085014Y15546542D01*
X28199335Y15515290D01*
X28417659Y15506634D01*
X28529514Y15511264D01*
X28723913Y15529130D01*
X28857140Y15573286D01*
X28891281Y15605699D01*
X29258578Y15605699D01*
X29260044Y15566191D01*
X29374653Y15513779D01*
X29585996Y15496176D01*
X29825244Y15512644D01*
X30023570Y15562445D01*
X30049152Y15574646D01*
X30060173Y15584316D01*
X30395333Y15584316D01*
X30458506Y15500722D01*
X30617627Y15499526D01*
X30827094Y15570184D01*
X31041308Y15702154D01*
X31092497Y15745519D01*
X31255695Y15900175D01*
X31301178Y15974088D01*
X31239169Y15997450D01*
X31178500Y15999519D01*
X31024796Y16049851D01*
X30988000Y16129000D01*
X30947622Y16241749D01*
X30913382Y16256000D01*
X30817714Y16192447D01*
X30676618Y16037889D01*
X30531861Y15846480D01*
X30425208Y15672374D01*
X30395333Y15584316D01*
X30060173Y15584316D01*
X30173730Y15683951D01*
X30349473Y15889197D01*
X30519079Y16118813D01*
X30688036Y16372678D01*
X30771541Y16539100D01*
X30783586Y16667693D01*
X30738162Y16808071D01*
X30723158Y16842501D01*
X30633082Y17004840D01*
X30513344Y17080697D01*
X30302513Y17102080D01*
X30223866Y17102667D01*
X29839735Y17102667D01*
X29527582Y16370524D01*
X29396422Y16045224D01*
X29302527Y15777573D01*
X29258578Y15605699D01*
X28891281Y15605699D01*
X28965305Y15675974D01*
X29084516Y15869439D01*
X29221327Y16129000D01*
X29427740Y16528572D01*
X29553378Y16800617D01*
X29592113Y16969601D01*
X29537813Y17059991D01*
X29384350Y17096254D01*
X29125594Y17102855D01*
X28977386Y17102667D01*
X28310029Y17102667D01*
X28167347Y16803461D01*
X28095045Y16577554D01*
X28046026Y16284102D01*
X28023959Y15979106D01*
X27826356Y15979106D01*
X27829397Y16044334D01*
X27833267Y16305649D01*
X27821065Y16410350D01*
X27790355Y16370606D01*
X27773825Y16321768D01*
X27666903Y16085215D01*
X27525748Y15867316D01*
X27407104Y15662542D01*
X26515560Y15662542D01*
X26527561Y15674248D01*
X26553821Y15793477D01*
X26514298Y15989370D01*
X26401649Y16291074D01*
X26330299Y16457415D01*
X26114917Y16947513D01*
X26311638Y16947513D01*
X26365183Y16767742D01*
X26431980Y16594667D01*
X26536430Y16360408D01*
X26618587Y16206673D01*
X26650102Y16171334D01*
X26666029Y16245822D01*
X26655822Y16432869D01*
X26645234Y16522203D01*
X26561194Y16827799D01*
X26414840Y16991798D01*
X26314858Y17016704D01*
X26311638Y16947513D01*
X26114917Y16947513D01*
X26046731Y17102667D01*
X25469365Y17102667D01*
X25141564Y17092859D01*
X24957598Y17060209D01*
X24892930Y16999876D01*
X24892000Y16988794D01*
X24641619Y16988794D01*
X24567567Y17058515D01*
X24402518Y17097383D01*
X24156742Y17102667D01*
X23906660Y17091884D01*
X23743383Y17064156D01*
X23706983Y17039167D01*
X23406818Y17039167D01*
X23322607Y17197089D01*
X23112346Y17822381D01*
X23049905Y18247414D01*
X23022937Y18772934D01*
X23025590Y18975064D01*
X23257938Y18975064D01*
X23309193Y18426182D01*
X23356980Y18081815D01*
X23427670Y17757880D01*
X23486904Y17574650D01*
X23573012Y17395192D01*
X23673206Y17305802D01*
X23844760Y17275198D01*
X24041013Y17272000D01*
X24283627Y17283310D01*
X24437925Y17312257D01*
X24467244Y17335500D01*
X24450674Y17441629D01*
X24407475Y17672777D01*
X24345395Y17988154D01*
X24310447Y18161000D01*
X24203731Y18684368D01*
X24384000Y18684368D01*
X24409688Y18435483D01*
X24475716Y18118942D01*
X24565531Y17795218D01*
X24662578Y17524779D01*
X24741672Y17377834D01*
X24882018Y17315176D01*
X25163505Y17279149D01*
X25414203Y17272000D01*
X26000339Y17272000D01*
X25944597Y17589500D01*
X25874106Y17984936D01*
X25837326Y18150391D01*
X26006217Y18150391D01*
X26027315Y18065828D01*
X26096836Y17972111D01*
X26181708Y18019843D01*
X26235998Y18135429D01*
X26180344Y18218856D01*
X26067548Y18278389D01*
X26025951Y18264841D01*
X26006217Y18150391D01*
X25837326Y18150391D01*
X25815087Y18250427D01*
X25747342Y18422372D01*
X25650673Y18537170D01*
X25504879Y18631222D01*
X25311808Y18729805D01*
X25068592Y18836458D01*
X25939384Y18836458D01*
X25941274Y18831409D01*
X25987835Y18640681D01*
X25992666Y18577409D01*
X26057917Y18482388D01*
X26204607Y18461825D01*
X26359137Y18522072D01*
X26383773Y18543641D01*
X26519410Y18573381D01*
X26749605Y18530892D01*
X27027002Y18436322D01*
X27304245Y18309826D01*
X27533980Y18171553D01*
X27668850Y18041655D01*
X27686000Y17989493D01*
X27732409Y17878224D01*
X27770666Y17864667D01*
X27814910Y17942425D01*
X27845201Y18148407D01*
X27855333Y18415000D01*
X27855333Y18965334D01*
X28024666Y18965334D01*
X28024666Y18386257D01*
X28029747Y18075979D01*
X28054192Y17890883D01*
X28111807Y17786911D01*
X28216398Y17720002D01*
X28236333Y17710739D01*
X28402710Y17574390D01*
X28448000Y17443149D01*
X28462654Y17355464D01*
X28530116Y17304129D01*
X28685633Y17279583D01*
X28964454Y17272265D01*
X29079020Y17272000D01*
X29710040Y17272000D01*
X29891566Y17272000D01*
X30312783Y17272000D01*
X30569064Y17282553D01*
X30695623Y17323367D01*
X30731259Y17408181D01*
X30731307Y17420167D01*
X30679589Y17605846D01*
X30678311Y17608034D01*
X32119576Y17608034D01*
X32135587Y17518578D01*
X32203019Y17470685D01*
X32266654Y17573954D01*
X32322656Y17746660D01*
X32336715Y17819310D01*
X32293366Y17833319D01*
X32205648Y17763935D01*
X32119576Y17608034D01*
X30678311Y17608034D01*
X30610122Y17724730D01*
X30534044Y17895405D01*
X30537206Y17999897D01*
X30532310Y18103679D01*
X30495983Y18118667D01*
X30344556Y18146961D01*
X30276434Y18169607D01*
X30161888Y18154825D01*
X30064584Y18004546D01*
X29976949Y17704570D01*
X29944375Y17547167D01*
X29891566Y17272000D01*
X29710040Y17272000D01*
X29798214Y17589500D01*
X29868803Y17881146D01*
X29876439Y18045262D01*
X29819453Y18112172D01*
X29769104Y18118667D01*
X29652553Y18171460D01*
X29499361Y18302223D01*
X29345443Y18469535D01*
X29261536Y18584334D01*
X32342666Y18584334D01*
X32385000Y18542000D01*
X32427333Y18584334D01*
X32385000Y18626667D01*
X32342666Y18584334D01*
X29261536Y18584334D01*
X29226715Y18631975D01*
X29179091Y18748121D01*
X29197624Y18777764D01*
X29253721Y18828797D01*
X32117770Y18828797D01*
X32131000Y18796000D01*
X32207082Y18715230D01*
X32220663Y18711334D01*
X32257029Y18776840D01*
X32258000Y18796000D01*
X32192912Y18877414D01*
X32168336Y18880667D01*
X32117770Y18828797D01*
X29253721Y18828797D01*
X29289655Y18861487D01*
X29294666Y18887723D01*
X29216925Y18924819D01*
X29011281Y18952261D01*
X28719101Y18964994D01*
X28659666Y18965334D01*
X28024666Y18965334D01*
X27855333Y18965334D01*
X27393650Y18965334D01*
X27087532Y18947068D01*
X26818414Y18900472D01*
X26714020Y18866030D01*
X26525458Y18809104D01*
X26403080Y18859893D01*
X26396770Y18866030D01*
X26238088Y18944759D01*
X26093674Y18965334D01*
X25947802Y18936668D01*
X25939384Y18836458D01*
X25068592Y18836458D01*
X25022173Y18856813D01*
X24756587Y18941923D01*
X24616833Y18963915D01*
X24457115Y18944594D01*
X24393885Y18849649D01*
X24384000Y18684368D01*
X24203731Y18684368D01*
X24155072Y18923000D01*
X23257938Y18975064D01*
X23025590Y18975064D01*
X23030311Y19334567D01*
X23032624Y19364964D01*
X23258497Y19364964D01*
X23279394Y19216865D01*
X23358192Y19135116D01*
X23359061Y19134606D01*
X23562329Y19072376D01*
X23821550Y19056567D01*
X24045209Y19089618D01*
X24100825Y19114844D01*
X24150381Y19222407D01*
X24166695Y19299236D01*
X24357937Y19299236D01*
X24397810Y19161114D01*
X24401873Y19155834D01*
X24519275Y19060267D01*
X24655733Y19092763D01*
X24712003Y19126285D01*
X24775879Y19201943D01*
X24760834Y19267320D01*
X25362062Y19267320D01*
X25362805Y19123945D01*
X25383913Y19094310D01*
X25516584Y19056362D01*
X25652375Y19135643D01*
X25723388Y19283699D01*
X25717515Y19335045D01*
X25908000Y19335045D01*
X25934461Y19167697D01*
X25992519Y19088850D01*
X26050186Y19130602D01*
X26064106Y19178398D01*
X26041122Y19353163D01*
X26000606Y19414594D01*
X25927729Y19445348D01*
X25908000Y19335045D01*
X25717515Y19335045D01*
X25706257Y19433468D01*
X25626582Y19459684D01*
X26258180Y19459684D01*
X26262829Y19257141D01*
X26379744Y19127755D01*
X26437166Y19109753D01*
X26790645Y19069873D01*
X27192986Y19064651D01*
X27545067Y19094676D01*
X27590750Y19102917D01*
X27855333Y19155834D01*
X27855333Y19948073D01*
X28024666Y19948073D01*
X28026744Y19557216D01*
X28048852Y19304636D01*
X28114797Y19159318D01*
X28248390Y19090249D01*
X28473439Y19066414D01*
X28706557Y19059822D01*
X28965354Y19071249D01*
X29152578Y19144911D01*
X29284176Y19259102D01*
X31856564Y19259102D01*
X31873518Y19224967D01*
X31954251Y19137434D01*
X31969102Y19199163D01*
X31948549Y19265319D01*
X31886216Y19357525D01*
X31858062Y19355618D01*
X31856564Y19259102D01*
X29284176Y19259102D01*
X29348952Y19315309D01*
X29381060Y19348116D01*
X29562003Y19559478D01*
X29642280Y19748122D01*
X29654678Y19995562D01*
X29653501Y20025449D01*
X29654299Y20083730D01*
X30158321Y20083730D01*
X30182100Y20002774D01*
X30342633Y19981334D01*
X30543176Y19932818D01*
X30645410Y19859061D01*
X30793490Y19768846D01*
X31023092Y19708314D01*
X31057944Y19703960D01*
X31281011Y19678692D01*
X31426840Y19659057D01*
X31438708Y19656900D01*
X31484194Y19711657D01*
X31480311Y19790834D01*
X31465376Y19812000D01*
X31665333Y19812000D01*
X31694220Y19729535D01*
X31702669Y19727334D01*
X31774955Y19786663D01*
X31792333Y19812000D01*
X31785620Y19890019D01*
X31754996Y19896667D01*
X31668778Y19835207D01*
X31665333Y19812000D01*
X31465376Y19812000D01*
X31406036Y19896094D01*
X31212072Y19952588D01*
X31086044Y19965380D01*
X30847233Y20000200D01*
X30758523Y20063660D01*
X30762574Y20103010D01*
X30728136Y20216820D01*
X30608427Y20303945D01*
X30430812Y20346987D01*
X30291126Y20260121D01*
X30276461Y20244315D01*
X30158321Y20083730D01*
X29654299Y20083730D01*
X29656853Y20269971D01*
X29702123Y20383715D01*
X29768373Y20404667D01*
X29867907Y20468249D01*
X29871371Y20552834D01*
X29838271Y20619773D01*
X29749673Y20665224D01*
X29575947Y20694629D01*
X29287464Y20713429D01*
X28933829Y20725032D01*
X28024666Y20749063D01*
X28024666Y19948073D01*
X27855333Y19948073D01*
X27855333Y20743334D01*
X27568058Y20743334D01*
X27336808Y20706065D01*
X27232048Y20616334D01*
X27121337Y20503742D01*
X27058019Y20489334D01*
X26901616Y20429147D01*
X26716276Y20285434D01*
X26561792Y20113469D01*
X26497973Y19971625D01*
X26447675Y19815379D01*
X26370973Y19689985D01*
X26258180Y19459684D01*
X25626582Y19459684D01*
X25585096Y19473334D01*
X25449623Y19409148D01*
X25362062Y19267320D01*
X24760834Y19267320D01*
X24747278Y19326224D01*
X24672582Y19463656D01*
X24555997Y19637210D01*
X24469641Y19724782D01*
X24460282Y19727334D01*
X24396640Y19655412D01*
X24360036Y19488358D01*
X24357937Y19299236D01*
X24166695Y19299236D01*
X24200563Y19458728D01*
X24243771Y19783435D01*
X24259912Y19960215D01*
X24321174Y20743334D01*
X23942655Y20743334D01*
X23706298Y20734369D01*
X23579673Y20678679D01*
X23503218Y20533066D01*
X23459063Y20392631D01*
X23378686Y20080920D01*
X23305803Y19729176D01*
X23288556Y19627995D01*
X23258497Y19364964D01*
X23032624Y19364964D01*
X23070899Y19867937D01*
X23143568Y20308670D01*
X23156938Y20361956D01*
X23376549Y20946058D01*
X23746187Y20946058D01*
X23839969Y20855390D01*
X24024782Y20868235D01*
X24198112Y20915711D01*
X24273618Y20943397D01*
X24272016Y21029030D01*
X24249284Y21229264D01*
X24228009Y21381015D01*
X24213683Y21477327D01*
X26347488Y21477327D01*
X26438534Y21423732D01*
X26491608Y21420667D01*
X26658335Y21494955D01*
X26744548Y21707896D01*
X26754666Y21850925D01*
X26798916Y21992392D01*
X26913883Y22013446D01*
X27072893Y21932200D01*
X27249272Y21766766D01*
X27416345Y21535253D01*
X27518090Y21332563D01*
X27585016Y21130886D01*
X27565459Y21034774D01*
X27532868Y21016846D01*
X27468220Y20939189D01*
X27478802Y20905436D01*
X27538564Y20837420D01*
X27635017Y20847737D01*
X27721408Y20879392D01*
X27814986Y21004265D01*
X27851629Y21256698D01*
X28024666Y21256698D01*
X28036443Y21039739D01*
X28098922Y20937438D01*
X28252828Y20895413D01*
X28299833Y20889248D01*
X28843063Y20843185D01*
X29233438Y20858514D01*
X29468679Y20935100D01*
X29500285Y20961048D01*
X29600702Y21153343D01*
X29611391Y21393214D01*
X29546344Y21624973D01*
X29419555Y21792935D01*
X29278419Y21844000D01*
X29127837Y21901813D01*
X29058161Y22029876D01*
X29098535Y22160127D01*
X29131710Y22186609D01*
X29199352Y22280199D01*
X29182530Y22323025D01*
X29069498Y22334911D01*
X28953298Y22285295D01*
X28770341Y22202137D01*
X28669178Y22182667D01*
X28553805Y22115486D01*
X28413633Y21948106D01*
X28374551Y21886334D01*
X28244791Y21699729D01*
X28135110Y21596947D01*
X28112188Y21590000D01*
X28057025Y21514975D01*
X28026689Y21327889D01*
X28024666Y21256698D01*
X27851629Y21256698D01*
X27855021Y21280064D01*
X27840831Y21696842D01*
X27801491Y22043850D01*
X27758091Y22360492D01*
X29392764Y22360492D01*
X29427982Y22257163D01*
X29506333Y22182667D01*
X29607963Y22018164D01*
X29633333Y21877919D01*
X29708321Y21670531D01*
X29845000Y21539881D01*
X29996669Y21409984D01*
X30056666Y21300863D01*
X30123276Y21128781D01*
X30279635Y21057250D01*
X30403588Y21086419D01*
X30552356Y21189496D01*
X30602720Y21244410D01*
X30575411Y21336000D01*
X30861000Y21336000D01*
X30867712Y21257982D01*
X30898336Y21251334D01*
X30984554Y21312794D01*
X30988000Y21336000D01*
X30959113Y21418466D01*
X30950663Y21420667D01*
X30878377Y21361338D01*
X30861000Y21336000D01*
X30575411Y21336000D01*
X30574259Y21339862D01*
X30442037Y21472275D01*
X30418082Y21490332D01*
X30347082Y21547667D01*
X31072666Y21547667D01*
X31115000Y21505334D01*
X31157333Y21547667D01*
X31115000Y21590000D01*
X31072666Y21547667D01*
X30347082Y21547667D01*
X30267586Y21611862D01*
X30257381Y21646445D01*
X31354888Y21646445D01*
X31366511Y21596111D01*
X31411333Y21590000D01*
X31481023Y21620979D01*
X31467777Y21646445D01*
X31367298Y21656578D01*
X31354888Y21646445D01*
X30257381Y21646445D01*
X30241797Y21699250D01*
X30316708Y21801667D01*
X30903333Y21801667D01*
X30945666Y21759334D01*
X30988000Y21801667D01*
X30945666Y21844000D01*
X30903333Y21801667D01*
X30316708Y21801667D01*
X30325136Y21813189D01*
X30332979Y21821878D01*
X30458291Y21995047D01*
X30449928Y22136093D01*
X30339877Y22281834D01*
X30173756Y22384501D01*
X30508769Y22384501D01*
X30522333Y22352000D01*
X30634492Y22270495D01*
X30659326Y22267334D01*
X30705230Y22319500D01*
X30691666Y22352000D01*
X30579507Y22433506D01*
X30554673Y22436667D01*
X30508769Y22384501D01*
X30173756Y22384501D01*
X30159661Y22393212D01*
X29864514Y22435557D01*
X29789544Y22436667D01*
X29511276Y22418524D01*
X29392764Y22360492D01*
X27758091Y22360492D01*
X27747650Y22436667D01*
X27306614Y22436667D01*
X27005097Y22416136D01*
X26795420Y22332285D01*
X26628259Y22151727D01*
X26468543Y21869372D01*
X26357929Y21617368D01*
X26347488Y21477327D01*
X24213683Y21477327D01*
X24179692Y21705826D01*
X26082958Y21705826D01*
X26148409Y21674667D01*
X26230116Y21743324D01*
X26324828Y21905868D01*
X26392242Y22062415D01*
X26373567Y22080775D01*
X26253751Y21977413D01*
X26111761Y21816177D01*
X26082958Y21705826D01*
X24179692Y21705826D01*
X24165434Y21801667D01*
X23930015Y21433956D01*
X23775795Y21141346D01*
X23746187Y20946058D01*
X23376549Y20946058D01*
X23448444Y21137275D01*
X23885688Y21855426D01*
X24449433Y22497418D01*
X24688087Y22691911D01*
X27008666Y22691911D01*
X27084811Y22642904D01*
X27279502Y22611799D01*
X27432000Y22606000D01*
X27855333Y22606000D01*
X27855333Y22775334D01*
X29464000Y22775334D01*
X29513608Y22642549D01*
X29675666Y22606000D01*
X29834797Y22633970D01*
X29887333Y22687688D01*
X29821773Y22781343D01*
X29677291Y22884295D01*
X29532188Y22942950D01*
X29511899Y22944667D01*
X29472927Y22873487D01*
X29464000Y22775334D01*
X27855333Y22775334D01*
X27855333Y22891967D01*
X27816170Y23126313D01*
X27751133Y23237445D01*
X29592532Y23237445D01*
X29663728Y23134948D01*
X29813504Y22997193D01*
X30008442Y22849935D01*
X30215126Y22718929D01*
X30400140Y22629930D01*
X30506163Y22606230D01*
X30664810Y22631131D01*
X30690576Y22692431D01*
X30578617Y22792749D01*
X30367101Y22930982D01*
X30110334Y23077002D01*
X29862626Y23200683D01*
X29678283Y23271898D01*
X29633333Y23278929D01*
X29592532Y23237445D01*
X27751133Y23237445D01*
X27720465Y23289848D01*
X27719016Y23291066D01*
X27621962Y23342295D01*
X27516608Y23305697D01*
X27361403Y23161637D01*
X27295683Y23091010D01*
X27129805Y22894098D01*
X27026145Y22740434D01*
X27008666Y22691911D01*
X24688087Y22691911D01*
X24792945Y22777365D01*
X26139029Y22777365D01*
X26163768Y22736847D01*
X26323419Y22730257D01*
X26406226Y22732047D01*
X26602262Y22753248D01*
X26765850Y22825181D01*
X26945220Y22977529D01*
X27136047Y23181208D01*
X27319939Y23396642D01*
X27435289Y23553670D01*
X27459627Y23621339D01*
X27456031Y23622000D01*
X27338807Y23578508D01*
X27126745Y23466138D01*
X26864472Y23312052D01*
X26596613Y23143411D01*
X26367796Y22987376D01*
X26223191Y22871647D01*
X26139029Y22777365D01*
X24792945Y22777365D01*
X25020625Y22962913D01*
X25619218Y22962913D01*
X25657602Y22897994D01*
X25716826Y22836709D01*
X25783695Y22821337D01*
X25890748Y22865132D01*
X26070524Y22981349D01*
X26352500Y23181052D01*
X26567929Y23339856D01*
X26713881Y23456628D01*
X26754666Y23499187D01*
X26685141Y23496036D01*
X26508257Y23441942D01*
X26271553Y23354377D01*
X26022567Y23250814D01*
X25826967Y23158213D01*
X25654984Y23051370D01*
X25619218Y22962913D01*
X25020625Y22962913D01*
X25120445Y23044261D01*
X25879487Y23476966D01*
X26579533Y23740843D01*
X27030522Y23829735D01*
X27581670Y23873435D01*
X28170092Y23872486D01*
D12*
X59690000Y24765000D03*
D13*
X57150000Y24765000D03*
X54610000Y24765000D03*
X52070000Y24765000D03*
D14*
X25400000Y-17145000D03*
X25400000Y-22225000D03*
X-11430000Y-19050000D03*
X-6330000Y-18050000D03*
D15*
X-17145000Y9525000D03*
D16*
X-17145000Y6985000D03*
X-17145000Y4445000D03*
X-17145000Y1905000D03*
X-9525000Y1905000D03*
X-9525000Y4445000D03*
X-9525000Y6985000D03*
X-9525000Y9525000D03*
D12*
X64790000Y34290000D03*
D13*
X62250000Y34290000D03*
X59710000Y34290000D03*
X57170000Y34290000D03*
X54630000Y34290000D03*
X52090000Y34290000D03*
X49550000Y34290000D03*
X47010000Y34290000D03*
X29845000Y-3810000D03*
X32385000Y-3810000D03*
X34925000Y-3810000D03*
D12*
X37465000Y-3810000D03*
X-12573000Y34290000D03*
D13*
X-15113000Y34290000D03*
X-17653000Y34290000D03*
X-20193000Y34290000D03*
D17*
X-13383000Y32179000D03*
D18*
X-15383000Y32179000D03*
X-17383000Y32179000D03*
X-19383000Y32179000D03*
D12*
X12700000Y38735000D03*
D13*
X10160000Y38735000D03*
X7620000Y38735000D03*
X5080000Y38735000D03*
D17*
X11890000Y36624000D03*
D18*
X9890000Y36624000D03*
X7890000Y36624000D03*
X5890000Y36624000D03*
D12*
X0Y38735000D03*
D13*
X-2540000Y38735000D03*
X-5080000Y38735000D03*
X-7620000Y38735000D03*
D17*
X-810000Y36624000D03*
D18*
X-2810000Y36624000D03*
X-4810000Y36624000D03*
X-6810000Y36624000D03*
D19*
X59060000Y-16545000D03*
D20*
X61560000Y-23395000D03*
D19*
X66560000Y-18795000D03*
X56810000Y-15295000D03*
D20*
X66060000Y-11795000D03*
D14*
X28575000Y-17145000D03*
X28575000Y-22225000D03*
X-22225000Y9525000D03*
X-22225000Y4445000D03*
X3175000Y9525000D03*
X3175000Y4445000D03*
X-4445000Y22860000D03*
X635000Y22860000D03*
D21*
X33655000Y-22225000D03*
X33655000Y-12827000D03*
X20320000Y-22225000D03*
X20320000Y-12827000D03*
X1905000Y-3175000D03*
X1905000Y-12573000D03*
X-2540000Y-3175000D03*
X-2540000Y-12573000D03*
X-8890000Y13970000D03*
X-18288000Y13970000D03*
D13*
X22225000Y-1270000D03*
D12*
X22225000Y-3810000D03*
D21*
X17145000Y-4445000D03*
X7747000Y-4445000D03*
X8890000Y21590000D03*
X8890000Y12192000D03*
D22*
X44450000Y-23495000D03*
X49530000Y-23495000D03*
X46990000Y-23495000D03*
X44450000Y-9525000D03*
X49530000Y-9525000D03*
D23*
X52705000Y-16510000D03*
X41275000Y-16510000D03*
D14*
X-3810000Y6985000D03*
X-2810000Y1885000D03*
D13*
X3810000Y27305000D03*
X8890000Y27305000D03*
D24*
X27940000Y19050000D03*
D12*
X17145000Y34290000D03*
X17145000Y36449000D03*
D25*
X49530000Y40005000D03*
D26*
X52070000Y40005000D03*
X54610000Y40005000D03*
X57150000Y40005000D03*
X59690000Y40005000D03*
X62230000Y40005000D03*
D27*
X-22860000Y-9525000D03*
X-22860000Y-6985000D03*
D25*
X-22860000Y-4445000D03*
D13*
X28575000Y-6350000D03*
X28575000Y-13970000D03*
X31115000Y-14605000D03*
X31115000Y-22225000D03*
X25400000Y-6350000D03*
X25400000Y-13970000D03*
X22860000Y-14605000D03*
X22860000Y-22225000D03*
X56515000Y15875000D03*
X56515000Y8255000D03*
X0Y0D03*
X0Y7620000D03*
X15240000Y-635000D03*
X7620000Y-635000D03*
X7620000Y2540000D03*
X15240000Y2540000D03*
X3810000Y20955000D03*
X3810000Y13335000D03*
X-5080000Y27940000D03*
X-12700000Y27940000D03*
D28*
X16192500Y20637500D03*
D14*
X13652500Y20637500D03*
X13652500Y18097500D03*
X10160000Y-19050000D03*
X15260000Y-18050000D03*
D15*
X35560000Y3810000D03*
D16*
X35560000Y6350000D03*
X35560000Y8890000D03*
X35560000Y11430000D03*
X35560000Y13970000D03*
X35560000Y16510000D03*
X35560000Y19050000D03*
X35560000Y21590000D03*
X35560000Y24130000D03*
X35560000Y26670000D03*
X35560000Y29210000D03*
X35560000Y31750000D03*
X35560000Y34290000D03*
X35560000Y36830000D03*
X35560000Y39370000D03*
X20320000Y39370000D03*
X20320000Y36830000D03*
X20320000Y34290000D03*
X20320000Y31750000D03*
X20320000Y29210000D03*
X20320000Y26670000D03*
X20320000Y24130000D03*
X20320000Y21590000D03*
X20320000Y19050000D03*
X20320000Y16510000D03*
X20320000Y13970000D03*
X20320000Y11430000D03*
X20320000Y8890000D03*
X20320000Y6350000D03*
X20320000Y3810000D03*
D13*
X-7620000Y17780000D03*
X-7620000Y25400000D03*
X31115000Y-11430000D03*
X22860000Y-7620000D03*
X-22860000Y-15240000D03*
X-20320000Y18415000D03*
X27559000Y-1270000D03*
X-17145000Y27940000D03*
D29*
X-1905000Y17780000D03*
X-4445000Y18732500D03*
X-4445000Y16827500D03*
X-1905000Y18732500D03*
X-4445000Y17780000D03*
X-1905000Y16827500D03*
D30*
X-13730000Y-29180000D03*
D31*
X-3730000Y-29180000D03*
D30*
X7860000Y-29180000D03*
D31*
X17860000Y-29180000D03*
D12*
X10200000Y-11430000D03*
D13*
X15200000Y-11430000D03*
D32*
X-10835000Y20320000D03*
D33*
X-15835000Y20320000D03*
D17*
X-19050000Y24495000D03*
D18*
X-19050000Y22495000D03*
D32*
X13335000Y10120000D03*
D33*
X13335000Y5120000D03*
D32*
X14859000Y24678000D03*
D33*
X14859000Y29678000D03*
D34*
X16510000Y11938000D03*
X52070000Y37465000D03*
X38100000Y40640000D03*
X61595000Y43815000D03*
X43180000Y38100000D03*
X40640000Y-12065000D03*
X40640000Y38100000D03*
X16510000Y15875000D03*
X13335000Y15875000D03*
X10795000Y15875000D03*
X16510000Y13970000D03*
X13335000Y13970000D03*
X10795000Y13970000D03*
X5715000Y33020000D03*
D35*
X-15383000Y32179000D02*
X-15383000Y34020000D01*
X-15383000Y34020000D02*
X-15113000Y34290000D01*
X-15113000Y34290000D02*
X-15113000Y36703000D01*
X-11176000Y40640000D02*
X-9525000Y40640000D01*
X-15113000Y36703000D02*
X-11176000Y40640000D01*
X-2540000Y38735000D02*
X-2540000Y40640000D01*
X-2540000Y40640000D02*
X-2540000Y40513000D01*
X-2540000Y40513000D02*
X-2540000Y40640000D01*
X-9525000Y40640000D02*
X-2540000Y40640000D01*
X-2540000Y40640000D02*
X-1143000Y40640000D01*
X10160000Y40005000D02*
X10160000Y38735000D01*
X9525000Y40640000D02*
X10160000Y40005000D01*
X889000Y40640000D02*
X9525000Y40640000D01*
X-1143000Y40640000D02*
X889000Y40640000D01*
X-2810000Y36624000D02*
X-2810000Y38465000D01*
X-2810000Y38465000D02*
X-2540000Y38735000D01*
X-2540000Y38735000D02*
X-2540000Y39243000D01*
X56515000Y15875000D02*
X56769000Y15875000D01*
X56769000Y15875000D02*
X58674000Y13970000D01*
X63880000Y-18795000D02*
X66560000Y-18795000D01*
X58674000Y-13589000D02*
X63880000Y-18795000D01*
X58674000Y13970000D02*
X58674000Y-13589000D01*
X-14732000Y34925000D02*
X-14732000Y34290000D01*
X14859000Y24678000D02*
X13652500Y23471500D01*
X13652500Y23471500D02*
X13652500Y20637500D01*
X16510000Y11938000D02*
X20320000Y11430000D01*
X10160000Y38735000D02*
X10160000Y39370000D01*
X10160000Y38735000D02*
X10160000Y36894000D01*
X10160000Y36894000D02*
X9890000Y36624000D01*
X-13383000Y32179000D02*
X-13383000Y33480000D01*
X-13383000Y33480000D02*
X-12573000Y34290000D01*
X-810000Y36624000D02*
X-810000Y37925000D01*
X-810000Y37925000D02*
X0Y38735000D01*
X-4445000Y17780000D02*
X-4953000Y17780000D01*
X-7620000Y20447000D02*
X-7620000Y25400000D01*
X-4953000Y17780000D02*
X-7620000Y20447000D01*
X32385000Y-3810000D02*
X32385000Y-1905000D01*
X27940000Y2540000D02*
X27940000Y6350000D01*
X32385000Y-1905000D02*
X27940000Y2540000D01*
X27940000Y6350000D02*
X27686000Y6350000D01*
X22225000Y6350000D02*
X27686000Y6350000D01*
X27686000Y6350000D02*
X27940000Y6350000D01*
X27940000Y6350000D02*
X33020000Y11430000D01*
D36*
X7747000Y-4445000D02*
X10795000Y-4445000D01*
X15200000Y-8850000D02*
X15200000Y-11430000D01*
X10795000Y-4445000D02*
X15200000Y-8850000D01*
D35*
X12700000Y38735000D02*
X12700000Y37434000D01*
X12700000Y37434000D02*
X11890000Y36624000D01*
X14859000Y29678000D02*
X16637000Y27900000D01*
X16637000Y27900000D02*
X16637000Y21082000D01*
X16637000Y21082000D02*
X16192500Y20637500D01*
X15240000Y5715000D02*
X14645000Y5120000D01*
X14645000Y5120000D02*
X13335000Y5120000D01*
X-15835000Y20320000D02*
X-10755000Y25400000D01*
X-10755000Y25400000D02*
X-7620000Y25400000D01*
X-19050000Y22495000D02*
X-18415000Y21860000D01*
X-18415000Y21860000D02*
X-18415000Y20320000D01*
X-20320000Y18415000D02*
X-18415000Y20320000D01*
X-18415000Y20320000D02*
X-15835000Y20320000D01*
X16192500Y20637500D02*
X16192500Y20002500D01*
X16192500Y20002500D02*
X15240000Y19050000D01*
X15240000Y19050000D02*
X15240000Y8255000D01*
X15240000Y8255000D02*
X15240000Y5715000D01*
X15240000Y5715000D02*
X15240000Y5588000D01*
X15240000Y5588000D02*
X17145000Y6350000D01*
X19050000Y6350000D02*
X20320000Y6350000D01*
X17145000Y6350000D02*
X19050000Y6350000D01*
X20320000Y6350000D02*
X22225000Y6350000D01*
X33020000Y11430000D02*
X35560000Y11430000D01*
X49530000Y-9525000D02*
X49530000Y-13970000D01*
X49530000Y-13970000D02*
X46990000Y-16510000D01*
X46990000Y-16510000D02*
X46990000Y-23495000D01*
X-20320000Y18415000D02*
X-19685000Y18415000D01*
X-22225000Y4445000D02*
X-23495000Y4445000D01*
X-23495000Y4445000D02*
X-24130000Y5080000D01*
X-24130000Y5080000D02*
X-24130000Y15875000D01*
X-24130000Y15875000D02*
X-21590000Y18415000D01*
X-21590000Y18415000D02*
X-20320000Y18415000D01*
X8890000Y12192000D02*
X8382000Y12192000D01*
X-17145000Y4445000D02*
X-22225000Y4445000D01*
X8128000Y11430000D02*
X8890000Y12192000D01*
D36*
X7620000Y-635000D02*
X7620000Y-4445000D01*
D35*
X49550000Y36850000D02*
X49550000Y34290000D01*
X50165000Y37465000D02*
X49550000Y36850000D01*
X47625000Y43180000D02*
X47625000Y41275000D01*
X43815000Y43180000D02*
X47625000Y43180000D01*
X46990000Y36850000D02*
X49550000Y34290000D01*
X46990000Y40640000D02*
X46990000Y36850000D01*
X47625000Y41275000D02*
X46990000Y40640000D01*
X20320000Y39370000D02*
X20320000Y41910000D01*
X20320000Y41910000D02*
X21590000Y43180000D01*
X21590000Y43180000D02*
X43815000Y43180000D01*
X52070000Y37465000D02*
X50165000Y37465000D01*
D36*
X-13730000Y-29180000D02*
X-13730000Y-21350000D01*
X-13730000Y-21350000D02*
X-11430000Y-19050000D01*
D37*
X-13970000Y-29845000D02*
X-11938000Y-17653000D01*
X-11938000Y-17653000D02*
X-11430000Y-17145000D01*
D38*
X-22860000Y-6985000D02*
X-19050000Y-6985000D01*
X-19050000Y-6985000D02*
X-11430000Y-14605000D01*
X-11430000Y-17145000D02*
X-11430000Y-14605000D01*
X-9398000Y-12573000D02*
X-2540000Y-12573000D01*
X-11430000Y-14605000D02*
X-9398000Y-12573000D01*
D36*
X17018000Y-4445000D02*
X19050000Y-4445000D01*
X19050000Y-4445000D02*
X19685000Y-3810000D01*
D35*
X7860000Y-29180000D02*
X7860000Y-21350000D01*
X7860000Y-21350000D02*
X10160000Y-19050000D01*
D38*
X8128000Y-28067000D02*
X5080000Y-17145000D01*
X5080000Y-17145000D02*
X1905000Y-13970000D01*
D36*
X24130000Y-3810000D02*
X24130000Y0D01*
X24130000Y0D02*
X23495000Y635000D01*
X23495000Y635000D02*
X18415000Y635000D01*
X18415000Y635000D02*
X16510000Y2540000D01*
X16510000Y2540000D02*
X15240000Y2540000D01*
X25400000Y-6350000D02*
X25400000Y-5080000D01*
X25400000Y-5080000D02*
X24130000Y-3810000D01*
X24130000Y-3810000D02*
X22225000Y-3810000D01*
X19685000Y-3810000D02*
X22225000Y-3810000D01*
X3175000Y4445000D02*
X9525000Y4445000D01*
X11430000Y2540000D02*
X15240000Y2540000D01*
X9525000Y4445000D02*
X11430000Y2540000D01*
D38*
X-6350000Y4445000D02*
X-6350000Y-2540000D01*
X-6350000Y-2540000D02*
X-8255000Y-4445000D01*
X-8255000Y-4445000D02*
X-22860000Y-4445000D01*
X3175000Y4445000D02*
X-6350000Y4445000D01*
X-6350000Y4445000D02*
X-9525000Y4445000D01*
X10200000Y-11430000D02*
X10179238Y-13078042D01*
X10160000Y-14605000D02*
X8128000Y-28067000D01*
X10179238Y-13078042D02*
X10160000Y-14605000D01*
X1905000Y-13970000D02*
X1905000Y-12573000D01*
D37*
X7493000Y-22352000D02*
X7620000Y-28575000D01*
X7620000Y-28575000D02*
X8128000Y-28067000D01*
D36*
X31115000Y-11430000D02*
X31115000Y-14605000D01*
X33655000Y-12827000D02*
X32893000Y-12827000D01*
X32893000Y-12827000D02*
X31115000Y-14605000D01*
X31115000Y-14605000D02*
X28575000Y-17145000D01*
X28575000Y-13970000D02*
X28575000Y-17145000D01*
X22860000Y-11430000D02*
X22860000Y-7620000D01*
X22860000Y-11430000D02*
X22860000Y-14605000D01*
X20320000Y-12827000D02*
X21082000Y-12827000D01*
X21082000Y-12827000D02*
X22860000Y-14605000D01*
X22860000Y-14605000D02*
X25400000Y-17145000D01*
X25400000Y-13970000D02*
X25400000Y-17145000D01*
D35*
X13652500Y18097500D02*
X14605000Y17145000D01*
X14605000Y10795000D02*
X13335000Y10160000D01*
X14605000Y17145000D02*
X14605000Y10795000D01*
X13335000Y10160000D02*
X13335000Y10160000D01*
X13652500Y18097500D02*
X13660498Y18097500D01*
X8890000Y27305000D02*
X11430000Y24765000D01*
X11430000Y19685000D02*
X13017500Y18097500D01*
X11430000Y24765000D02*
X11430000Y19685000D01*
X13017500Y18097500D02*
X13652500Y18097500D01*
X13335000Y18415000D02*
X13652500Y18097500D01*
X-17145000Y27940000D02*
X-17145000Y28575000D01*
X-17145000Y28575000D02*
X-15875000Y29845000D01*
X-15875000Y29845000D02*
X-5715000Y29845000D01*
X-5080000Y27940000D02*
X-5080000Y28575000D01*
X-5080000Y28575000D02*
X-6350000Y29845000D01*
X-6350000Y29845000D02*
X-5715000Y29845000D01*
X-5715000Y29845000D02*
X6350000Y29845000D01*
X6350000Y29845000D02*
X8890000Y27305000D01*
X-18288000Y13970000D02*
X-18288000Y9525000D01*
X-18288000Y9525000D02*
X-17145000Y9525000D01*
X-17145000Y9525000D02*
X-22225000Y9525000D01*
X-8890000Y13970000D02*
X-8890000Y10160000D01*
X-8890000Y10160000D02*
X-9525000Y9525000D01*
X3175000Y9525000D02*
X-5080000Y9525000D01*
X-5080000Y9525000D02*
X-5715000Y10160000D01*
X-5715000Y10160000D02*
X-5715000Y12700000D01*
X-5715000Y12700000D02*
X-6985000Y13970000D01*
X-6985000Y13970000D02*
X-8890000Y13970000D01*
X3175000Y20955000D02*
X3810000Y20955000D01*
X0Y17780000D02*
X3175000Y20955000D01*
X-1905000Y17780000D02*
X0Y17780000D01*
X-4445000Y18732500D02*
X-4445000Y22860000D01*
X-1905000Y18732500D02*
X-444500Y18732500D01*
X635000Y19812000D02*
X635000Y21844000D01*
X-444500Y18732500D02*
X635000Y19812000D01*
X635000Y21844000D02*
X635000Y22860000D01*
X635000Y22860000D02*
X5715000Y22860000D01*
X3810000Y27305000D02*
X635000Y22860000D01*
X6985000Y21590000D02*
X8890000Y21590000D01*
X5715000Y22860000D02*
X6985000Y21590000D01*
X-2540000Y-3175000D02*
X-2540000Y1615000D01*
X-2540000Y1615000D02*
X-2810000Y1885000D01*
X-2540000Y-3175000D02*
X1905000Y-3175000D01*
X35560000Y21590000D02*
X37465000Y21590000D01*
X29845000Y-5080000D02*
X29845000Y-3810000D01*
X38100000Y-13335000D02*
X29845000Y-5080000D01*
X38100000Y-22225000D02*
X38100000Y-13335000D01*
X41275000Y-25400000D02*
X38100000Y-22225000D01*
X53340000Y-25400000D02*
X41275000Y-25400000D01*
X54610000Y-24130000D02*
X53340000Y-25400000D01*
X54610000Y-9525000D02*
X54610000Y-24130000D01*
X52705000Y-7620000D02*
X54610000Y-9525000D01*
X48895000Y-7620000D02*
X52705000Y-7620000D01*
X41275000Y0D02*
X48895000Y-7620000D01*
X41275000Y17780000D02*
X41275000Y0D01*
X37465000Y21590000D02*
X41275000Y17780000D01*
D36*
X15240000Y-635000D02*
X18415000Y-635000D01*
X18415000Y-635000D02*
X19050000Y-1270000D01*
X19050000Y-1270000D02*
X22225000Y-1270000D01*
D35*
X41910000Y31115000D02*
X41910000Y30607000D01*
X59690000Y22987000D02*
X59690000Y24765000D01*
X59436000Y22733000D02*
X59690000Y22987000D01*
X49784000Y22733000D02*
X59436000Y22733000D01*
X41910000Y30607000D02*
X49784000Y22733000D01*
X20320000Y21590000D02*
X20701000Y21590000D01*
X20701000Y21590000D02*
X22606000Y23495000D01*
X22606000Y38989000D02*
X25527000Y41910000D01*
X22606000Y23495000D02*
X22606000Y38989000D01*
X38100000Y41910000D02*
X39370000Y41910000D01*
X39370000Y41910000D02*
X41910000Y39370000D01*
X41910000Y39370000D02*
X41910000Y31115000D01*
X25527000Y41910000D02*
X38100000Y41910000D01*
X57150000Y24765000D02*
X57150000Y25654000D01*
X57150000Y25654000D02*
X58166000Y26670000D01*
X20320000Y19050000D02*
X20955000Y19050000D01*
X20955000Y19050000D02*
X22352000Y20447000D01*
X23622000Y38227000D02*
X26035000Y40640000D01*
X23622000Y23114000D02*
X23622000Y38227000D01*
X22352000Y21844000D02*
X23622000Y23114000D01*
X22352000Y20447000D02*
X22352000Y21844000D01*
X26035000Y40640000D02*
X38100000Y40640000D01*
X61595000Y43815000D02*
X65405000Y43815000D01*
X65405000Y43815000D02*
X66675000Y42545000D01*
X66675000Y42545000D02*
X66675000Y29845000D01*
X66675000Y29845000D02*
X63500000Y26670000D01*
X63500000Y26670000D02*
X58166000Y26670000D01*
X49530000Y40005000D02*
X49530000Y41910000D01*
X49530000Y41910000D02*
X50165000Y42545000D01*
X50165000Y42545000D02*
X63500000Y42545000D01*
X48895000Y43815000D02*
X50165000Y42545000D01*
X64790000Y41255000D02*
X64790000Y34290000D01*
X63500000Y42545000D02*
X64790000Y41255000D01*
X17145000Y41910000D02*
X19050000Y43815000D01*
X19050000Y43815000D02*
X48895000Y43815000D01*
X17145000Y36449000D02*
X17145000Y41910000D01*
X17145000Y36449000D02*
X17526000Y36830000D01*
X17526000Y36830000D02*
X20320000Y36830000D01*
X20320000Y36830000D02*
X20955000Y36830000D01*
X57150000Y36195000D02*
X57150000Y34310000D01*
X59690000Y38735000D02*
X57150000Y36195000D01*
X57150000Y34310000D02*
X57170000Y34290000D01*
X59690000Y40005000D02*
X59690000Y38735000D01*
X54610000Y40005000D02*
X54610000Y38100000D01*
X54610000Y38100000D02*
X52090000Y35580000D01*
X52090000Y35580000D02*
X52090000Y34290000D01*
X52090000Y33040000D02*
X52090000Y34290000D01*
X51435000Y32385000D02*
X52090000Y33040000D01*
X45720000Y32385000D02*
X51435000Y32385000D01*
X45085000Y33020000D02*
X45720000Y32385000D01*
X45085000Y37465000D02*
X45085000Y33020000D01*
X44450000Y38100000D02*
X45085000Y37465000D01*
X43180000Y38100000D02*
X44450000Y38100000D01*
X35560000Y13970000D02*
X36195000Y13970000D01*
X36195000Y13970000D02*
X37465000Y12700000D01*
X37465000Y12700000D02*
X37465000Y-635000D01*
X37465000Y-635000D02*
X39370000Y-2540000D01*
X39370000Y-2540000D02*
X39370000Y-21590000D01*
X39370000Y-21590000D02*
X41275000Y-23495000D01*
X41275000Y-23495000D02*
X44450000Y-23495000D01*
X35560000Y16510000D02*
X36830000Y16510000D01*
X36830000Y16510000D02*
X38735000Y14605000D01*
X38735000Y14605000D02*
X38735000Y-635000D01*
X38735000Y-635000D02*
X40640000Y-2540000D01*
X40640000Y-2540000D02*
X40640000Y-12065000D01*
X35560000Y19050000D02*
X37465000Y19050000D01*
X37465000Y19050000D02*
X40005000Y16510000D01*
X40005000Y16510000D02*
X40005000Y-635000D01*
X40005000Y-635000D02*
X44450000Y-5080000D01*
X44450000Y-5080000D02*
X44450000Y-9525000D01*
X40640000Y35560000D02*
X39370000Y34290000D01*
X40640000Y38100000D02*
X40640000Y35560000D01*
X39370000Y34290000D02*
X35560000Y34290000D01*
X56515000Y8255000D02*
X56515000Y-15000000D01*
X56515000Y-15000000D02*
X56810000Y-15295000D01*
X17145000Y34290000D02*
X20320000Y34290000D01*
X-19383000Y32179000D02*
X-19383000Y33480000D01*
X-19383000Y33480000D02*
X-20193000Y34290000D01*
X-19383000Y32179000D02*
X-19383000Y31448000D01*
X-19383000Y31448000D02*
X-18415000Y30480000D01*
X12065000Y30480000D02*
X12700000Y31115000D01*
X-18415000Y30480000D02*
X12065000Y30480000D01*
X17780000Y29210000D02*
X17780000Y27940000D01*
X17780000Y27940000D02*
X19050000Y26670000D01*
X15875000Y31115000D02*
X17780000Y29210000D01*
X12700000Y31115000D02*
X15875000Y31115000D01*
X19050000Y26670000D02*
X20320000Y26670000D01*
X17145000Y16510000D02*
X20320000Y16510000D01*
X16510000Y15875000D02*
X17145000Y16510000D01*
X10795000Y15875000D02*
X13335000Y15875000D01*
X5080000Y38735000D02*
X5080000Y37434000D01*
X5080000Y37434000D02*
X5890000Y36624000D01*
X5890000Y36624000D02*
X5921000Y36624000D01*
X7890000Y36624000D02*
X7890000Y35195000D01*
X16510000Y13970000D02*
X20320000Y13970000D01*
X10795000Y13970000D02*
X13335000Y13970000D01*
X7890000Y35195000D02*
X5715000Y33020000D01*
X7620000Y38735000D02*
X7620000Y36894000D01*
X7620000Y36894000D02*
X7890000Y36624000D01*
X-17383000Y32179000D02*
X-17383000Y34020000D01*
X-17383000Y34020000D02*
X-17653000Y34290000D01*
X0Y7620000D02*
X-1270000Y8890000D01*
X-1270000Y8890000D02*
X-5715000Y8890000D01*
X-5715000Y8890000D02*
X-7620000Y6985000D01*
X-7620000Y6985000D02*
X-9525000Y6985000D01*
X0Y7620000D02*
X-635000Y7620000D01*
X-1905000Y16827500D02*
X-1905000Y15875000D01*
X-1905000Y15875000D02*
X635000Y13335000D01*
X635000Y13335000D02*
X3810000Y13335000D01*
X-8255000Y17780000D02*
X-7302500Y16827500D01*
X-7302500Y16827500D02*
X-4445000Y16827500D01*
D36*
X0Y0D02*
X3175000Y0D01*
X3175000Y0D02*
X5715000Y2540000D01*
X5715000Y2540000D02*
X7620000Y2540000D01*
D39*
G36*
X-24374380Y-5946731D02*
X-24162180Y-6091721D01*
X-23910290Y-6142730D01*
X-21809710Y-6142730D01*
X-21574393Y-6098452D01*
X-21545718Y-6080000D01*
X-17029567Y-6080000D01*
X-11510884Y-10638912D01*
X-11466418Y-10662666D01*
X-11430000Y-10668000D01*
X-889000Y-10668000D01*
X-889000Y-17857794D01*
X-8729847Y-26457433D01*
X-8755744Y-26500687D01*
X-8763000Y-26543000D01*
X-8763000Y-32385000D01*
X-18224500Y-32385000D01*
X-18224500Y-26670000D01*
X-18287337Y-26354095D01*
X-18466283Y-26086283D01*
X-18734095Y-25907337D01*
X-19050000Y-25844500D01*
X-19116053Y-25844500D01*
X-20910509Y-24199583D01*
X-20727372Y-23758541D01*
X-20726630Y-22909185D01*
X-21050980Y-22124200D01*
X-21651041Y-21523091D01*
X-22435459Y-21197372D01*
X-23284815Y-21196630D01*
X-23906313Y-21453428D01*
X-24511000Y-20899132D01*
X-24511000Y-18364388D01*
X-7917775Y-18364388D01*
X-7676602Y-18948072D01*
X-7230421Y-19395032D01*
X-6647159Y-19637224D01*
X-6015612Y-19637775D01*
X-5431928Y-19396602D01*
X-4984968Y-18950421D01*
X-4742776Y-18367159D01*
X-4742225Y-17735612D01*
X-4983398Y-17151928D01*
X-5429579Y-16704968D01*
X-6012841Y-16462776D01*
X-6644388Y-16462225D01*
X-7228072Y-16703398D01*
X-7675032Y-17149579D01*
X-7917224Y-17732841D01*
X-7917775Y-18364388D01*
X-24511000Y-18364388D01*
X-24511000Y-15567655D01*
X-24260466Y-16173995D01*
X-23796437Y-16638834D01*
X-23189845Y-16890713D01*
X-22533037Y-16891286D01*
X-21926005Y-16640466D01*
X-21461166Y-16176437D01*
X-21209287Y-15569845D01*
X-21208714Y-14913037D01*
X-21459534Y-14306005D01*
X-21923563Y-13841166D01*
X-22530155Y-13589287D01*
X-23186963Y-13588714D01*
X-23793995Y-13839534D01*
X-24258834Y-14303563D01*
X-24510713Y-14910155D01*
X-24511000Y-15239132D01*
X-24511000Y-9942449D01*
X-24289553Y-10478393D01*
X-23815887Y-10952886D01*
X-23196696Y-11209997D01*
X-22526246Y-11210582D01*
X-21906607Y-10954553D01*
X-21432114Y-10480887D01*
X-21175003Y-9861696D01*
X-21174418Y-9191246D01*
X-21430447Y-8571607D01*
X-21904113Y-8097114D01*
X-22523304Y-7840003D01*
X-23193754Y-7839418D01*
X-23813393Y-8095447D01*
X-24287886Y-8569113D01*
X-24511000Y-9106430D01*
X-24511000Y-5842000D01*
X-24441773Y-5842000D01*
X-24374380Y-5946731D01*
X-24374380Y-5946731D01*
G37*
X-24374380Y-5946731D02*
X-24162180Y-6091721D01*
X-23910290Y-6142730D01*
X-21809710Y-6142730D01*
X-21574393Y-6098452D01*
X-21545718Y-6080000D01*
X-17029567Y-6080000D01*
X-11510884Y-10638912D01*
X-11466418Y-10662666D01*
X-11430000Y-10668000D01*
X-889000Y-10668000D01*
X-889000Y-17857794D01*
X-8729847Y-26457433D01*
X-8755744Y-26500687D01*
X-8763000Y-26543000D01*
X-8763000Y-32385000D01*
X-18224500Y-32385000D01*
X-18224500Y-26670000D01*
X-18287337Y-26354095D01*
X-18466283Y-26086283D01*
X-18734095Y-25907337D01*
X-19050000Y-25844500D01*
X-19116053Y-25844500D01*
X-20910509Y-24199583D01*
X-20727372Y-23758541D01*
X-20726630Y-22909185D01*
X-21050980Y-22124200D01*
X-21651041Y-21523091D01*
X-22435459Y-21197372D01*
X-23284815Y-21196630D01*
X-23906313Y-21453428D01*
X-24511000Y-20899132D01*
X-24511000Y-18364388D01*
X-7917775Y-18364388D01*
X-7676602Y-18948072D01*
X-7230421Y-19395032D01*
X-6647159Y-19637224D01*
X-6015612Y-19637775D01*
X-5431928Y-19396602D01*
X-4984968Y-18950421D01*
X-4742776Y-18367159D01*
X-4742225Y-17735612D01*
X-4983398Y-17151928D01*
X-5429579Y-16704968D01*
X-6012841Y-16462776D01*
X-6644388Y-16462225D01*
X-7228072Y-16703398D01*
X-7675032Y-17149579D01*
X-7917224Y-17732841D01*
X-7917775Y-18364388D01*
X-24511000Y-18364388D01*
X-24511000Y-15567655D01*
X-24260466Y-16173995D01*
X-23796437Y-16638834D01*
X-23189845Y-16890713D01*
X-22533037Y-16891286D01*
X-21926005Y-16640466D01*
X-21461166Y-16176437D01*
X-21209287Y-15569845D01*
X-21208714Y-14913037D01*
X-21459534Y-14306005D01*
X-21923563Y-13841166D01*
X-22530155Y-13589287D01*
X-23186963Y-13588714D01*
X-23793995Y-13839534D01*
X-24258834Y-14303563D01*
X-24510713Y-14910155D01*
X-24511000Y-15239132D01*
X-24511000Y-9942449D01*
X-24289553Y-10478393D01*
X-23815887Y-10952886D01*
X-23196696Y-11209997D01*
X-22526246Y-11210582D01*
X-21906607Y-10954553D01*
X-21432114Y-10480887D01*
X-21175003Y-9861696D01*
X-21174418Y-9191246D01*
X-21430447Y-8571607D01*
X-21904113Y-8097114D01*
X-22523304Y-7840003D01*
X-23193754Y-7839418D01*
X-23813393Y-8095447D01*
X-24287886Y-8569113D01*
X-24511000Y-9106430D01*
X-24511000Y-5842000D01*
X-24441773Y-5842000D01*
X-24374380Y-5946731D01*
G36*
X37215000Y-13701579D02*
X37215000Y-22224995D01*
X37214999Y-22225000D01*
X37254346Y-22422804D01*
X37282367Y-22563675D01*
X37365082Y-22687467D01*
X37474210Y-22850790D01*
X39261421Y-24638000D01*
X19812000Y-24638000D01*
X19812000Y-24070532D01*
X19991036Y-24139261D01*
X20748632Y-24119436D01*
X21356480Y-23867657D01*
X21488172Y-23572777D01*
X20320000Y-22404605D01*
X20305858Y-22418748D01*
X20126253Y-22239143D01*
X20140395Y-22225000D01*
X20499605Y-22225000D01*
X21667777Y-23393172D01*
X21676879Y-23389107D01*
X21875498Y-23389107D01*
X21976120Y-23657622D01*
X22591642Y-23886816D01*
X23248019Y-23863014D01*
X23743880Y-23657622D01*
X23844502Y-23389107D01*
X23798554Y-23343159D01*
X24461446Y-23343159D01*
X24554288Y-23605088D01*
X25146801Y-23823675D01*
X25777861Y-23798878D01*
X26245712Y-23605088D01*
X26338554Y-23343159D01*
X27636446Y-23343159D01*
X27729288Y-23605088D01*
X28321801Y-23823675D01*
X28952861Y-23798878D01*
X29420712Y-23605088D01*
X29497267Y-23389107D01*
X30130498Y-23389107D01*
X30231120Y-23657622D01*
X30846642Y-23886816D01*
X31503019Y-23863014D01*
X31998880Y-23657622D01*
X32030674Y-23572777D01*
X32486828Y-23572777D01*
X32618520Y-23867657D01*
X33326036Y-24139261D01*
X34083632Y-24119436D01*
X34691480Y-23867657D01*
X34823172Y-23572777D01*
X33655000Y-22404605D01*
X32486828Y-23572777D01*
X32030674Y-23572777D01*
X32099502Y-23389107D01*
X31115000Y-22404605D01*
X30130498Y-23389107D01*
X29497267Y-23389107D01*
X29513554Y-23343159D01*
X28575000Y-22404605D01*
X27636446Y-23343159D01*
X26338554Y-23343159D01*
X25400000Y-22404605D01*
X24461446Y-23343159D01*
X23798554Y-23343159D01*
X22860000Y-22404605D01*
X21875498Y-23389107D01*
X21676879Y-23389107D01*
X21962657Y-23261480D01*
X22161256Y-22744139D01*
X22680395Y-22225000D01*
X23039605Y-22225000D01*
X24024107Y-23209502D01*
X24212402Y-23138941D01*
X24281841Y-23163554D01*
X25220395Y-22225000D01*
X25579605Y-22225000D01*
X26518159Y-23163554D01*
X26780088Y-23070712D01*
X26996459Y-22484204D01*
X27001122Y-22602861D01*
X27194912Y-23070712D01*
X27456841Y-23163554D01*
X28395395Y-22225000D01*
X28754605Y-22225000D01*
X29693159Y-23163554D01*
X29762598Y-23138941D01*
X29950893Y-23209502D01*
X30935395Y-22225000D01*
X31294605Y-22225000D01*
X31786958Y-22717353D01*
X32012343Y-23261480D01*
X32307223Y-23393172D01*
X33475395Y-22225000D01*
X33834605Y-22225000D01*
X35002777Y-23393172D01*
X35297657Y-23261480D01*
X35569261Y-22553964D01*
X35549436Y-21796368D01*
X35297657Y-21188520D01*
X35002777Y-21056828D01*
X33834605Y-22225000D01*
X33475395Y-22225000D01*
X32307223Y-21056828D01*
X32012343Y-21188520D01*
X31813744Y-21705861D01*
X31294605Y-22225000D01*
X30935395Y-22225000D01*
X29950893Y-21240498D01*
X29762598Y-21311059D01*
X29693159Y-21286446D01*
X28754605Y-22225000D01*
X28395395Y-22225000D01*
X27456841Y-21286446D01*
X27194912Y-21379288D01*
X26978541Y-21965796D01*
X26973878Y-21847139D01*
X26780088Y-21379288D01*
X26518159Y-21286446D01*
X25579605Y-22225000D01*
X25220395Y-22225000D01*
X24281841Y-21286446D01*
X24212402Y-21311059D01*
X24024107Y-21240498D01*
X23039605Y-22225000D01*
X22680395Y-22225000D01*
X22188042Y-21732647D01*
X21962657Y-21188520D01*
X21676880Y-21060893D01*
X21875498Y-21060893D01*
X22860000Y-22045395D01*
X23798554Y-21106841D01*
X24461446Y-21106841D01*
X25400000Y-22045395D01*
X26338554Y-21106841D01*
X27636446Y-21106841D01*
X28575000Y-22045395D01*
X29513554Y-21106841D01*
X29497268Y-21060893D01*
X30130498Y-21060893D01*
X31115000Y-22045395D01*
X32099502Y-21060893D01*
X32030675Y-20877223D01*
X32486828Y-20877223D01*
X33655000Y-22045395D01*
X34823172Y-20877223D01*
X34691480Y-20582343D01*
X33983964Y-20310739D01*
X33226368Y-20330564D01*
X32618520Y-20582343D01*
X32486828Y-20877223D01*
X32030675Y-20877223D01*
X31998880Y-20792378D01*
X31383358Y-20563184D01*
X30726981Y-20586986D01*
X30231120Y-20792378D01*
X30130498Y-21060893D01*
X29497268Y-21060893D01*
X29420712Y-20844912D01*
X28828199Y-20626325D01*
X28197139Y-20651122D01*
X27729288Y-20844912D01*
X27636446Y-21106841D01*
X26338554Y-21106841D01*
X26245712Y-20844912D01*
X25653199Y-20626325D01*
X25022139Y-20651122D01*
X24554288Y-20844912D01*
X24461446Y-21106841D01*
X23798554Y-21106841D01*
X23844502Y-21060893D01*
X23743880Y-20792378D01*
X23128358Y-20563184D01*
X22471981Y-20586986D01*
X21976120Y-20792378D01*
X21875498Y-21060893D01*
X21676880Y-21060893D01*
X21667777Y-21056828D01*
X20499605Y-22225000D01*
X20140395Y-22225000D01*
X20126253Y-22210858D01*
X20305858Y-22031253D01*
X20320000Y-22045395D01*
X21488172Y-20877223D01*
X21356480Y-20582343D01*
X20648964Y-20310739D01*
X19891368Y-20330564D01*
X19812000Y-20363439D01*
X19812000Y-14678763D01*
X19939410Y-14731668D01*
X20697265Y-14732330D01*
X21181936Y-14532068D01*
X21209039Y-14559171D01*
X21208714Y-14931963D01*
X21459534Y-15538995D01*
X21923563Y-16003834D01*
X22530155Y-16255713D01*
X22905908Y-16256041D01*
X23812484Y-17162617D01*
X23812225Y-17459388D01*
X24053398Y-18043072D01*
X24499579Y-18490032D01*
X25082841Y-18732224D01*
X25714388Y-18732775D01*
X26298072Y-18491602D01*
X26745032Y-18045421D01*
X26987224Y-17462159D01*
X26987226Y-17459391D01*
X27228398Y-18043072D01*
X27674579Y-18490032D01*
X28257841Y-18732224D01*
X28889388Y-18732775D01*
X29473072Y-18491602D01*
X29920032Y-18045421D01*
X30162224Y-17462159D01*
X30162485Y-17162647D01*
X31069172Y-16255961D01*
X31441963Y-16256286D01*
X32048995Y-16005466D01*
X32513834Y-15541437D01*
X32765713Y-14934845D01*
X32766041Y-14559091D01*
X32793256Y-14531876D01*
X33274410Y-14731668D01*
X34032265Y-14732330D01*
X34732686Y-14442922D01*
X35269039Y-13907505D01*
X35559668Y-13207590D01*
X35560330Y-12449735D01*
X35276687Y-11763266D01*
X37215000Y-13701579D01*
X37215000Y-13701579D01*
G37*
X37215000Y-13701579D02*
X37215000Y-22224995D01*
X37214999Y-22225000D01*
X37254346Y-22422804D01*
X37282367Y-22563675D01*
X37365082Y-22687467D01*
X37474210Y-22850790D01*
X39261421Y-24638000D01*
X19812000Y-24638000D01*
X19812000Y-24070532D01*
X19991036Y-24139261D01*
X20748632Y-24119436D01*
X21356480Y-23867657D01*
X21488172Y-23572777D01*
X20320000Y-22404605D01*
X20305858Y-22418748D01*
X20126253Y-22239143D01*
X20140395Y-22225000D01*
X20499605Y-22225000D01*
X21667777Y-23393172D01*
X21676879Y-23389107D01*
X21875498Y-23389107D01*
X21976120Y-23657622D01*
X22591642Y-23886816D01*
X23248019Y-23863014D01*
X23743880Y-23657622D01*
X23844502Y-23389107D01*
X23798554Y-23343159D01*
X24461446Y-23343159D01*
X24554288Y-23605088D01*
X25146801Y-23823675D01*
X25777861Y-23798878D01*
X26245712Y-23605088D01*
X26338554Y-23343159D01*
X27636446Y-23343159D01*
X27729288Y-23605088D01*
X28321801Y-23823675D01*
X28952861Y-23798878D01*
X29420712Y-23605088D01*
X29497267Y-23389107D01*
X30130498Y-23389107D01*
X30231120Y-23657622D01*
X30846642Y-23886816D01*
X31503019Y-23863014D01*
X31998880Y-23657622D01*
X32030674Y-23572777D01*
X32486828Y-23572777D01*
X32618520Y-23867657D01*
X33326036Y-24139261D01*
X34083632Y-24119436D01*
X34691480Y-23867657D01*
X34823172Y-23572777D01*
X33655000Y-22404605D01*
X32486828Y-23572777D01*
X32030674Y-23572777D01*
X32099502Y-23389107D01*
X31115000Y-22404605D01*
X30130498Y-23389107D01*
X29497267Y-23389107D01*
X29513554Y-23343159D01*
X28575000Y-22404605D01*
X27636446Y-23343159D01*
X26338554Y-23343159D01*
X25400000Y-22404605D01*
X24461446Y-23343159D01*
X23798554Y-23343159D01*
X22860000Y-22404605D01*
X21875498Y-23389107D01*
X21676879Y-23389107D01*
X21962657Y-23261480D01*
X22161256Y-22744139D01*
X22680395Y-22225000D01*
X23039605Y-22225000D01*
X24024107Y-23209502D01*
X24212402Y-23138941D01*
X24281841Y-23163554D01*
X25220395Y-22225000D01*
X25579605Y-22225000D01*
X26518159Y-23163554D01*
X26780088Y-23070712D01*
X26996459Y-22484204D01*
X27001122Y-22602861D01*
X27194912Y-23070712D01*
X27456841Y-23163554D01*
X28395395Y-22225000D01*
X28754605Y-22225000D01*
X29693159Y-23163554D01*
X29762598Y-23138941D01*
X29950893Y-23209502D01*
X30935395Y-22225000D01*
X31294605Y-22225000D01*
X31786958Y-22717353D01*
X32012343Y-23261480D01*
X32307223Y-23393172D01*
X33475395Y-22225000D01*
X33834605Y-22225000D01*
X35002777Y-23393172D01*
X35297657Y-23261480D01*
X35569261Y-22553964D01*
X35549436Y-21796368D01*
X35297657Y-21188520D01*
X35002777Y-21056828D01*
X33834605Y-22225000D01*
X33475395Y-22225000D01*
X32307223Y-21056828D01*
X32012343Y-21188520D01*
X31813744Y-21705861D01*
X31294605Y-22225000D01*
X30935395Y-22225000D01*
X29950893Y-21240498D01*
X29762598Y-21311059D01*
X29693159Y-21286446D01*
X28754605Y-22225000D01*
X28395395Y-22225000D01*
X27456841Y-21286446D01*
X27194912Y-21379288D01*
X26978541Y-21965796D01*
X26973878Y-21847139D01*
X26780088Y-21379288D01*
X26518159Y-21286446D01*
X25579605Y-22225000D01*
X25220395Y-22225000D01*
X24281841Y-21286446D01*
X24212402Y-21311059D01*
X24024107Y-21240498D01*
X23039605Y-22225000D01*
X22680395Y-22225000D01*
X22188042Y-21732647D01*
X21962657Y-21188520D01*
X21676880Y-21060893D01*
X21875498Y-21060893D01*
X22860000Y-22045395D01*
X23798554Y-21106841D01*
X24461446Y-21106841D01*
X25400000Y-22045395D01*
X26338554Y-21106841D01*
X27636446Y-21106841D01*
X28575000Y-22045395D01*
X29513554Y-21106841D01*
X29497268Y-21060893D01*
X30130498Y-21060893D01*
X31115000Y-22045395D01*
X32099502Y-21060893D01*
X32030675Y-20877223D01*
X32486828Y-20877223D01*
X33655000Y-22045395D01*
X34823172Y-20877223D01*
X34691480Y-20582343D01*
X33983964Y-20310739D01*
X33226368Y-20330564D01*
X32618520Y-20582343D01*
X32486828Y-20877223D01*
X32030675Y-20877223D01*
X31998880Y-20792378D01*
X31383358Y-20563184D01*
X30726981Y-20586986D01*
X30231120Y-20792378D01*
X30130498Y-21060893D01*
X29497268Y-21060893D01*
X29420712Y-20844912D01*
X28828199Y-20626325D01*
X28197139Y-20651122D01*
X27729288Y-20844912D01*
X27636446Y-21106841D01*
X26338554Y-21106841D01*
X26245712Y-20844912D01*
X25653199Y-20626325D01*
X25022139Y-20651122D01*
X24554288Y-20844912D01*
X24461446Y-21106841D01*
X23798554Y-21106841D01*
X23844502Y-21060893D01*
X23743880Y-20792378D01*
X23128358Y-20563184D01*
X22471981Y-20586986D01*
X21976120Y-20792378D01*
X21875498Y-21060893D01*
X21676880Y-21060893D01*
X21667777Y-21056828D01*
X20499605Y-22225000D01*
X20140395Y-22225000D01*
X20126253Y-22210858D01*
X20305858Y-22031253D01*
X20320000Y-22045395D01*
X21488172Y-20877223D01*
X21356480Y-20582343D01*
X20648964Y-20310739D01*
X19891368Y-20330564D01*
X19812000Y-20363439D01*
X19812000Y-14678763D01*
X19939410Y-14731668D01*
X20697265Y-14732330D01*
X21181936Y-14532068D01*
X21209039Y-14559171D01*
X21208714Y-14931963D01*
X21459534Y-15538995D01*
X21923563Y-16003834D01*
X22530155Y-16255713D01*
X22905908Y-16256041D01*
X23812484Y-17162617D01*
X23812225Y-17459388D01*
X24053398Y-18043072D01*
X24499579Y-18490032D01*
X25082841Y-18732224D01*
X25714388Y-18732775D01*
X26298072Y-18491602D01*
X26745032Y-18045421D01*
X26987224Y-17462159D01*
X26987226Y-17459391D01*
X27228398Y-18043072D01*
X27674579Y-18490032D01*
X28257841Y-18732224D01*
X28889388Y-18732775D01*
X29473072Y-18491602D01*
X29920032Y-18045421D01*
X30162224Y-17462159D01*
X30162485Y-17162647D01*
X31069172Y-16255961D01*
X31441963Y-16256286D01*
X32048995Y-16005466D01*
X32513834Y-15541437D01*
X32765713Y-14934845D01*
X32766041Y-14559091D01*
X32793256Y-14531876D01*
X33274410Y-14731668D01*
X34032265Y-14732330D01*
X34732686Y-14442922D01*
X35269039Y-13907505D01*
X35559668Y-13207590D01*
X35560330Y-12449735D01*
X35276687Y-11763266D01*
X37215000Y-13701579D01*
G36*
X73812917Y44162387D02*
X74157885Y43931887D01*
X74388388Y43586916D01*
X74485500Y43098698D01*
X74485500Y-24638000D01*
X73851702Y-24638000D01*
X73946909Y-24542959D01*
X74272628Y-23758541D01*
X74273370Y-22909185D01*
X73949020Y-22124200D01*
X73348959Y-21523091D01*
X72564541Y-21197372D01*
X71715185Y-21196630D01*
X70930200Y-21520980D01*
X70329091Y-22121041D01*
X70003372Y-22905459D01*
X70002630Y-23754815D01*
X70326980Y-24539800D01*
X70425009Y-24638000D01*
X55314494Y-24638000D01*
X55427633Y-24468675D01*
X55443762Y-24387591D01*
X55495001Y-24130000D01*
X55495000Y-24129995D01*
X55495000Y-23712609D01*
X59766538Y-23712609D01*
X59770408Y-23750281D01*
X59996920Y-24178474D01*
X60370053Y-24487390D01*
X60833000Y-24630000D01*
X61433000Y-24630000D01*
X61433000Y-23522000D01*
X61687000Y-23522000D01*
X61687000Y-24630000D01*
X62287000Y-24630000D01*
X62749947Y-24487390D01*
X63123080Y-24178474D01*
X63349592Y-23750281D01*
X63353462Y-23712609D01*
X63228731Y-23522000D01*
X61687000Y-23522000D01*
X61433000Y-23522000D01*
X59891269Y-23522000D01*
X59766538Y-23712609D01*
X55495000Y-23712609D01*
X55495000Y-23077391D01*
X59766538Y-23077391D01*
X59891269Y-23268000D01*
X61433000Y-23268000D01*
X61433000Y-22160000D01*
X61687000Y-22160000D01*
X61687000Y-23268000D01*
X63228731Y-23268000D01*
X63353462Y-23077391D01*
X63349592Y-23039719D01*
X63123080Y-22611526D01*
X62749947Y-22302610D01*
X62287000Y-22160000D01*
X61687000Y-22160000D01*
X61433000Y-22160000D01*
X60833000Y-22160000D01*
X60370053Y-22302610D01*
X59996920Y-22611526D01*
X59770408Y-23039719D01*
X59766538Y-23077391D01*
X55495000Y-23077391D01*
X55495000Y-9525005D01*
X55495001Y-9525000D01*
X55438810Y-9242516D01*
X55427633Y-9186325D01*
X55235790Y-8899210D01*
X55235787Y-8899208D01*
X53330790Y-6994210D01*
X53066224Y-6817434D01*
X53043675Y-6802367D01*
X52953078Y-6784346D01*
X52705000Y-6734999D01*
X52704995Y-6735000D01*
X49261579Y-6735000D01*
X42160000Y366580D01*
X42160000Y862185D01*
X42494630Y862185D01*
X42818980Y77200D01*
X43419041Y-523909D01*
X44203459Y-849628D01*
X45052815Y-850370D01*
X45837800Y-526020D01*
X46438909Y74041D01*
X46764628Y858459D01*
X46765370Y1707815D01*
X46441020Y2492800D01*
X45840959Y3093909D01*
X45056541Y3419628D01*
X44207185Y3420370D01*
X43422200Y3096020D01*
X42821091Y2495959D01*
X42495372Y1711541D01*
X42494630Y862185D01*
X42160000Y862185D01*
X42160000Y15548037D01*
X54863714Y15548037D01*
X55114534Y14941005D01*
X55578563Y14476166D01*
X56185155Y14224287D01*
X56841963Y14223714D01*
X57073173Y14319248D01*
X57789000Y13603421D01*
X57789000Y9315682D01*
X57451437Y9653834D01*
X56844845Y9905713D01*
X56188037Y9906286D01*
X55581005Y9655466D01*
X55116166Y9191437D01*
X54864287Y8584845D01*
X54863714Y7928037D01*
X55114534Y7321005D01*
X55578563Y6856166D01*
X55630000Y6834807D01*
X55630000Y-14382547D01*
X55575000Y-14659050D01*
X55575000Y-15930950D01*
X55669009Y-16403564D01*
X55936723Y-16804227D01*
X56337386Y-17071941D01*
X56810000Y-17165950D01*
X57282614Y-17071941D01*
X57683277Y-16804227D01*
X57825000Y-16592123D01*
X57825000Y-17180950D01*
X57919009Y-17653564D01*
X58186723Y-18054227D01*
X58587386Y-18321941D01*
X59060000Y-18415950D01*
X59532614Y-18321941D01*
X59933277Y-18054227D01*
X60200991Y-17653564D01*
X60295000Y-17180950D01*
X60295000Y-16461580D01*
X63254208Y-19420787D01*
X63254210Y-19420790D01*
X63541325Y-19612633D01*
X63597516Y-19623810D01*
X63880000Y-19680001D01*
X63880005Y-19680000D01*
X65374539Y-19680000D01*
X65419009Y-19903564D01*
X65686723Y-20304227D01*
X66087386Y-20571941D01*
X66560000Y-20665950D01*
X67032614Y-20571941D01*
X67433277Y-20304227D01*
X67700991Y-19903564D01*
X67795000Y-19430950D01*
X67795000Y-18159050D01*
X67700991Y-17686436D01*
X67433277Y-17285773D01*
X67032614Y-17018059D01*
X66560000Y-16924050D01*
X66087386Y-17018059D01*
X65686723Y-17285773D01*
X65419009Y-17686436D01*
X65374539Y-17910000D01*
X64246579Y-17910000D01*
X59559000Y-13222420D01*
X59559000Y-11795000D01*
X64189050Y-11795000D01*
X64283059Y-12267614D01*
X64550773Y-12668277D01*
X64951436Y-12935991D01*
X65424050Y-13030000D01*
X66695950Y-13030000D01*
X67168564Y-12935991D01*
X67569227Y-12668277D01*
X67836941Y-12267614D01*
X67930950Y-11795000D01*
X67836941Y-11322386D01*
X67569227Y-10921723D01*
X67168564Y-10654009D01*
X66695950Y-10560000D01*
X65424050Y-10560000D01*
X64951436Y-10654009D01*
X64550773Y-10921723D01*
X64283059Y-11322386D01*
X64189050Y-11795000D01*
X59559000Y-11795000D01*
X59559000Y862185D01*
X64994630Y862185D01*
X65318980Y77200D01*
X65919041Y-523909D01*
X66703459Y-849628D01*
X67552815Y-850370D01*
X68337800Y-526020D01*
X68938909Y74041D01*
X69264628Y858459D01*
X69265370Y1707815D01*
X68941020Y2492800D01*
X68340959Y3093909D01*
X67556541Y3419628D01*
X66707185Y3420370D01*
X65922200Y3096020D01*
X65321091Y2495959D01*
X64995372Y1711541D01*
X64994630Y862185D01*
X59559000Y862185D01*
X59559000Y13969995D01*
X59559001Y13970000D01*
X59499526Y14268995D01*
X59491633Y14308675D01*
X59299790Y14595790D01*
X59299787Y14595792D01*
X58165874Y15729706D01*
X58166286Y16201963D01*
X57915466Y16808995D01*
X57451437Y17273834D01*
X56844845Y17525713D01*
X56188037Y17526286D01*
X55581005Y17275466D01*
X55116166Y16811437D01*
X54864287Y16204845D01*
X54863714Y15548037D01*
X42160000Y15548037D01*
X42160000Y17779995D01*
X42160001Y17780000D01*
X42098349Y18089940D01*
X42092633Y18118675D01*
X41900790Y18405790D01*
X41900787Y18405792D01*
X38090790Y22215790D01*
X38059048Y22236999D01*
X37803675Y22407633D01*
X37747484Y22418810D01*
X37465000Y22475001D01*
X37464995Y22475000D01*
X37036930Y22475000D01*
X36956222Y22595789D01*
X36560801Y22860000D01*
X36956222Y23124211D01*
X37264559Y23585671D01*
X37372833Y24130000D01*
X37264559Y24674329D01*
X36956222Y25135789D01*
X36560801Y25400000D01*
X36956222Y25664211D01*
X37264559Y26125671D01*
X37372833Y26670000D01*
X37264559Y27214329D01*
X36956222Y27675789D01*
X36560801Y27940000D01*
X36956222Y28204211D01*
X37264559Y28665671D01*
X37372833Y29210000D01*
X37264559Y29754329D01*
X36956222Y30215789D01*
X36560801Y30480000D01*
X36956222Y30744211D01*
X37264559Y31205671D01*
X37372833Y31750000D01*
X37264559Y32294329D01*
X36956222Y32755789D01*
X36560801Y33020000D01*
X36956222Y33284211D01*
X37036930Y33405000D01*
X39369995Y33405000D01*
X39370000Y33404999D01*
X39683337Y33467327D01*
X39708675Y33472367D01*
X39995790Y33664210D01*
X39995791Y33664211D01*
X41025000Y34693421D01*
X41025000Y30607005D01*
X41024999Y30607000D01*
X41052094Y30470789D01*
X41092367Y30268325D01*
X41229253Y30063460D01*
X41284210Y29981210D01*
X45551188Y25714232D01*
X45056541Y25919628D01*
X44207185Y25920370D01*
X43422200Y25596020D01*
X42821091Y24995959D01*
X42495372Y24211541D01*
X42494630Y23362185D01*
X42818980Y22577200D01*
X43419041Y21976091D01*
X44203459Y21650372D01*
X45052815Y21649630D01*
X45837800Y21973980D01*
X46438909Y22574041D01*
X46764628Y23358459D01*
X46765370Y24207815D01*
X46559596Y24705825D01*
X49158208Y22107213D01*
X49158210Y22107210D01*
X49327627Y21994010D01*
X49445326Y21915366D01*
X49784000Y21847999D01*
X49784005Y21848000D01*
X59435995Y21848000D01*
X59436000Y21847999D01*
X59725422Y21905570D01*
X59774675Y21915367D01*
X60061790Y22107210D01*
X60315787Y22361208D01*
X60315790Y22361210D01*
X60507633Y22648325D01*
X60510280Y22661633D01*
X60575001Y22987000D01*
X60575000Y22987005D01*
X60575000Y23101560D01*
X60706000Y23101560D01*
X60941317Y23145838D01*
X61157441Y23284910D01*
X61210240Y23362185D01*
X64994630Y23362185D01*
X65318980Y22577200D01*
X65919041Y21976091D01*
X66703459Y21650372D01*
X67552815Y21649630D01*
X68337800Y21973980D01*
X68938909Y22574041D01*
X69264628Y23358459D01*
X69265370Y24207815D01*
X68941020Y24992800D01*
X68340959Y25593909D01*
X67556541Y25919628D01*
X66707185Y25920370D01*
X65922200Y25596020D01*
X65321091Y24995959D01*
X64995372Y24211541D01*
X64994630Y23362185D01*
X61210240Y23362185D01*
X61302431Y23497110D01*
X61353440Y23749000D01*
X61353440Y25781000D01*
X61352687Y25785000D01*
X63499995Y25785000D01*
X63500000Y25784999D01*
X63817535Y25848162D01*
X63838675Y25852367D01*
X64125790Y26044210D01*
X64125791Y26044211D01*
X67300787Y29219208D01*
X67300790Y29219210D01*
X67492633Y29506325D01*
X67509533Y29591286D01*
X67560001Y29845000D01*
X67560000Y29845005D01*
X67560000Y41245185D01*
X70002630Y41245185D01*
X70326980Y40460200D01*
X70927041Y39859091D01*
X71711459Y39533372D01*
X72560815Y39532630D01*
X73345800Y39856980D01*
X73946909Y40457041D01*
X74272628Y41241459D01*
X74273370Y42090815D01*
X73949020Y42875800D01*
X73348959Y43476909D01*
X72564541Y43802628D01*
X71715185Y43803370D01*
X70930200Y43479020D01*
X70329091Y42878959D01*
X70003372Y42094541D01*
X70002630Y41245185D01*
X67560000Y41245185D01*
X67560000Y42544995D01*
X67560001Y42545000D01*
X67492633Y42883675D01*
X67461680Y42930000D01*
X67300790Y43170790D01*
X67300787Y43170792D01*
X66212080Y44259500D01*
X73324697Y44259500D01*
X73812917Y44162387D01*
X73812917Y44162387D01*
G37*
X73812917Y44162387D02*
X74157885Y43931887D01*
X74388388Y43586916D01*
X74485500Y43098698D01*
X74485500Y-24638000D01*
X73851702Y-24638000D01*
X73946909Y-24542959D01*
X74272628Y-23758541D01*
X74273370Y-22909185D01*
X73949020Y-22124200D01*
X73348959Y-21523091D01*
X72564541Y-21197372D01*
X71715185Y-21196630D01*
X70930200Y-21520980D01*
X70329091Y-22121041D01*
X70003372Y-22905459D01*
X70002630Y-23754815D01*
X70326980Y-24539800D01*
X70425009Y-24638000D01*
X55314494Y-24638000D01*
X55427633Y-24468675D01*
X55443762Y-24387591D01*
X55495001Y-24130000D01*
X55495000Y-24129995D01*
X55495000Y-23712609D01*
X59766538Y-23712609D01*
X59770408Y-23750281D01*
X59996920Y-24178474D01*
X60370053Y-24487390D01*
X60833000Y-24630000D01*
X61433000Y-24630000D01*
X61433000Y-23522000D01*
X61687000Y-23522000D01*
X61687000Y-24630000D01*
X62287000Y-24630000D01*
X62749947Y-24487390D01*
X63123080Y-24178474D01*
X63349592Y-23750281D01*
X63353462Y-23712609D01*
X63228731Y-23522000D01*
X61687000Y-23522000D01*
X61433000Y-23522000D01*
X59891269Y-23522000D01*
X59766538Y-23712609D01*
X55495000Y-23712609D01*
X55495000Y-23077391D01*
X59766538Y-23077391D01*
X59891269Y-23268000D01*
X61433000Y-23268000D01*
X61433000Y-22160000D01*
X61687000Y-22160000D01*
X61687000Y-23268000D01*
X63228731Y-23268000D01*
X63353462Y-23077391D01*
X63349592Y-23039719D01*
X63123080Y-22611526D01*
X62749947Y-22302610D01*
X62287000Y-22160000D01*
X61687000Y-22160000D01*
X61433000Y-22160000D01*
X60833000Y-22160000D01*
X60370053Y-22302610D01*
X59996920Y-22611526D01*
X59770408Y-23039719D01*
X59766538Y-23077391D01*
X55495000Y-23077391D01*
X55495000Y-9525005D01*
X55495001Y-9525000D01*
X55438810Y-9242516D01*
X55427633Y-9186325D01*
X55235790Y-8899210D01*
X55235787Y-8899208D01*
X53330790Y-6994210D01*
X53066224Y-6817434D01*
X53043675Y-6802367D01*
X52953078Y-6784346D01*
X52705000Y-6734999D01*
X52704995Y-6735000D01*
X49261579Y-6735000D01*
X42160000Y366580D01*
X42160000Y862185D01*
X42494630Y862185D01*
X42818980Y77200D01*
X43419041Y-523909D01*
X44203459Y-849628D01*
X45052815Y-850370D01*
X45837800Y-526020D01*
X46438909Y74041D01*
X46764628Y858459D01*
X46765370Y1707815D01*
X46441020Y2492800D01*
X45840959Y3093909D01*
X45056541Y3419628D01*
X44207185Y3420370D01*
X43422200Y3096020D01*
X42821091Y2495959D01*
X42495372Y1711541D01*
X42494630Y862185D01*
X42160000Y862185D01*
X42160000Y15548037D01*
X54863714Y15548037D01*
X55114534Y14941005D01*
X55578563Y14476166D01*
X56185155Y14224287D01*
X56841963Y14223714D01*
X57073173Y14319248D01*
X57789000Y13603421D01*
X57789000Y9315682D01*
X57451437Y9653834D01*
X56844845Y9905713D01*
X56188037Y9906286D01*
X55581005Y9655466D01*
X55116166Y9191437D01*
X54864287Y8584845D01*
X54863714Y7928037D01*
X55114534Y7321005D01*
X55578563Y6856166D01*
X55630000Y6834807D01*
X55630000Y-14382547D01*
X55575000Y-14659050D01*
X55575000Y-15930950D01*
X55669009Y-16403564D01*
X55936723Y-16804227D01*
X56337386Y-17071941D01*
X56810000Y-17165950D01*
X57282614Y-17071941D01*
X57683277Y-16804227D01*
X57825000Y-16592123D01*
X57825000Y-17180950D01*
X57919009Y-17653564D01*
X58186723Y-18054227D01*
X58587386Y-18321941D01*
X59060000Y-18415950D01*
X59532614Y-18321941D01*
X59933277Y-18054227D01*
X60200991Y-17653564D01*
X60295000Y-17180950D01*
X60295000Y-16461580D01*
X63254208Y-19420787D01*
X63254210Y-19420790D01*
X63541325Y-19612633D01*
X63597516Y-19623810D01*
X63880000Y-19680001D01*
X63880005Y-19680000D01*
X65374539Y-19680000D01*
X65419009Y-19903564D01*
X65686723Y-20304227D01*
X66087386Y-20571941D01*
X66560000Y-20665950D01*
X67032614Y-20571941D01*
X67433277Y-20304227D01*
X67700991Y-19903564D01*
X67795000Y-19430950D01*
X67795000Y-18159050D01*
X67700991Y-17686436D01*
X67433277Y-17285773D01*
X67032614Y-17018059D01*
X66560000Y-16924050D01*
X66087386Y-17018059D01*
X65686723Y-17285773D01*
X65419009Y-17686436D01*
X65374539Y-17910000D01*
X64246579Y-17910000D01*
X59559000Y-13222420D01*
X59559000Y-11795000D01*
X64189050Y-11795000D01*
X64283059Y-12267614D01*
X64550773Y-12668277D01*
X64951436Y-12935991D01*
X65424050Y-13030000D01*
X66695950Y-13030000D01*
X67168564Y-12935991D01*
X67569227Y-12668277D01*
X67836941Y-12267614D01*
X67930950Y-11795000D01*
X67836941Y-11322386D01*
X67569227Y-10921723D01*
X67168564Y-10654009D01*
X66695950Y-10560000D01*
X65424050Y-10560000D01*
X64951436Y-10654009D01*
X64550773Y-10921723D01*
X64283059Y-11322386D01*
X64189050Y-11795000D01*
X59559000Y-11795000D01*
X59559000Y862185D01*
X64994630Y862185D01*
X65318980Y77200D01*
X65919041Y-523909D01*
X66703459Y-849628D01*
X67552815Y-850370D01*
X68337800Y-526020D01*
X68938909Y74041D01*
X69264628Y858459D01*
X69265370Y1707815D01*
X68941020Y2492800D01*
X68340959Y3093909D01*
X67556541Y3419628D01*
X66707185Y3420370D01*
X65922200Y3096020D01*
X65321091Y2495959D01*
X64995372Y1711541D01*
X64994630Y862185D01*
X59559000Y862185D01*
X59559000Y13969995D01*
X59559001Y13970000D01*
X59499526Y14268995D01*
X59491633Y14308675D01*
X59299790Y14595790D01*
X59299787Y14595792D01*
X58165874Y15729706D01*
X58166286Y16201963D01*
X57915466Y16808995D01*
X57451437Y17273834D01*
X56844845Y17525713D01*
X56188037Y17526286D01*
X55581005Y17275466D01*
X55116166Y16811437D01*
X54864287Y16204845D01*
X54863714Y15548037D01*
X42160000Y15548037D01*
X42160000Y17779995D01*
X42160001Y17780000D01*
X42098349Y18089940D01*
X42092633Y18118675D01*
X41900790Y18405790D01*
X41900787Y18405792D01*
X38090790Y22215790D01*
X38059048Y22236999D01*
X37803675Y22407633D01*
X37747484Y22418810D01*
X37465000Y22475001D01*
X37464995Y22475000D01*
X37036930Y22475000D01*
X36956222Y22595789D01*
X36560801Y22860000D01*
X36956222Y23124211D01*
X37264559Y23585671D01*
X37372833Y24130000D01*
X37264559Y24674329D01*
X36956222Y25135789D01*
X36560801Y25400000D01*
X36956222Y25664211D01*
X37264559Y26125671D01*
X37372833Y26670000D01*
X37264559Y27214329D01*
X36956222Y27675789D01*
X36560801Y27940000D01*
X36956222Y28204211D01*
X37264559Y28665671D01*
X37372833Y29210000D01*
X37264559Y29754329D01*
X36956222Y30215789D01*
X36560801Y30480000D01*
X36956222Y30744211D01*
X37264559Y31205671D01*
X37372833Y31750000D01*
X37264559Y32294329D01*
X36956222Y32755789D01*
X36560801Y33020000D01*
X36956222Y33284211D01*
X37036930Y33405000D01*
X39369995Y33405000D01*
X39370000Y33404999D01*
X39683337Y33467327D01*
X39708675Y33472367D01*
X39995790Y33664210D01*
X39995791Y33664211D01*
X41025000Y34693421D01*
X41025000Y30607005D01*
X41024999Y30607000D01*
X41052094Y30470789D01*
X41092367Y30268325D01*
X41229253Y30063460D01*
X41284210Y29981210D01*
X45551188Y25714232D01*
X45056541Y25919628D01*
X44207185Y25920370D01*
X43422200Y25596020D01*
X42821091Y24995959D01*
X42495372Y24211541D01*
X42494630Y23362185D01*
X42818980Y22577200D01*
X43419041Y21976091D01*
X44203459Y21650372D01*
X45052815Y21649630D01*
X45837800Y21973980D01*
X46438909Y22574041D01*
X46764628Y23358459D01*
X46765370Y24207815D01*
X46559596Y24705825D01*
X49158208Y22107213D01*
X49158210Y22107210D01*
X49327627Y21994010D01*
X49445326Y21915366D01*
X49784000Y21847999D01*
X49784005Y21848000D01*
X59435995Y21848000D01*
X59436000Y21847999D01*
X59725422Y21905570D01*
X59774675Y21915367D01*
X60061790Y22107210D01*
X60315787Y22361208D01*
X60315790Y22361210D01*
X60507633Y22648325D01*
X60510280Y22661633D01*
X60575001Y22987000D01*
X60575000Y22987005D01*
X60575000Y23101560D01*
X60706000Y23101560D01*
X60941317Y23145838D01*
X61157441Y23284910D01*
X61210240Y23362185D01*
X64994630Y23362185D01*
X65318980Y22577200D01*
X65919041Y21976091D01*
X66703459Y21650372D01*
X67552815Y21649630D01*
X68337800Y21973980D01*
X68938909Y22574041D01*
X69264628Y23358459D01*
X69265370Y24207815D01*
X68941020Y24992800D01*
X68340959Y25593909D01*
X67556541Y25919628D01*
X66707185Y25920370D01*
X65922200Y25596020D01*
X65321091Y24995959D01*
X64995372Y24211541D01*
X64994630Y23362185D01*
X61210240Y23362185D01*
X61302431Y23497110D01*
X61353440Y23749000D01*
X61353440Y25781000D01*
X61352687Y25785000D01*
X63499995Y25785000D01*
X63500000Y25784999D01*
X63817535Y25848162D01*
X63838675Y25852367D01*
X64125790Y26044210D01*
X64125791Y26044211D01*
X67300787Y29219208D01*
X67300790Y29219210D01*
X67492633Y29506325D01*
X67509533Y29591286D01*
X67560001Y29845000D01*
X67560000Y29845005D01*
X67560000Y41245185D01*
X70002630Y41245185D01*
X70326980Y40460200D01*
X70927041Y39859091D01*
X71711459Y39533372D01*
X72560815Y39532630D01*
X73345800Y39856980D01*
X73946909Y40457041D01*
X74272628Y41241459D01*
X74273370Y42090815D01*
X73949020Y42875800D01*
X73348959Y43476909D01*
X72564541Y43802628D01*
X71715185Y43803370D01*
X70930200Y43479020D01*
X70329091Y42878959D01*
X70003372Y42094541D01*
X70002630Y41245185D01*
X67560000Y41245185D01*
X67560000Y42544995D01*
X67560001Y42545000D01*
X67492633Y42883675D01*
X67461680Y42930000D01*
X67300790Y43170790D01*
X67300787Y43170792D01*
X66212080Y44259500D01*
X73324697Y44259500D01*
X73812917Y44162387D01*
G36*
X43565000Y-5446579D02*
X43565000Y-8255073D01*
X43158769Y-8660596D01*
X42926265Y-9220528D01*
X42925736Y-9826812D01*
X43157262Y-10387149D01*
X43585596Y-10816231D01*
X44145528Y-11048735D01*
X44751812Y-11049264D01*
X45312149Y-10817738D01*
X45533076Y-10597196D01*
X48637409Y-10597196D01*
X48722467Y-10852539D01*
X49291965Y-11060516D01*
X49897700Y-11034723D01*
X50337533Y-10852539D01*
X50422591Y-10597196D01*
X49530000Y-9704605D01*
X48637409Y-10597196D01*
X45533076Y-10597196D01*
X45741231Y-10389404D01*
X45973735Y-9829472D01*
X45974208Y-9286965D01*
X47994484Y-9286965D01*
X48020277Y-9892700D01*
X48202461Y-10332533D01*
X48457804Y-10417591D01*
X49350395Y-9525000D01*
X48457804Y-8632409D01*
X48202461Y-8717467D01*
X47994484Y-9286965D01*
X45974208Y-9286965D01*
X45974264Y-9223188D01*
X45742738Y-8662851D01*
X45335000Y-8254401D01*
X45335000Y-5311579D01*
X48269208Y-8245787D01*
X48269210Y-8245790D01*
X48519288Y-8412886D01*
X48556325Y-8437633D01*
X48638604Y-8453999D01*
X49530000Y-9345395D01*
X49544143Y-9331253D01*
X49723748Y-9510858D01*
X49709605Y-9525000D01*
X50602196Y-10417591D01*
X50857539Y-10332533D01*
X51065516Y-9763035D01*
X51039723Y-9157300D01*
X50857539Y-8717467D01*
X50602198Y-8632410D01*
X50716788Y-8517820D01*
X50703968Y-8505000D01*
X52338420Y-8505000D01*
X53725000Y-9891579D01*
X53725000Y-14211142D01*
X53330492Y-13947540D01*
X52705000Y-13823122D01*
X52079508Y-13947540D01*
X51549241Y-14301853D01*
X51194928Y-14832120D01*
X51070510Y-15457612D01*
X51070510Y-17562388D01*
X51194928Y-18187880D01*
X51549241Y-18718147D01*
X52079508Y-19072460D01*
X52705000Y-19196878D01*
X53330492Y-19072460D01*
X53725000Y-18808858D01*
X53725000Y-23763421D01*
X52973420Y-24515000D01*
X50665363Y-24515000D01*
X50821231Y-24359404D01*
X51053735Y-23799472D01*
X51054264Y-23193188D01*
X50822738Y-22632851D01*
X50394404Y-22203769D01*
X49834472Y-21971265D01*
X49228188Y-21970736D01*
X48667851Y-22202262D01*
X48238769Y-22630596D01*
X48227595Y-22657506D01*
X48062196Y-22602409D01*
X47169605Y-23495000D01*
X47183748Y-23509143D01*
X47004143Y-23688748D01*
X46990000Y-23674605D01*
X46975858Y-23688748D01*
X46796253Y-23509143D01*
X46810395Y-23495000D01*
X45917804Y-22602409D01*
X45752862Y-22657353D01*
X45742738Y-22632851D01*
X45533058Y-22422804D01*
X46097409Y-22422804D01*
X46990000Y-23315395D01*
X47882591Y-22422804D01*
X47797533Y-22167461D01*
X47228035Y-21959484D01*
X46622300Y-21985277D01*
X46182467Y-22167461D01*
X46097409Y-22422804D01*
X45533058Y-22422804D01*
X45314404Y-22203769D01*
X44754472Y-21971265D01*
X44148188Y-21970736D01*
X43587851Y-22202262D01*
X43179401Y-22610000D01*
X41641579Y-22610000D01*
X40255000Y-21223420D01*
X40255000Y-18808858D01*
X40649508Y-19072460D01*
X41275000Y-19196878D01*
X41900492Y-19072460D01*
X42430759Y-18718147D01*
X42785072Y-18187880D01*
X42909490Y-17562388D01*
X42909490Y-15457612D01*
X42785072Y-14832120D01*
X42430759Y-14301853D01*
X41900492Y-13947540D01*
X41275000Y-13823122D01*
X40649508Y-13947540D01*
X40255000Y-14211142D01*
X40255000Y-13074000D01*
X40424332Y-13144313D01*
X40853784Y-13144687D01*
X41250689Y-12980689D01*
X41554622Y-12677286D01*
X41719313Y-12280668D01*
X41719687Y-11851216D01*
X41555689Y-11454311D01*
X41525000Y-11423568D01*
X41525000Y-3406580D01*
X43565000Y-5446579D01*
X43565000Y-5446579D01*
G37*
X43565000Y-5446579D02*
X43565000Y-8255073D01*
X43158769Y-8660596D01*
X42926265Y-9220528D01*
X42925736Y-9826812D01*
X43157262Y-10387149D01*
X43585596Y-10816231D01*
X44145528Y-11048735D01*
X44751812Y-11049264D01*
X45312149Y-10817738D01*
X45533076Y-10597196D01*
X48637409Y-10597196D01*
X48722467Y-10852539D01*
X49291965Y-11060516D01*
X49897700Y-11034723D01*
X50337533Y-10852539D01*
X50422591Y-10597196D01*
X49530000Y-9704605D01*
X48637409Y-10597196D01*
X45533076Y-10597196D01*
X45741231Y-10389404D01*
X45973735Y-9829472D01*
X45974208Y-9286965D01*
X47994484Y-9286965D01*
X48020277Y-9892700D01*
X48202461Y-10332533D01*
X48457804Y-10417591D01*
X49350395Y-9525000D01*
X48457804Y-8632409D01*
X48202461Y-8717467D01*
X47994484Y-9286965D01*
X45974208Y-9286965D01*
X45974264Y-9223188D01*
X45742738Y-8662851D01*
X45335000Y-8254401D01*
X45335000Y-5311579D01*
X48269208Y-8245787D01*
X48269210Y-8245790D01*
X48519288Y-8412886D01*
X48556325Y-8437633D01*
X48638604Y-8453999D01*
X49530000Y-9345395D01*
X49544143Y-9331253D01*
X49723748Y-9510858D01*
X49709605Y-9525000D01*
X50602196Y-10417591D01*
X50857539Y-10332533D01*
X51065516Y-9763035D01*
X51039723Y-9157300D01*
X50857539Y-8717467D01*
X50602198Y-8632410D01*
X50716788Y-8517820D01*
X50703968Y-8505000D01*
X52338420Y-8505000D01*
X53725000Y-9891579D01*
X53725000Y-14211142D01*
X53330492Y-13947540D01*
X52705000Y-13823122D01*
X52079508Y-13947540D01*
X51549241Y-14301853D01*
X51194928Y-14832120D01*
X51070510Y-15457612D01*
X51070510Y-17562388D01*
X51194928Y-18187880D01*
X51549241Y-18718147D01*
X52079508Y-19072460D01*
X52705000Y-19196878D01*
X53330492Y-19072460D01*
X53725000Y-18808858D01*
X53725000Y-23763421D01*
X52973420Y-24515000D01*
X50665363Y-24515000D01*
X50821231Y-24359404D01*
X51053735Y-23799472D01*
X51054264Y-23193188D01*
X50822738Y-22632851D01*
X50394404Y-22203769D01*
X49834472Y-21971265D01*
X49228188Y-21970736D01*
X48667851Y-22202262D01*
X48238769Y-22630596D01*
X48227595Y-22657506D01*
X48062196Y-22602409D01*
X47169605Y-23495000D01*
X47183748Y-23509143D01*
X47004143Y-23688748D01*
X46990000Y-23674605D01*
X46975858Y-23688748D01*
X46796253Y-23509143D01*
X46810395Y-23495000D01*
X45917804Y-22602409D01*
X45752862Y-22657353D01*
X45742738Y-22632851D01*
X45533058Y-22422804D01*
X46097409Y-22422804D01*
X46990000Y-23315395D01*
X47882591Y-22422804D01*
X47797533Y-22167461D01*
X47228035Y-21959484D01*
X46622300Y-21985277D01*
X46182467Y-22167461D01*
X46097409Y-22422804D01*
X45533058Y-22422804D01*
X45314404Y-22203769D01*
X44754472Y-21971265D01*
X44148188Y-21970736D01*
X43587851Y-22202262D01*
X43179401Y-22610000D01*
X41641579Y-22610000D01*
X40255000Y-21223420D01*
X40255000Y-18808858D01*
X40649508Y-19072460D01*
X41275000Y-19196878D01*
X41900492Y-19072460D01*
X42430759Y-18718147D01*
X42785072Y-18187880D01*
X42909490Y-17562388D01*
X42909490Y-15457612D01*
X42785072Y-14832120D01*
X42430759Y-14301853D01*
X41900492Y-13947540D01*
X41275000Y-13823122D01*
X40649508Y-13947540D01*
X40255000Y-14211142D01*
X40255000Y-13074000D01*
X40424332Y-13144313D01*
X40853784Y-13144687D01*
X41250689Y-12980689D01*
X41554622Y-12677286D01*
X41719313Y-12280668D01*
X41719687Y-11851216D01*
X41555689Y-11454311D01*
X41525000Y-11423568D01*
X41525000Y-3406580D01*
X43565000Y-5446579D01*
G36*
X16519210Y42535790D02*
X16327367Y42248675D01*
X16327367Y42248674D01*
X16259999Y41910000D01*
X16260000Y41909995D01*
X16260000Y38112440D01*
X16129000Y38112440D01*
X15893683Y38068162D01*
X15677559Y37929090D01*
X15532569Y37716890D01*
X15481560Y37465000D01*
X15481560Y35433000D01*
X15493947Y35367169D01*
X15481560Y35306000D01*
X15481560Y33274000D01*
X15525838Y33038683D01*
X15664910Y32822559D01*
X15877110Y32677569D01*
X16129000Y32626560D01*
X18161000Y32626560D01*
X18396317Y32670838D01*
X18612441Y32809910D01*
X18757431Y33022110D01*
X18808440Y33274000D01*
X18808440Y33405000D01*
X18843070Y33405000D01*
X18923778Y33284211D01*
X19319199Y33020000D01*
X18923778Y32755789D01*
X18615441Y32294329D01*
X18507167Y31750000D01*
X18615441Y31205671D01*
X18923778Y30744211D01*
X19319199Y30480000D01*
X18923778Y30215789D01*
X18615441Y29754329D01*
X18579833Y29575315D01*
X18405790Y29835790D01*
X18405787Y29835792D01*
X16500790Y31740790D01*
X16297928Y31876337D01*
X16213675Y31932633D01*
X16157484Y31943810D01*
X15875000Y32000001D01*
X15874995Y32000000D01*
X12700005Y32000000D01*
X12700000Y32000001D01*
X12361326Y31932634D01*
X12315925Y31902298D01*
X12074210Y31740790D01*
X12074208Y31740787D01*
X11698420Y31365000D01*
X-11998000Y31365000D01*
X-11998000Y31893250D01*
X-12156750Y32052000D01*
X-13256000Y32052000D01*
X-13256000Y32032000D01*
X-13510000Y32032000D01*
X-13510000Y32052000D01*
X-13530000Y32052000D01*
X-13530000Y32306000D01*
X-13510000Y32306000D01*
X-13510000Y32326000D01*
X-13256000Y32326000D01*
X-13256000Y32306000D01*
X-12156750Y32306000D01*
X-11998000Y32464750D01*
X-11998000Y32639000D01*
X-11430691Y32639000D01*
X-11197302Y32735673D01*
X-11018673Y32914301D01*
X-10922000Y33147690D01*
X-10922000Y34004250D01*
X-11080750Y34163000D01*
X-12446000Y34163000D01*
X-12446000Y34143000D01*
X-12700000Y34143000D01*
X-12700000Y34163000D01*
X-12720000Y34163000D01*
X-12720000Y34417000D01*
X-12700000Y34417000D01*
X-12700000Y35782250D01*
X-12446000Y35782250D01*
X-12446000Y34417000D01*
X-11080750Y34417000D01*
X-10922000Y34575750D01*
X-10922000Y35432310D01*
X-11018673Y35665699D01*
X-11197302Y35844327D01*
X-11430691Y35941000D01*
X-12287250Y35941000D01*
X-12446000Y35782250D01*
X-12700000Y35782250D01*
X-12858750Y35941000D01*
X-13715309Y35941000D01*
X-13948698Y35844327D01*
X-14127327Y35665699D01*
X-14134993Y35647192D01*
X-14176563Y35688834D01*
X-14228000Y35710193D01*
X-14228000Y36336420D01*
X-10809421Y39755000D01*
X-8935125Y39755000D01*
X-9018834Y39671437D01*
X-9270713Y39064845D01*
X-9271286Y38408037D01*
X-9020466Y37801005D01*
X-8556437Y37336166D01*
X-8093721Y37144029D01*
X-8194759Y36900702D01*
X-8195240Y36349715D01*
X-7984831Y35840485D01*
X-7595564Y35450539D01*
X-7086702Y35239241D01*
X-6535715Y35238760D01*
X-6026485Y35449169D01*
X-5809964Y35665313D01*
X-5595564Y35450539D01*
X-5086702Y35239241D01*
X-4535715Y35238760D01*
X-4026485Y35449169D01*
X-3809964Y35665313D01*
X-3595564Y35450539D01*
X-3086702Y35239241D01*
X-2535715Y35238760D01*
X-2031233Y35447207D01*
X-1919698Y35335673D01*
X-1686309Y35239000D01*
X-1095750Y35239000D01*
X-937000Y35397750D01*
X-937000Y36497000D01*
X-683000Y36497000D01*
X-683000Y35397750D01*
X-524250Y35239000D01*
X66309Y35239000D01*
X299698Y35335673D01*
X478327Y35514301D01*
X575000Y35747690D01*
X575000Y36338250D01*
X416250Y36497000D01*
X-683000Y36497000D01*
X-937000Y36497000D01*
X-957000Y36497000D01*
X-957000Y36751000D01*
X-937000Y36751000D01*
X-937000Y36771000D01*
X-683000Y36771000D01*
X-683000Y36751000D01*
X416250Y36751000D01*
X575000Y36909750D01*
X575000Y37084000D01*
X1142309Y37084000D01*
X1375698Y37180673D01*
X1554327Y37359301D01*
X1651000Y37592690D01*
X1651000Y38449250D01*
X1492250Y38608000D01*
X127000Y38608000D01*
X127000Y38588000D01*
X-127000Y38588000D01*
X-127000Y38608000D01*
X-147000Y38608000D01*
X-147000Y38862000D01*
X-127000Y38862000D01*
X-127000Y38882000D01*
X127000Y38882000D01*
X127000Y38862000D01*
X1492250Y38862000D01*
X1651000Y39020750D01*
X1651000Y39755000D01*
X3764875Y39755000D01*
X3681166Y39671437D01*
X3429287Y39064845D01*
X3428714Y38408037D01*
X3679534Y37801005D01*
X4143563Y37336166D01*
X4220843Y37304077D01*
X4231642Y37249789D01*
X4262367Y37095325D01*
X4445804Y36820790D01*
X4454210Y36808210D01*
X4505116Y36757304D01*
X4504760Y36349715D01*
X4715169Y35840485D01*
X5104436Y35450539D01*
X5613298Y35239241D01*
X6164285Y35238760D01*
X6673515Y35449169D01*
X6890036Y35665313D01*
X6999290Y35555869D01*
X5543071Y34099651D01*
X5501216Y34099687D01*
X5104311Y33935689D01*
X4800378Y33632286D01*
X4635687Y33235668D01*
X4635313Y32806216D01*
X4799311Y32409311D01*
X5102714Y32105378D01*
X5499332Y31940687D01*
X5928784Y31940313D01*
X6325689Y32104311D01*
X6629622Y32407714D01*
X6794313Y32804332D01*
X6794351Y32847771D01*
X8515787Y34569208D01*
X8515790Y34569210D01*
X8707633Y34856325D01*
X8775000Y35195000D01*
X8775000Y35550477D01*
X8890036Y35665313D01*
X9104436Y35450539D01*
X9613298Y35239241D01*
X10164285Y35238760D01*
X10668767Y35447207D01*
X10780302Y35335673D01*
X11013691Y35239000D01*
X11604250Y35239000D01*
X11763000Y35397750D01*
X11763000Y36497000D01*
X12017000Y36497000D01*
X12017000Y35397750D01*
X12175750Y35239000D01*
X12766309Y35239000D01*
X12999698Y35335673D01*
X13178327Y35514301D01*
X13275000Y35747690D01*
X13275000Y36338250D01*
X13116250Y36497000D01*
X12017000Y36497000D01*
X11763000Y36497000D01*
X11743000Y36497000D01*
X11743000Y36751000D01*
X11763000Y36751000D01*
X11763000Y36771000D01*
X12017000Y36771000D01*
X12017000Y36751000D01*
X13116250Y36751000D01*
X13275000Y36909750D01*
X13275000Y37084000D01*
X13842309Y37084000D01*
X14075698Y37180673D01*
X14254327Y37359301D01*
X14351000Y37592690D01*
X14351000Y38449250D01*
X14192250Y38608000D01*
X12827000Y38608000D01*
X12827000Y38588000D01*
X12573000Y38588000D01*
X12573000Y38608000D01*
X12553000Y38608000D01*
X12553000Y38862000D01*
X12573000Y38862000D01*
X12573000Y40227250D01*
X12827000Y40227250D01*
X12827000Y38862000D01*
X14192250Y38862000D01*
X14351000Y39020750D01*
X14351000Y39877310D01*
X14254327Y40110699D01*
X14075698Y40289327D01*
X13842309Y40386000D01*
X12985750Y40386000D01*
X12827000Y40227250D01*
X12573000Y40227250D01*
X12414250Y40386000D01*
X11557691Y40386000D01*
X11324302Y40289327D01*
X11145673Y40110699D01*
X11138007Y40092192D01*
X11096437Y40133834D01*
X11012436Y40168714D01*
X10977634Y40343674D01*
X10864494Y40513000D01*
X10785790Y40630790D01*
X10785787Y40630792D01*
X10150790Y41265790D01*
X10123221Y41284211D01*
X9863675Y41457633D01*
X9777115Y41474851D01*
X9525000Y41525001D01*
X9524995Y41525000D01*
X-11175995Y41525000D01*
X-11176000Y41525001D01*
X-11428115Y41474851D01*
X-11514675Y41457633D01*
X-11801790Y41265790D01*
X-11801792Y41265787D01*
X-15738790Y37328790D01*
X-15930633Y37041675D01*
X-15930633Y37041674D01*
X-15998001Y36703000D01*
X-15998000Y36702995D01*
X-15998000Y35710710D01*
X-16046995Y35690466D01*
X-16383179Y35354868D01*
X-16716563Y35688834D01*
X-17323155Y35940713D01*
X-17979963Y35941286D01*
X-18586995Y35690466D01*
X-18923179Y35354868D01*
X-19256563Y35688834D01*
X-19863155Y35940713D01*
X-20519963Y35941286D01*
X-21126995Y35690466D01*
X-21591834Y35226437D01*
X-21843713Y34619845D01*
X-21844286Y33963037D01*
X-21593466Y33356005D01*
X-21129437Y32891166D01*
X-20666721Y32699029D01*
X-20767759Y32455702D01*
X-20768240Y31904715D01*
X-20557831Y31395485D01*
X-20168564Y31005539D01*
X-20116971Y30984116D01*
X-20054535Y30890673D01*
X-20008790Y30822210D01*
X-19040792Y29854213D01*
X-19040790Y29854210D01*
X-18753675Y29662367D01*
X-18697484Y29651190D01*
X-18415000Y29594999D01*
X-18414995Y29595000D01*
X-17376580Y29595000D01*
X-17380374Y29591206D01*
X-17471963Y29591286D01*
X-18078995Y29340466D01*
X-18543834Y28876437D01*
X-18795713Y28269845D01*
X-18796286Y27613037D01*
X-18545466Y27006005D01*
X-18081437Y26541166D01*
X-17474845Y26289287D01*
X-16818037Y26288714D01*
X-16211005Y26539534D01*
X-15746166Y27003563D01*
X-15494287Y27610155D01*
X-15493714Y28266963D01*
X-15700645Y28767776D01*
X-15508421Y28960000D01*
X-14015125Y28960000D01*
X-14098834Y28876437D01*
X-14350713Y28269845D01*
X-14351286Y27613037D01*
X-14100466Y27006005D01*
X-13636437Y26541166D01*
X-13029845Y26289287D01*
X-12373037Y26288714D01*
X-11766005Y26539534D01*
X-11741390Y26564107D01*
X-8604502Y26564107D01*
X-7620000Y25579605D01*
X-6635498Y26564107D01*
X-6736120Y26832622D01*
X-7351642Y27061816D01*
X-8008019Y27038014D01*
X-8503880Y26832622D01*
X-8604502Y26564107D01*
X-11741390Y26564107D01*
X-11301166Y27003563D01*
X-11049287Y27610155D01*
X-11048714Y28266963D01*
X-11299534Y28873995D01*
X-11385389Y28960000D01*
X-6716580Y28960000D01*
X-6524072Y28767492D01*
X-6730713Y28269845D01*
X-6731286Y27613037D01*
X-6480466Y27006005D01*
X-6016437Y26541166D01*
X-5409845Y26289287D01*
X-4753037Y26288714D01*
X-4146005Y26539534D01*
X-3681166Y27003563D01*
X-3429287Y27610155D01*
X-3428714Y28266963D01*
X-3679534Y28873995D01*
X-3765389Y28960000D01*
X5983420Y28960000D01*
X7259617Y27683804D01*
X7239287Y27634845D01*
X7238714Y26978037D01*
X7489534Y26371005D01*
X7953563Y25906166D01*
X8560155Y25654287D01*
X9216963Y25653714D01*
X9268438Y25674983D01*
X10545000Y24398421D01*
X10545000Y22573110D01*
X10505922Y22667686D01*
X9970505Y23204039D01*
X9270590Y23494668D01*
X8512735Y23495330D01*
X7812314Y23205922D01*
X7275961Y22670505D01*
X7240786Y22585793D01*
X6340790Y23485790D01*
X6315737Y23502530D01*
X6053675Y23677633D01*
X5996992Y23688908D01*
X5715000Y23745001D01*
X5714995Y23745000D01*
X2354722Y23745000D01*
X3718350Y25654079D01*
X4136963Y25653714D01*
X4743995Y25904534D01*
X5208834Y26368563D01*
X5460713Y26975155D01*
X5461286Y27631963D01*
X5210466Y28238995D01*
X4746437Y28703834D01*
X4139845Y28955713D01*
X3483037Y28956286D01*
X2876005Y28705466D01*
X2411166Y28241437D01*
X2159287Y27634845D01*
X2158714Y26978037D01*
X2279710Y26685205D01*
X681320Y24447460D01*
X320612Y24447775D01*
X-263072Y24206602D01*
X-710032Y23760421D01*
X-952224Y23177159D01*
X-952775Y22545612D01*
X-711602Y21961928D01*
X-265421Y21514968D01*
X-250000Y21508565D01*
X-250000Y20178579D01*
X-811080Y19617500D01*
X-1442817Y19617500D01*
X-1524000Y19633940D01*
X-2286000Y19633940D01*
X-2521317Y19589662D01*
X-2737441Y19450590D01*
X-2882431Y19238390D01*
X-2933440Y18986500D01*
X-2933440Y18478500D01*
X-2890085Y18248091D01*
X-2933440Y18034000D01*
X-2933440Y17526000D01*
X-2890085Y17295591D01*
X-2933440Y17081500D01*
X-2933440Y16573500D01*
X-2889162Y16338183D01*
X-2790000Y16184081D01*
X-2790000Y15875005D01*
X-2790001Y15875000D01*
X-2736463Y15605853D01*
X-2722633Y15536325D01*
X-2555902Y15286793D01*
X-2530790Y15249210D01*
X9208Y12709213D01*
X9210Y12709210D01*
X247058Y12550286D01*
X296325Y12517367D01*
X635000Y12450000D01*
X2389290Y12450000D01*
X2409534Y12401005D01*
X2873563Y11936166D01*
X3480155Y11684287D01*
X4136963Y11683714D01*
X4743995Y11934534D01*
X5208834Y12398563D01*
X5259659Y12520964D01*
X6975739Y12520964D01*
X6995564Y11763368D01*
X7247343Y11155520D01*
X7542223Y11023828D01*
X8710395Y12192000D01*
X7542223Y13360172D01*
X7247343Y13228480D01*
X6975739Y12520964D01*
X5259659Y12520964D01*
X5460713Y13005155D01*
X5461286Y13661963D01*
X5210466Y14268995D01*
X4746437Y14733834D01*
X4139845Y14985713D01*
X3483037Y14986286D01*
X2876005Y14735466D01*
X2411166Y14271437D01*
X2389807Y14220000D01*
X1001579Y14220000D01*
X-997574Y16219154D01*
X-927569Y16321610D01*
X-876560Y16573500D01*
X-876560Y16895000D01*
X-5Y16895000D01*
X0Y16894999D01*
X286486Y16951986D01*
X338675Y16962367D01*
X625790Y17154210D01*
X2982508Y19510928D01*
X3480155Y19304287D01*
X4136963Y19303714D01*
X4743995Y19554534D01*
X5208834Y20018563D01*
X5460713Y20625155D01*
X5461286Y21281963D01*
X5210466Y21888995D01*
X5124611Y21975000D01*
X5348420Y21975000D01*
X6359208Y20964213D01*
X6359210Y20964210D01*
X6621266Y20789111D01*
X6646325Y20772367D01*
X6985000Y20704999D01*
X6985005Y20705000D01*
X7194462Y20705000D01*
X7274078Y20512314D01*
X7809495Y19975961D01*
X8509410Y19685332D01*
X9267265Y19684670D01*
X9967686Y19974078D01*
X10504039Y20509495D01*
X10545000Y20608140D01*
X10545000Y19685005D01*
X10544999Y19685000D01*
X10599000Y19413526D01*
X10612367Y19346325D01*
X10793066Y19075888D01*
X10804210Y19059210D01*
X12064739Y17798682D01*
X12064725Y17783112D01*
X12305898Y17199428D01*
X12719109Y16785496D01*
X12693568Y16760000D01*
X11436856Y16760000D01*
X11407286Y16789622D01*
X11010668Y16954313D01*
X10581216Y16954687D01*
X10184311Y16790689D01*
X9880378Y16487286D01*
X9715687Y16090668D01*
X9715313Y15661216D01*
X9879311Y15264311D01*
X10182714Y14960378D01*
X10273668Y14922611D01*
X10184311Y14885689D01*
X9880378Y14582286D01*
X9715687Y14185668D01*
X9715452Y13915667D01*
X9218964Y14106261D01*
X8461368Y14086436D01*
X7853520Y13834657D01*
X7721828Y13539777D01*
X8890000Y12371605D01*
X8904143Y12385747D01*
X9083748Y12206142D01*
X9069605Y12192000D01*
X10237777Y11023828D01*
X10532657Y11155520D01*
X10804261Y11863036D01*
X10784436Y12620632D01*
X10672609Y12890606D01*
X11008784Y12890313D01*
X11405689Y13054311D01*
X11436432Y13085000D01*
X12693144Y13085000D01*
X12722714Y13055378D01*
X13119332Y12890687D01*
X13548784Y12890313D01*
X13720000Y12961058D01*
X13720000Y11767440D01*
X12335000Y11767440D01*
X12099683Y11723162D01*
X11883559Y11584090D01*
X11738569Y11371890D01*
X11687560Y11120000D01*
X11687560Y9120000D01*
X11731838Y8884683D01*
X11870910Y8668559D01*
X12083110Y8523569D01*
X12335000Y8472560D01*
X14335000Y8472560D01*
X14570317Y8516838D01*
X14786441Y8655910D01*
X14931431Y8868110D01*
X14982440Y9120000D01*
X14982440Y9994260D01*
X15000784Y10003432D01*
X15112840Y10090399D01*
X15230790Y10169210D01*
X15248458Y10195652D01*
X15273577Y10215147D01*
X15343826Y10338381D01*
X15422633Y10456325D01*
X15428836Y10487511D01*
X15444585Y10515138D01*
X15462327Y10655877D01*
X15490000Y10795000D01*
X15490000Y11579763D01*
X15594311Y11327311D01*
X15897714Y11023378D01*
X16294332Y10858687D01*
X16723784Y10858313D01*
X17013524Y10978031D01*
X18704366Y10752586D01*
X18923778Y10424211D01*
X19319199Y10160000D01*
X18923778Y9895789D01*
X18615441Y9434329D01*
X18507167Y8890000D01*
X18615441Y8345671D01*
X18923778Y7884211D01*
X19318830Y7620246D01*
X19302738Y7615525D01*
X18868809Y7265986D01*
X18601673Y6776996D01*
X18584990Y6697060D01*
X18707148Y6477000D01*
X20193000Y6477000D01*
X20193000Y6497000D01*
X20447000Y6497000D01*
X20447000Y6477000D01*
X21932852Y6477000D01*
X22055010Y6697060D01*
X22038327Y6776996D01*
X21771191Y7265986D01*
X21337262Y7615525D01*
X21321170Y7620246D01*
X21716222Y7884211D01*
X22024559Y8345671D01*
X22132833Y8890000D01*
X22024559Y9434329D01*
X21716222Y9895789D01*
X21320801Y10160000D01*
X21716222Y10424211D01*
X22024559Y10885671D01*
X22132833Y11430000D01*
X22024559Y11974329D01*
X21716222Y12435789D01*
X21320801Y12700000D01*
X21716222Y12964211D01*
X22024559Y13425671D01*
X22132833Y13970000D01*
X22024559Y14514329D01*
X21716222Y14975789D01*
X21320801Y15240000D01*
X21716222Y15504211D01*
X22024559Y15965671D01*
X22132833Y16510000D01*
X22024559Y17054329D01*
X21716222Y17515789D01*
X21320801Y17780000D01*
X21716222Y18044211D01*
X22024559Y18505671D01*
X22114521Y18957942D01*
X22388913Y19232334D01*
X22385645Y18983468D01*
X22385645Y18983463D01*
X22382992Y18781333D01*
X22386797Y18760799D01*
X22383778Y18740134D01*
X22410746Y18214614D01*
X22418245Y18184951D01*
X22416701Y18154391D01*
X22479142Y17729358D01*
X22498397Y17675306D01*
X22505723Y17618398D01*
X22715985Y16993106D01*
X22742473Y16946921D01*
X22757880Y16895952D01*
X22842091Y16738029D01*
X22842093Y16738027D01*
X23108698Y16238053D01*
X23137165Y16203296D01*
X23156010Y16162519D01*
X23614122Y15533229D01*
X23645751Y15504047D01*
X23668844Y15467729D01*
X24206057Y14905580D01*
X24232912Y14886741D01*
X24239170Y14877376D01*
X24254951Y14866831D01*
X24276340Y14842168D01*
X24299307Y14824342D01*
X24864464Y14385691D01*
X24903027Y14366408D01*
X24935367Y14337890D01*
X25204755Y14181379D01*
X25232206Y14171977D01*
X25255598Y14154814D01*
X25751829Y13923219D01*
X25779377Y13916468D01*
X25803623Y13901757D01*
X26323984Y13712383D01*
X26357509Y13707224D01*
X26388190Y13692764D01*
X26854001Y13576756D01*
X26892621Y13574911D01*
X26929313Y13562725D01*
X27107155Y13540503D01*
X27130735Y13542205D01*
X27153656Y13536408D01*
X27573243Y13514842D01*
X27591795Y13517551D01*
X27610210Y13514011D01*
X28082849Y13517051D01*
X28099300Y13520434D01*
X28115936Y13518120D01*
X28567919Y13544439D01*
X28591751Y13550639D01*
X28616324Y13549109D01*
X28973942Y13597380D01*
X29003480Y13607515D01*
X29034692Y13608588D01*
X29110912Y13626493D01*
X29132287Y13636221D01*
X29155637Y13638725D01*
X29476105Y13738980D01*
X29493489Y13748467D01*
X29513014Y13751776D01*
X29895788Y13897710D01*
X29909808Y13906511D01*
X29925968Y13910106D01*
X30304021Y14076774D01*
X30322796Y14089940D01*
X30344774Y14096490D01*
X30681239Y14274222D01*
X30715221Y14301833D01*
X30755105Y14319905D01*
X31466334Y14829580D01*
X31507894Y14873954D01*
X31557558Y14909016D01*
X32163015Y15546390D01*
X32194374Y15596036D01*
X32235395Y15638060D01*
X32727749Y16394546D01*
X32748267Y16445823D01*
X32779521Y16491354D01*
X33151437Y17358364D01*
X33162621Y17411124D01*
X33185294Y17460058D01*
X33270480Y17811882D01*
X33272097Y17851095D01*
X33284156Y17888445D01*
X33344990Y18410720D01*
X33342754Y18438467D01*
X33349001Y18465596D01*
X33366437Y19047430D01*
X33362514Y19070787D01*
X33366129Y19094192D01*
X33340868Y19679596D01*
X33334540Y19705514D01*
X33336428Y19732128D01*
X33269173Y20265114D01*
X33256436Y20303309D01*
X33254265Y20343514D01*
X33145718Y20768091D01*
X33129680Y20801579D01*
X33123438Y20838177D01*
X33053526Y21020989D01*
X33040351Y21041928D01*
X33034343Y21065928D01*
X32759953Y21646304D01*
X32732301Y21683601D01*
X32714676Y21726553D01*
X32368446Y22248466D01*
X32338929Y22278180D01*
X32318146Y22314543D01*
X31859089Y22842635D01*
X31827514Y22867084D01*
X31803567Y22899047D01*
X31273861Y23374489D01*
X31229204Y23400962D01*
X31191806Y23436972D01*
X30443017Y23917068D01*
X30390193Y23937787D01*
X30343041Y23969356D01*
X29526169Y24308599D01*
X29490730Y24315682D01*
X29458641Y24332310D01*
X29385170Y24353575D01*
X29353905Y24356251D01*
X29324777Y24367921D01*
X28850450Y24456543D01*
X28816574Y24456149D01*
X28783981Y24465388D01*
X28221165Y24510445D01*
X28195982Y24507499D01*
X28171124Y24512485D01*
X27582702Y24513434D01*
X27557052Y24508375D01*
X27531084Y24511433D01*
X26979936Y24467733D01*
X26944048Y24457589D01*
X26906756Y24457654D01*
X26455767Y24368762D01*
X26406434Y24348428D01*
X26353795Y24339710D01*
X25653749Y24075833D01*
X25610670Y24049015D01*
X25562529Y24032967D01*
X24803487Y23600262D01*
X24763225Y23565342D01*
X24716135Y23540379D01*
X24616315Y23459031D01*
X24616314Y23459030D01*
X24507000Y23369944D01*
X24507000Y37860420D01*
X26401579Y39755000D01*
X33823748Y39755000D01*
X33747167Y39370000D01*
X33855441Y38825671D01*
X34163778Y38364211D01*
X34559199Y38100000D01*
X34163778Y37835789D01*
X33855441Y37374329D01*
X33747167Y36830000D01*
X33855441Y36285671D01*
X34163778Y35824211D01*
X34559199Y35560000D01*
X34163778Y35295789D01*
X33855441Y34834329D01*
X33747167Y34290000D01*
X33855441Y33745671D01*
X34163778Y33284211D01*
X34559199Y33020000D01*
X34163778Y32755789D01*
X33855441Y32294329D01*
X33747167Y31750000D01*
X33855441Y31205671D01*
X34163778Y30744211D01*
X34559199Y30480000D01*
X34163778Y30215789D01*
X33855441Y29754329D01*
X33747167Y29210000D01*
X33855441Y28665671D01*
X34163778Y28204211D01*
X34559199Y27940000D01*
X34163778Y27675789D01*
X33855441Y27214329D01*
X33747167Y26670000D01*
X33855441Y26125671D01*
X34163778Y25664211D01*
X34559199Y25400000D01*
X34163778Y25135789D01*
X33855441Y24674329D01*
X33747167Y24130000D01*
X33855441Y23585671D01*
X34163778Y23124211D01*
X34559199Y22860000D01*
X34163778Y22595789D01*
X33855441Y22134329D01*
X33747167Y21590000D01*
X33855441Y21045671D01*
X34163778Y20584211D01*
X34559199Y20320000D01*
X34163778Y20055789D01*
X33855441Y19594329D01*
X33747167Y19050000D01*
X33855441Y18505671D01*
X34163778Y18044211D01*
X34559199Y17780000D01*
X34163778Y17515789D01*
X33855441Y17054329D01*
X33747167Y16510000D01*
X33855441Y15965671D01*
X34163778Y15504211D01*
X34559199Y15240000D01*
X34163778Y14975789D01*
X33855441Y14514329D01*
X33747167Y13970000D01*
X33855441Y13425671D01*
X34163778Y12964211D01*
X34558830Y12700246D01*
X34542738Y12695525D01*
X34108809Y12345986D01*
X33841673Y11856996D01*
X33824990Y11777060D01*
X33947148Y11557000D01*
X35433000Y11557000D01*
X35433000Y11577000D01*
X35687000Y11577000D01*
X35687000Y11557000D01*
X35707000Y11557000D01*
X35707000Y11303000D01*
X35687000Y11303000D01*
X35687000Y11283000D01*
X35433000Y11283000D01*
X35433000Y11303000D01*
X33947148Y11303000D01*
X33824990Y11082940D01*
X33841673Y11003004D01*
X34108809Y10514014D01*
X34542738Y10164475D01*
X34558830Y10159754D01*
X34163778Y9895789D01*
X33855441Y9434329D01*
X33747167Y8890000D01*
X33855441Y8345671D01*
X34163778Y7884211D01*
X34559199Y7620000D01*
X34163778Y7355789D01*
X33855441Y6894329D01*
X33747167Y6350000D01*
X33855441Y5805671D01*
X34163778Y5344211D01*
X34335460Y5229497D01*
X34181683Y5200562D01*
X33965559Y5061490D01*
X33820569Y4849290D01*
X33769560Y4597400D01*
X33769560Y3022600D01*
X33813838Y2787283D01*
X33952910Y2571159D01*
X34165110Y2426169D01*
X34417000Y2375160D01*
X36580000Y2375160D01*
X36580000Y-634995D01*
X36579999Y-635000D01*
X36619913Y-835655D01*
X36647367Y-973675D01*
X36839210Y-1260790D01*
X37724980Y-2146560D01*
X36449000Y-2146560D01*
X36213683Y-2190838D01*
X35997559Y-2329910D01*
X35909287Y-2459100D01*
X35861437Y-2411166D01*
X35254845Y-2159287D01*
X34598037Y-2158714D01*
X33991005Y-2409534D01*
X33567435Y-2832366D01*
X33549107Y-2825498D01*
X32564605Y-3810000D01*
X33549107Y-4794502D01*
X33567917Y-4787453D01*
X33988563Y-5208834D01*
X34595155Y-5460713D01*
X35251963Y-5461286D01*
X35858995Y-5210466D01*
X35909421Y-5160128D01*
X35984910Y-5277441D01*
X36197110Y-5422431D01*
X36449000Y-5473440D01*
X38481000Y-5473440D01*
X38485000Y-5472687D01*
X38485000Y-12468421D01*
X31003216Y-4986636D01*
X31015766Y-4974107D01*
X31400498Y-4974107D01*
X31501120Y-5242622D01*
X32116642Y-5471816D01*
X32773019Y-5448014D01*
X33268880Y-5242622D01*
X33369502Y-4974107D01*
X32385000Y-3989605D01*
X31400498Y-4974107D01*
X31015766Y-4974107D01*
X31202565Y-4787634D01*
X31220893Y-4794502D01*
X32205395Y-3810000D01*
X31220893Y-2825498D01*
X31202083Y-2832547D01*
X31015755Y-2645893D01*
X31400498Y-2645893D01*
X32385000Y-3630395D01*
X33369502Y-2645893D01*
X33268880Y-2377378D01*
X32653358Y-2148184D01*
X31996981Y-2171986D01*
X31501120Y-2377378D01*
X31400498Y-2645893D01*
X31015755Y-2645893D01*
X30781437Y-2411166D01*
X30174845Y-2159287D01*
X29518037Y-2158714D01*
X28911005Y-2409534D01*
X28446166Y-2873563D01*
X28194287Y-3480155D01*
X28193714Y-4136963D01*
X28425888Y-4698869D01*
X28248037Y-4698714D01*
X27641005Y-4949534D01*
X27176166Y-5413563D01*
X26987346Y-5868291D01*
X26800466Y-5416005D01*
X26535000Y-5150076D01*
X26535000Y-5080000D01*
X26448603Y-4645654D01*
X26202566Y-4277434D01*
X25265000Y-3339868D01*
X25265000Y-1596963D01*
X25907714Y-1596963D01*
X26158534Y-2203995D01*
X26622563Y-2668834D01*
X27229155Y-2920713D01*
X27885963Y-2921286D01*
X28492995Y-2670466D01*
X28957834Y-2206437D01*
X29209713Y-1599845D01*
X29210286Y-943037D01*
X28959466Y-336005D01*
X28495437Y128834D01*
X27888845Y380713D01*
X27232037Y381286D01*
X26625005Y130466D01*
X26160166Y-333563D01*
X25908287Y-940155D01*
X25907714Y-1596963D01*
X25265000Y-1596963D01*
X25265000Y0D01*
X25228672Y182633D01*
X25178604Y434345D01*
X24932566Y802566D01*
X24297566Y1437566D01*
X24134795Y1546326D01*
X23929346Y1683603D01*
X23495000Y1770000D01*
X18885132Y1770000D01*
X17312566Y3342566D01*
X17232002Y3396397D01*
X16944346Y3588603D01*
X16510000Y3675000D01*
X16439811Y3675000D01*
X16305047Y3810000D01*
X18507167Y3810000D01*
X18615441Y3265671D01*
X18923778Y2804211D01*
X19385238Y2495874D01*
X19929567Y2387600D01*
X20710433Y2387600D01*
X21254762Y2495874D01*
X21716222Y2804211D01*
X22024559Y3265671D01*
X22132833Y3810000D01*
X22024559Y4354329D01*
X21716222Y4815789D01*
X21321170Y5079754D01*
X21337262Y5084475D01*
X21771191Y5434014D01*
X22038327Y5923004D01*
X22055010Y6002940D01*
X21932852Y6223000D01*
X20447000Y6223000D01*
X20447000Y6203000D01*
X20193000Y6203000D01*
X20193000Y6223000D01*
X18707148Y6223000D01*
X18584990Y6002940D01*
X18601673Y5923004D01*
X18868809Y5434014D01*
X19302738Y5084475D01*
X19318830Y5079754D01*
X18923778Y4815789D01*
X18615441Y4354329D01*
X18507167Y3810000D01*
X16305047Y3810000D01*
X16176437Y3938834D01*
X15569845Y4190713D01*
X14913037Y4191286D01*
X14580658Y4053950D01*
X14487534Y4147074D01*
X14754387Y4245736D01*
X14980908Y4855461D01*
X14956856Y5505460D01*
X14754387Y5994264D01*
X14487532Y6092927D01*
X13514605Y5120000D01*
X13528748Y5105857D01*
X13349143Y4926252D01*
X13335000Y4940395D01*
X12362073Y3967468D01*
X12460736Y3700613D01*
X12529678Y3675000D01*
X11900132Y3675000D01*
X10327566Y5247566D01*
X10122572Y5384539D01*
X11689092Y5384539D01*
X11713144Y4734540D01*
X11915613Y4245736D01*
X12182468Y4147073D01*
X13155395Y5120000D01*
X12182468Y6092927D01*
X11915613Y5994264D01*
X11689092Y5384539D01*
X10122572Y5384539D01*
X9959346Y5493603D01*
X9525000Y5580000D01*
X4345232Y5580000D01*
X4331120Y5601120D01*
X4129562Y5735796D01*
X4075421Y5790032D01*
X4004021Y5819680D01*
X3800687Y5955543D01*
X3562936Y6002835D01*
X3492159Y6032224D01*
X3414847Y6032291D01*
X3175000Y6080000D01*
X596296Y6080000D01*
X933995Y6219534D01*
X987085Y6272532D01*
X12362073Y6272532D01*
X13335000Y5299605D01*
X14307927Y6272532D01*
X14209264Y6539387D01*
X13599539Y6765908D01*
X12949540Y6741856D01*
X12460736Y6539387D01*
X12362073Y6272532D01*
X987085Y6272532D01*
X1398834Y6683563D01*
X1650713Y7290155D01*
X1651286Y7946963D01*
X1400466Y8553995D01*
X1314611Y8640000D01*
X1822997Y8640000D01*
X1828398Y8626928D01*
X2274579Y8179968D01*
X2857841Y7937776D01*
X3489388Y7937225D01*
X4073072Y8178398D01*
X4520032Y8624579D01*
X4762224Y9207841D01*
X4762775Y9839388D01*
X4521602Y10423072D01*
X4101186Y10844223D01*
X7721828Y10844223D01*
X7853520Y10549343D01*
X8561036Y10277739D01*
X9318632Y10297564D01*
X9926480Y10549343D01*
X10058172Y10844223D01*
X8890000Y12012395D01*
X7721828Y10844223D01*
X4101186Y10844223D01*
X4075421Y10870032D01*
X3492159Y11112224D01*
X2860612Y11112775D01*
X2276928Y10871602D01*
X1829968Y10425421D01*
X1823565Y10410000D01*
X-4713421Y10410000D01*
X-4830000Y10526580D01*
X-4830000Y12699995D01*
X-4829999Y12700000D01*
X-4897367Y13038675D01*
X-4928320Y13085000D01*
X-5089210Y13325790D01*
X-5089213Y13325792D01*
X-6359210Y14595790D01*
X-6369667Y14602777D01*
X-6646325Y14787633D01*
X-6738445Y14805957D01*
X-6985000Y14855001D01*
X-6985005Y14855000D01*
X-7194462Y14855000D01*
X-7274078Y15047686D01*
X-7809495Y15584039D01*
X-8509410Y15874668D01*
X-9267265Y15875330D01*
X-9967686Y15585922D01*
X-10504039Y15050505D01*
X-10794668Y14350590D01*
X-10795330Y13592735D01*
X-10505922Y12892314D01*
X-9970505Y12355961D01*
X-9775000Y12274781D01*
X-9775000Y10947400D01*
X-9915433Y10947400D01*
X-10459762Y10839126D01*
X-10921222Y10530789D01*
X-11229559Y10069329D01*
X-11337833Y9525000D01*
X-11229559Y8980671D01*
X-10921222Y8519211D01*
X-10525801Y8255000D01*
X-10921222Y7990789D01*
X-11229559Y7529329D01*
X-11337833Y6985000D01*
X-11229559Y6440671D01*
X-10921222Y5979211D01*
X-10525801Y5715000D01*
X-10921222Y5450789D01*
X-11229559Y4989329D01*
X-11337833Y4445000D01*
X-11229559Y3900671D01*
X-10921222Y3439211D01*
X-10715871Y3302000D01*
X-15975632Y3302000D01*
X-15693809Y3529014D01*
X-15426673Y4018004D01*
X-15409990Y4097940D01*
X-15532148Y4318000D01*
X-17018000Y4318000D01*
X-17018000Y4298000D01*
X-17272000Y4298000D01*
X-17272000Y4318000D01*
X-18757852Y4318000D01*
X-18880010Y4097940D01*
X-18863327Y4018004D01*
X-18596191Y3529014D01*
X-18314368Y3302000D01*
X-21295251Y3302000D01*
X-21286446Y3326841D01*
X-22225000Y4265395D01*
X-23163554Y3326841D01*
X-23154749Y3302000D01*
X-25209500Y3302000D01*
X-25209500Y4698199D01*
X-23823675Y4698199D01*
X-23798878Y4067139D01*
X-23605088Y3599288D01*
X-23343159Y3506446D01*
X-22404605Y4445000D01*
X-22045395Y4445000D01*
X-21106841Y3506446D01*
X-20844912Y3599288D01*
X-20626325Y4191801D01*
X-20651122Y4822861D01*
X-20844912Y5290712D01*
X-21106841Y5383554D01*
X-22045395Y4445000D01*
X-22404605Y4445000D01*
X-23343159Y5383554D01*
X-23605088Y5290712D01*
X-23823675Y4698199D01*
X-25209500Y4698199D01*
X-25209500Y5563159D01*
X-23163554Y5563159D01*
X-22225000Y4624605D01*
X-21286446Y5563159D01*
X-21379288Y5825088D01*
X-21971801Y6043675D01*
X-22602861Y6018878D01*
X-23070712Y5825088D01*
X-23163554Y5563159D01*
X-25209500Y5563159D01*
X-25209500Y9210612D01*
X-23812775Y9210612D01*
X-23571602Y8626928D01*
X-23125421Y8179968D01*
X-22542159Y7937776D01*
X-21910612Y7937225D01*
X-21326928Y8178398D01*
X-20879968Y8624579D01*
X-20873565Y8640000D01*
X-18917075Y8640000D01*
X-18891162Y8502283D01*
X-18752090Y8286159D01*
X-18539890Y8141169D01*
X-18368197Y8106400D01*
X-18541222Y7990789D01*
X-18849559Y7529329D01*
X-18957833Y6985000D01*
X-18849559Y6440671D01*
X-18541222Y5979211D01*
X-18146170Y5715246D01*
X-18162262Y5710525D01*
X-18596191Y5360986D01*
X-18863327Y4871996D01*
X-18880010Y4792060D01*
X-18757852Y4572000D01*
X-17272000Y4572000D01*
X-17272000Y4592000D01*
X-17018000Y4592000D01*
X-17018000Y4572000D01*
X-15532148Y4572000D01*
X-15409990Y4792060D01*
X-15426673Y4871996D01*
X-15693809Y5360986D01*
X-16127738Y5710525D01*
X-16143830Y5715246D01*
X-15748778Y5979211D01*
X-15440441Y6440671D01*
X-15332167Y6985000D01*
X-15440441Y7529329D01*
X-15748778Y7990789D01*
X-15920460Y8105503D01*
X-15766683Y8134438D01*
X-15550559Y8273510D01*
X-15405569Y8485710D01*
X-15354560Y8737600D01*
X-15354560Y10312400D01*
X-15398838Y10547717D01*
X-15537910Y10763841D01*
X-15750110Y10908831D01*
X-16002000Y10959840D01*
X-17403000Y10959840D01*
X-17403000Y12274462D01*
X-17210314Y12354078D01*
X-16673961Y12889495D01*
X-16383332Y13589410D01*
X-16382670Y14347265D01*
X-16672078Y15047686D01*
X-17207495Y15584039D01*
X-17907410Y15874668D01*
X-18665265Y15875330D01*
X-19365686Y15585922D01*
X-19902039Y15050505D01*
X-20192668Y14350590D01*
X-20193330Y13592735D01*
X-19903922Y12892314D01*
X-19368505Y12355961D01*
X-19173000Y12274781D01*
X-19173000Y10410000D01*
X-20872997Y10410000D01*
X-20878398Y10423072D01*
X-21324579Y10870032D01*
X-21907841Y11112224D01*
X-22539388Y11112775D01*
X-23123072Y10871602D01*
X-23570032Y10425421D01*
X-23812224Y9842159D01*
X-23812775Y9210612D01*
X-25209500Y9210612D01*
X-25209500Y17250893D01*
X-21304502Y17250893D01*
X-21203880Y16982378D01*
X-20588358Y16753184D01*
X-19931981Y16776986D01*
X-19436120Y16982378D01*
X-19335498Y17250893D01*
X-20320000Y18235395D01*
X-21304502Y17250893D01*
X-25209500Y17250893D01*
X-25209500Y18683358D01*
X-21981816Y18683358D01*
X-21958014Y18026981D01*
X-21752622Y17531120D01*
X-21484107Y17430498D01*
X-20499605Y18415000D01*
X-20140395Y18415000D01*
X-19155893Y17430498D01*
X-19095747Y17453037D01*
X-9271286Y17453037D01*
X-9020466Y16846005D01*
X-8556437Y16381166D01*
X-7949845Y16129287D01*
X-7819731Y16129173D01*
X-7641175Y16009867D01*
X-7302500Y15942500D01*
X-4907183Y15942500D01*
X-4826000Y15926060D01*
X-4064000Y15926060D01*
X-3828683Y15970338D01*
X-3612559Y16109410D01*
X-3467569Y16321610D01*
X-3416560Y16573500D01*
X-3416560Y17081500D01*
X-3460838Y17316817D01*
X-3462353Y17319171D01*
X-3429000Y17399691D01*
X-3429000Y17494250D01*
X-3587750Y17653000D01*
X-3775622Y17653000D01*
X-3812110Y17677931D01*
X-4064000Y17728940D01*
X-4826000Y17728940D01*
X-4913371Y17712500D01*
X-5969058Y17712500D01*
X-5968714Y18106963D01*
X-6219534Y18713995D01*
X-6683563Y19178834D01*
X-7290155Y19430713D01*
X-7946963Y19431286D01*
X-8553995Y19180466D01*
X-9018834Y18716437D01*
X-9270713Y18109845D01*
X-9271286Y17453037D01*
X-19095747Y17453037D01*
X-18887378Y17531120D01*
X-18658184Y18146642D01*
X-18681986Y18803019D01*
X-18832945Y19167468D01*
X-16807927Y19167468D01*
X-16709264Y18900613D01*
X-16099539Y18674092D01*
X-15449540Y18698144D01*
X-14960736Y18900613D01*
X-14862073Y19167468D01*
X-15835000Y20140395D01*
X-16807927Y19167468D01*
X-18832945Y19167468D01*
X-18887378Y19298880D01*
X-19155893Y19399502D01*
X-20140395Y18415000D01*
X-20499605Y18415000D01*
X-21484107Y19399502D01*
X-21752622Y19298880D01*
X-21981816Y18683358D01*
X-25209500Y18683358D01*
X-25209500Y19579107D01*
X-21304502Y19579107D01*
X-20320000Y18594605D01*
X-19335498Y19579107D01*
X-19436120Y19847622D01*
X-20051642Y20076816D01*
X-20708019Y20053014D01*
X-21203880Y19847622D01*
X-21304502Y19579107D01*
X-25209500Y19579107D01*
X-25209500Y20584539D01*
X-17480908Y20584539D01*
X-17456856Y19934540D01*
X-17254387Y19445736D01*
X-16987532Y19347073D01*
X-16014605Y20320000D01*
X-15655395Y20320000D01*
X-14682468Y19347073D01*
X-14415613Y19445736D01*
X-14189092Y20055461D01*
X-14213144Y20705460D01*
X-14415613Y21194264D01*
X-14682468Y21292927D01*
X-15655395Y20320000D01*
X-16014605Y20320000D01*
X-16987532Y21292927D01*
X-17254387Y21194264D01*
X-17480908Y20584539D01*
X-25209500Y20584539D01*
X-25209500Y21523483D01*
X-19841912Y21523483D01*
X-19773923Y21282540D01*
X-19254829Y21097799D01*
X-18704552Y21125770D01*
X-18326077Y21282540D01*
X-18272466Y21472532D01*
X-16807927Y21472532D01*
X-15835000Y20499605D01*
X-15014605Y21320000D01*
X-12482440Y21320000D01*
X-12482440Y19320000D01*
X-12438162Y19084683D01*
X-12299090Y18868559D01*
X-12086890Y18723569D01*
X-11835000Y18672560D01*
X-9835000Y18672560D01*
X-9599683Y18716838D01*
X-9383559Y18855910D01*
X-9238569Y19068110D01*
X-9187560Y19320000D01*
X-9187560Y21320000D01*
X-9231838Y21555317D01*
X-9370910Y21771441D01*
X-9583110Y21916431D01*
X-9835000Y21967440D01*
X-11835000Y21967440D01*
X-12070317Y21923162D01*
X-12286441Y21784090D01*
X-12431431Y21571890D01*
X-12482440Y21320000D01*
X-15014605Y21320000D01*
X-14862073Y21472532D01*
X-14960736Y21739387D01*
X-15570461Y21965908D01*
X-16220460Y21941856D01*
X-16709264Y21739387D01*
X-16807927Y21472532D01*
X-18272466Y21472532D01*
X-18258088Y21523483D01*
X-19050000Y22315395D01*
X-19841912Y21523483D01*
X-25209500Y21523483D01*
X-25209500Y25245000D01*
X-20447440Y25245000D01*
X-20447440Y23745000D01*
X-20403162Y23509683D01*
X-20264090Y23293559D01*
X-20186307Y23240412D01*
X-20262460Y23218923D01*
X-20447201Y22699829D01*
X-20419230Y22149552D01*
X-20262460Y21771077D01*
X-20021517Y21703088D01*
X-19229605Y22495000D01*
X-19243747Y22509142D01*
X-19064142Y22688747D01*
X-19050000Y22674605D01*
X-19035857Y22688747D01*
X-18856252Y22509142D01*
X-18870395Y22495000D01*
X-18078483Y21703088D01*
X-17837540Y21771077D01*
X-17652799Y22290171D01*
X-17665783Y22545612D01*
X-6032775Y22545612D01*
X-5791602Y21961928D01*
X-5345421Y21514968D01*
X-5330000Y21508565D01*
X-5330000Y19373667D01*
X-5422431Y19238390D01*
X-5473440Y18986500D01*
X-5473440Y18478500D01*
X-5429162Y18243183D01*
X-5427647Y18240829D01*
X-5461000Y18160309D01*
X-5461000Y18065750D01*
X-5302250Y17907000D01*
X-5114378Y17907000D01*
X-5077890Y17882069D01*
X-4826000Y17831060D01*
X-4064000Y17831060D01*
X-3828683Y17875338D01*
X-3779479Y17907000D01*
X-3587750Y17907000D01*
X-3429000Y18065750D01*
X-3429000Y18160309D01*
X-3463922Y18244619D01*
X-3416560Y18478500D01*
X-3416560Y18986500D01*
X-3460838Y19221817D01*
X-3560000Y19375919D01*
X-3560000Y21507997D01*
X-3546928Y21513398D01*
X-3099968Y21959579D01*
X-2857776Y22542841D01*
X-2857225Y23174388D01*
X-3098398Y23758072D01*
X-3544579Y24205032D01*
X-4127841Y24447224D01*
X-4759388Y24447775D01*
X-5343072Y24206602D01*
X-5790032Y23760421D01*
X-6032224Y23177159D01*
X-6032775Y22545612D01*
X-17665783Y22545612D01*
X-17680770Y22840448D01*
X-17837540Y23218923D01*
X-17912165Y23239981D01*
X-17848559Y23280910D01*
X-17703569Y23493110D01*
X-17652560Y23745000D01*
X-17652560Y24235893D01*
X-8604502Y24235893D01*
X-8503880Y23967378D01*
X-7888358Y23738184D01*
X-7231981Y23761986D01*
X-6736120Y23967378D01*
X-6635498Y24235893D01*
X-7620000Y25220395D01*
X-8604502Y24235893D01*
X-17652560Y24235893D01*
X-17652560Y25245000D01*
X-17696838Y25480317D01*
X-17817839Y25668358D01*
X-9281816Y25668358D01*
X-9258014Y25011981D01*
X-9052622Y24516120D01*
X-8784107Y24415498D01*
X-7799605Y25400000D01*
X-7440395Y25400000D01*
X-6455893Y24415498D01*
X-6187378Y24516120D01*
X-5958184Y25131642D01*
X-5981986Y25788019D01*
X-6187378Y26283880D01*
X-6455893Y26384502D01*
X-7440395Y25400000D01*
X-7799605Y25400000D01*
X-8784107Y26384502D01*
X-9052622Y26283880D01*
X-9281816Y25668358D01*
X-17817839Y25668358D01*
X-17835910Y25696441D01*
X-18048110Y25841431D01*
X-18300000Y25892440D01*
X-19800000Y25892440D01*
X-20035317Y25848162D01*
X-20251441Y25709090D01*
X-20396431Y25496890D01*
X-20447440Y25245000D01*
X-25209500Y25245000D01*
X-25209500Y41245185D01*
X-24997370Y41245185D01*
X-24673020Y40460200D01*
X-24072959Y39859091D01*
X-23288541Y39533372D01*
X-22439185Y39532630D01*
X-21654200Y39856980D01*
X-21053091Y40457041D01*
X-20727372Y41241459D01*
X-20726630Y42090815D01*
X-21050980Y42875800D01*
X-21651041Y43476909D01*
X-22435459Y43802628D01*
X-23284815Y43803370D01*
X-24069800Y43479020D01*
X-24670909Y42878959D01*
X-24996628Y42094541D01*
X-24997370Y41245185D01*
X-25209500Y41245185D01*
X-25209500Y43098697D01*
X-25112387Y43586917D01*
X-24881887Y43931885D01*
X-24536916Y44162388D01*
X-24048698Y44259500D01*
X18242921Y44259500D01*
X16519210Y42535790D01*
X16519210Y42535790D01*
G37*
X16519210Y42535790D02*
X16327367Y42248675D01*
X16327367Y42248674D01*
X16259999Y41910000D01*
X16260000Y41909995D01*
X16260000Y38112440D01*
X16129000Y38112440D01*
X15893683Y38068162D01*
X15677559Y37929090D01*
X15532569Y37716890D01*
X15481560Y37465000D01*
X15481560Y35433000D01*
X15493947Y35367169D01*
X15481560Y35306000D01*
X15481560Y33274000D01*
X15525838Y33038683D01*
X15664910Y32822559D01*
X15877110Y32677569D01*
X16129000Y32626560D01*
X18161000Y32626560D01*
X18396317Y32670838D01*
X18612441Y32809910D01*
X18757431Y33022110D01*
X18808440Y33274000D01*
X18808440Y33405000D01*
X18843070Y33405000D01*
X18923778Y33284211D01*
X19319199Y33020000D01*
X18923778Y32755789D01*
X18615441Y32294329D01*
X18507167Y31750000D01*
X18615441Y31205671D01*
X18923778Y30744211D01*
X19319199Y30480000D01*
X18923778Y30215789D01*
X18615441Y29754329D01*
X18579833Y29575315D01*
X18405790Y29835790D01*
X18405787Y29835792D01*
X16500790Y31740790D01*
X16297928Y31876337D01*
X16213675Y31932633D01*
X16157484Y31943810D01*
X15875000Y32000001D01*
X15874995Y32000000D01*
X12700005Y32000000D01*
X12700000Y32000001D01*
X12361326Y31932634D01*
X12315925Y31902298D01*
X12074210Y31740790D01*
X12074208Y31740787D01*
X11698420Y31365000D01*
X-11998000Y31365000D01*
X-11998000Y31893250D01*
X-12156750Y32052000D01*
X-13256000Y32052000D01*
X-13256000Y32032000D01*
X-13510000Y32032000D01*
X-13510000Y32052000D01*
X-13530000Y32052000D01*
X-13530000Y32306000D01*
X-13510000Y32306000D01*
X-13510000Y32326000D01*
X-13256000Y32326000D01*
X-13256000Y32306000D01*
X-12156750Y32306000D01*
X-11998000Y32464750D01*
X-11998000Y32639000D01*
X-11430691Y32639000D01*
X-11197302Y32735673D01*
X-11018673Y32914301D01*
X-10922000Y33147690D01*
X-10922000Y34004250D01*
X-11080750Y34163000D01*
X-12446000Y34163000D01*
X-12446000Y34143000D01*
X-12700000Y34143000D01*
X-12700000Y34163000D01*
X-12720000Y34163000D01*
X-12720000Y34417000D01*
X-12700000Y34417000D01*
X-12700000Y35782250D01*
X-12446000Y35782250D01*
X-12446000Y34417000D01*
X-11080750Y34417000D01*
X-10922000Y34575750D01*
X-10922000Y35432310D01*
X-11018673Y35665699D01*
X-11197302Y35844327D01*
X-11430691Y35941000D01*
X-12287250Y35941000D01*
X-12446000Y35782250D01*
X-12700000Y35782250D01*
X-12858750Y35941000D01*
X-13715309Y35941000D01*
X-13948698Y35844327D01*
X-14127327Y35665699D01*
X-14134993Y35647192D01*
X-14176563Y35688834D01*
X-14228000Y35710193D01*
X-14228000Y36336420D01*
X-10809421Y39755000D01*
X-8935125Y39755000D01*
X-9018834Y39671437D01*
X-9270713Y39064845D01*
X-9271286Y38408037D01*
X-9020466Y37801005D01*
X-8556437Y37336166D01*
X-8093721Y37144029D01*
X-8194759Y36900702D01*
X-8195240Y36349715D01*
X-7984831Y35840485D01*
X-7595564Y35450539D01*
X-7086702Y35239241D01*
X-6535715Y35238760D01*
X-6026485Y35449169D01*
X-5809964Y35665313D01*
X-5595564Y35450539D01*
X-5086702Y35239241D01*
X-4535715Y35238760D01*
X-4026485Y35449169D01*
X-3809964Y35665313D01*
X-3595564Y35450539D01*
X-3086702Y35239241D01*
X-2535715Y35238760D01*
X-2031233Y35447207D01*
X-1919698Y35335673D01*
X-1686309Y35239000D01*
X-1095750Y35239000D01*
X-937000Y35397750D01*
X-937000Y36497000D01*
X-683000Y36497000D01*
X-683000Y35397750D01*
X-524250Y35239000D01*
X66309Y35239000D01*
X299698Y35335673D01*
X478327Y35514301D01*
X575000Y35747690D01*
X575000Y36338250D01*
X416250Y36497000D01*
X-683000Y36497000D01*
X-937000Y36497000D01*
X-957000Y36497000D01*
X-957000Y36751000D01*
X-937000Y36751000D01*
X-937000Y36771000D01*
X-683000Y36771000D01*
X-683000Y36751000D01*
X416250Y36751000D01*
X575000Y36909750D01*
X575000Y37084000D01*
X1142309Y37084000D01*
X1375698Y37180673D01*
X1554327Y37359301D01*
X1651000Y37592690D01*
X1651000Y38449250D01*
X1492250Y38608000D01*
X127000Y38608000D01*
X127000Y38588000D01*
X-127000Y38588000D01*
X-127000Y38608000D01*
X-147000Y38608000D01*
X-147000Y38862000D01*
X-127000Y38862000D01*
X-127000Y38882000D01*
X127000Y38882000D01*
X127000Y38862000D01*
X1492250Y38862000D01*
X1651000Y39020750D01*
X1651000Y39755000D01*
X3764875Y39755000D01*
X3681166Y39671437D01*
X3429287Y39064845D01*
X3428714Y38408037D01*
X3679534Y37801005D01*
X4143563Y37336166D01*
X4220843Y37304077D01*
X4231642Y37249789D01*
X4262367Y37095325D01*
X4445804Y36820790D01*
X4454210Y36808210D01*
X4505116Y36757304D01*
X4504760Y36349715D01*
X4715169Y35840485D01*
X5104436Y35450539D01*
X5613298Y35239241D01*
X6164285Y35238760D01*
X6673515Y35449169D01*
X6890036Y35665313D01*
X6999290Y35555869D01*
X5543071Y34099651D01*
X5501216Y34099687D01*
X5104311Y33935689D01*
X4800378Y33632286D01*
X4635687Y33235668D01*
X4635313Y32806216D01*
X4799311Y32409311D01*
X5102714Y32105378D01*
X5499332Y31940687D01*
X5928784Y31940313D01*
X6325689Y32104311D01*
X6629622Y32407714D01*
X6794313Y32804332D01*
X6794351Y32847771D01*
X8515787Y34569208D01*
X8515790Y34569210D01*
X8707633Y34856325D01*
X8775000Y35195000D01*
X8775000Y35550477D01*
X8890036Y35665313D01*
X9104436Y35450539D01*
X9613298Y35239241D01*
X10164285Y35238760D01*
X10668767Y35447207D01*
X10780302Y35335673D01*
X11013691Y35239000D01*
X11604250Y35239000D01*
X11763000Y35397750D01*
X11763000Y36497000D01*
X12017000Y36497000D01*
X12017000Y35397750D01*
X12175750Y35239000D01*
X12766309Y35239000D01*
X12999698Y35335673D01*
X13178327Y35514301D01*
X13275000Y35747690D01*
X13275000Y36338250D01*
X13116250Y36497000D01*
X12017000Y36497000D01*
X11763000Y36497000D01*
X11743000Y36497000D01*
X11743000Y36751000D01*
X11763000Y36751000D01*
X11763000Y36771000D01*
X12017000Y36771000D01*
X12017000Y36751000D01*
X13116250Y36751000D01*
X13275000Y36909750D01*
X13275000Y37084000D01*
X13842309Y37084000D01*
X14075698Y37180673D01*
X14254327Y37359301D01*
X14351000Y37592690D01*
X14351000Y38449250D01*
X14192250Y38608000D01*
X12827000Y38608000D01*
X12827000Y38588000D01*
X12573000Y38588000D01*
X12573000Y38608000D01*
X12553000Y38608000D01*
X12553000Y38862000D01*
X12573000Y38862000D01*
X12573000Y40227250D01*
X12827000Y40227250D01*
X12827000Y38862000D01*
X14192250Y38862000D01*
X14351000Y39020750D01*
X14351000Y39877310D01*
X14254327Y40110699D01*
X14075698Y40289327D01*
X13842309Y40386000D01*
X12985750Y40386000D01*
X12827000Y40227250D01*
X12573000Y40227250D01*
X12414250Y40386000D01*
X11557691Y40386000D01*
X11324302Y40289327D01*
X11145673Y40110699D01*
X11138007Y40092192D01*
X11096437Y40133834D01*
X11012436Y40168714D01*
X10977634Y40343674D01*
X10864494Y40513000D01*
X10785790Y40630790D01*
X10785787Y40630792D01*
X10150790Y41265790D01*
X10123221Y41284211D01*
X9863675Y41457633D01*
X9777115Y41474851D01*
X9525000Y41525001D01*
X9524995Y41525000D01*
X-11175995Y41525000D01*
X-11176000Y41525001D01*
X-11428115Y41474851D01*
X-11514675Y41457633D01*
X-11801790Y41265790D01*
X-11801792Y41265787D01*
X-15738790Y37328790D01*
X-15930633Y37041675D01*
X-15930633Y37041674D01*
X-15998001Y36703000D01*
X-15998000Y36702995D01*
X-15998000Y35710710D01*
X-16046995Y35690466D01*
X-16383179Y35354868D01*
X-16716563Y35688834D01*
X-17323155Y35940713D01*
X-17979963Y35941286D01*
X-18586995Y35690466D01*
X-18923179Y35354868D01*
X-19256563Y35688834D01*
X-19863155Y35940713D01*
X-20519963Y35941286D01*
X-21126995Y35690466D01*
X-21591834Y35226437D01*
X-21843713Y34619845D01*
X-21844286Y33963037D01*
X-21593466Y33356005D01*
X-21129437Y32891166D01*
X-20666721Y32699029D01*
X-20767759Y32455702D01*
X-20768240Y31904715D01*
X-20557831Y31395485D01*
X-20168564Y31005539D01*
X-20116971Y30984116D01*
X-20054535Y30890673D01*
X-20008790Y30822210D01*
X-19040792Y29854213D01*
X-19040790Y29854210D01*
X-18753675Y29662367D01*
X-18697484Y29651190D01*
X-18415000Y29594999D01*
X-18414995Y29595000D01*
X-17376580Y29595000D01*
X-17380374Y29591206D01*
X-17471963Y29591286D01*
X-18078995Y29340466D01*
X-18543834Y28876437D01*
X-18795713Y28269845D01*
X-18796286Y27613037D01*
X-18545466Y27006005D01*
X-18081437Y26541166D01*
X-17474845Y26289287D01*
X-16818037Y26288714D01*
X-16211005Y26539534D01*
X-15746166Y27003563D01*
X-15494287Y27610155D01*
X-15493714Y28266963D01*
X-15700645Y28767776D01*
X-15508421Y28960000D01*
X-14015125Y28960000D01*
X-14098834Y28876437D01*
X-14350713Y28269845D01*
X-14351286Y27613037D01*
X-14100466Y27006005D01*
X-13636437Y26541166D01*
X-13029845Y26289287D01*
X-12373037Y26288714D01*
X-11766005Y26539534D01*
X-11741390Y26564107D01*
X-8604502Y26564107D01*
X-7620000Y25579605D01*
X-6635498Y26564107D01*
X-6736120Y26832622D01*
X-7351642Y27061816D01*
X-8008019Y27038014D01*
X-8503880Y26832622D01*
X-8604502Y26564107D01*
X-11741390Y26564107D01*
X-11301166Y27003563D01*
X-11049287Y27610155D01*
X-11048714Y28266963D01*
X-11299534Y28873995D01*
X-11385389Y28960000D01*
X-6716580Y28960000D01*
X-6524072Y28767492D01*
X-6730713Y28269845D01*
X-6731286Y27613037D01*
X-6480466Y27006005D01*
X-6016437Y26541166D01*
X-5409845Y26289287D01*
X-4753037Y26288714D01*
X-4146005Y26539534D01*
X-3681166Y27003563D01*
X-3429287Y27610155D01*
X-3428714Y28266963D01*
X-3679534Y28873995D01*
X-3765389Y28960000D01*
X5983420Y28960000D01*
X7259617Y27683804D01*
X7239287Y27634845D01*
X7238714Y26978037D01*
X7489534Y26371005D01*
X7953563Y25906166D01*
X8560155Y25654287D01*
X9216963Y25653714D01*
X9268438Y25674983D01*
X10545000Y24398421D01*
X10545000Y22573110D01*
X10505922Y22667686D01*
X9970505Y23204039D01*
X9270590Y23494668D01*
X8512735Y23495330D01*
X7812314Y23205922D01*
X7275961Y22670505D01*
X7240786Y22585793D01*
X6340790Y23485790D01*
X6315737Y23502530D01*
X6053675Y23677633D01*
X5996992Y23688908D01*
X5715000Y23745001D01*
X5714995Y23745000D01*
X2354722Y23745000D01*
X3718350Y25654079D01*
X4136963Y25653714D01*
X4743995Y25904534D01*
X5208834Y26368563D01*
X5460713Y26975155D01*
X5461286Y27631963D01*
X5210466Y28238995D01*
X4746437Y28703834D01*
X4139845Y28955713D01*
X3483037Y28956286D01*
X2876005Y28705466D01*
X2411166Y28241437D01*
X2159287Y27634845D01*
X2158714Y26978037D01*
X2279710Y26685205D01*
X681320Y24447460D01*
X320612Y24447775D01*
X-263072Y24206602D01*
X-710032Y23760421D01*
X-952224Y23177159D01*
X-952775Y22545612D01*
X-711602Y21961928D01*
X-265421Y21514968D01*
X-250000Y21508565D01*
X-250000Y20178579D01*
X-811080Y19617500D01*
X-1442817Y19617500D01*
X-1524000Y19633940D01*
X-2286000Y19633940D01*
X-2521317Y19589662D01*
X-2737441Y19450590D01*
X-2882431Y19238390D01*
X-2933440Y18986500D01*
X-2933440Y18478500D01*
X-2890085Y18248091D01*
X-2933440Y18034000D01*
X-2933440Y17526000D01*
X-2890085Y17295591D01*
X-2933440Y17081500D01*
X-2933440Y16573500D01*
X-2889162Y16338183D01*
X-2790000Y16184081D01*
X-2790000Y15875005D01*
X-2790001Y15875000D01*
X-2736463Y15605853D01*
X-2722633Y15536325D01*
X-2555902Y15286793D01*
X-2530790Y15249210D01*
X9208Y12709213D01*
X9210Y12709210D01*
X247058Y12550286D01*
X296325Y12517367D01*
X635000Y12450000D01*
X2389290Y12450000D01*
X2409534Y12401005D01*
X2873563Y11936166D01*
X3480155Y11684287D01*
X4136963Y11683714D01*
X4743995Y11934534D01*
X5208834Y12398563D01*
X5259659Y12520964D01*
X6975739Y12520964D01*
X6995564Y11763368D01*
X7247343Y11155520D01*
X7542223Y11023828D01*
X8710395Y12192000D01*
X7542223Y13360172D01*
X7247343Y13228480D01*
X6975739Y12520964D01*
X5259659Y12520964D01*
X5460713Y13005155D01*
X5461286Y13661963D01*
X5210466Y14268995D01*
X4746437Y14733834D01*
X4139845Y14985713D01*
X3483037Y14986286D01*
X2876005Y14735466D01*
X2411166Y14271437D01*
X2389807Y14220000D01*
X1001579Y14220000D01*
X-997574Y16219154D01*
X-927569Y16321610D01*
X-876560Y16573500D01*
X-876560Y16895000D01*
X-5Y16895000D01*
X0Y16894999D01*
X286486Y16951986D01*
X338675Y16962367D01*
X625790Y17154210D01*
X2982508Y19510928D01*
X3480155Y19304287D01*
X4136963Y19303714D01*
X4743995Y19554534D01*
X5208834Y20018563D01*
X5460713Y20625155D01*
X5461286Y21281963D01*
X5210466Y21888995D01*
X5124611Y21975000D01*
X5348420Y21975000D01*
X6359208Y20964213D01*
X6359210Y20964210D01*
X6621266Y20789111D01*
X6646325Y20772367D01*
X6985000Y20704999D01*
X6985005Y20705000D01*
X7194462Y20705000D01*
X7274078Y20512314D01*
X7809495Y19975961D01*
X8509410Y19685332D01*
X9267265Y19684670D01*
X9967686Y19974078D01*
X10504039Y20509495D01*
X10545000Y20608140D01*
X10545000Y19685005D01*
X10544999Y19685000D01*
X10599000Y19413526D01*
X10612367Y19346325D01*
X10793066Y19075888D01*
X10804210Y19059210D01*
X12064739Y17798682D01*
X12064725Y17783112D01*
X12305898Y17199428D01*
X12719109Y16785496D01*
X12693568Y16760000D01*
X11436856Y16760000D01*
X11407286Y16789622D01*
X11010668Y16954313D01*
X10581216Y16954687D01*
X10184311Y16790689D01*
X9880378Y16487286D01*
X9715687Y16090668D01*
X9715313Y15661216D01*
X9879311Y15264311D01*
X10182714Y14960378D01*
X10273668Y14922611D01*
X10184311Y14885689D01*
X9880378Y14582286D01*
X9715687Y14185668D01*
X9715452Y13915667D01*
X9218964Y14106261D01*
X8461368Y14086436D01*
X7853520Y13834657D01*
X7721828Y13539777D01*
X8890000Y12371605D01*
X8904143Y12385747D01*
X9083748Y12206142D01*
X9069605Y12192000D01*
X10237777Y11023828D01*
X10532657Y11155520D01*
X10804261Y11863036D01*
X10784436Y12620632D01*
X10672609Y12890606D01*
X11008784Y12890313D01*
X11405689Y13054311D01*
X11436432Y13085000D01*
X12693144Y13085000D01*
X12722714Y13055378D01*
X13119332Y12890687D01*
X13548784Y12890313D01*
X13720000Y12961058D01*
X13720000Y11767440D01*
X12335000Y11767440D01*
X12099683Y11723162D01*
X11883559Y11584090D01*
X11738569Y11371890D01*
X11687560Y11120000D01*
X11687560Y9120000D01*
X11731838Y8884683D01*
X11870910Y8668559D01*
X12083110Y8523569D01*
X12335000Y8472560D01*
X14335000Y8472560D01*
X14570317Y8516838D01*
X14786441Y8655910D01*
X14931431Y8868110D01*
X14982440Y9120000D01*
X14982440Y9994260D01*
X15000784Y10003432D01*
X15112840Y10090399D01*
X15230790Y10169210D01*
X15248458Y10195652D01*
X15273577Y10215147D01*
X15343826Y10338381D01*
X15422633Y10456325D01*
X15428836Y10487511D01*
X15444585Y10515138D01*
X15462327Y10655877D01*
X15490000Y10795000D01*
X15490000Y11579763D01*
X15594311Y11327311D01*
X15897714Y11023378D01*
X16294332Y10858687D01*
X16723784Y10858313D01*
X17013524Y10978031D01*
X18704366Y10752586D01*
X18923778Y10424211D01*
X19319199Y10160000D01*
X18923778Y9895789D01*
X18615441Y9434329D01*
X18507167Y8890000D01*
X18615441Y8345671D01*
X18923778Y7884211D01*
X19318830Y7620246D01*
X19302738Y7615525D01*
X18868809Y7265986D01*
X18601673Y6776996D01*
X18584990Y6697060D01*
X18707148Y6477000D01*
X20193000Y6477000D01*
X20193000Y6497000D01*
X20447000Y6497000D01*
X20447000Y6477000D01*
X21932852Y6477000D01*
X22055010Y6697060D01*
X22038327Y6776996D01*
X21771191Y7265986D01*
X21337262Y7615525D01*
X21321170Y7620246D01*
X21716222Y7884211D01*
X22024559Y8345671D01*
X22132833Y8890000D01*
X22024559Y9434329D01*
X21716222Y9895789D01*
X21320801Y10160000D01*
X21716222Y10424211D01*
X22024559Y10885671D01*
X22132833Y11430000D01*
X22024559Y11974329D01*
X21716222Y12435789D01*
X21320801Y12700000D01*
X21716222Y12964211D01*
X22024559Y13425671D01*
X22132833Y13970000D01*
X22024559Y14514329D01*
X21716222Y14975789D01*
X21320801Y15240000D01*
X21716222Y15504211D01*
X22024559Y15965671D01*
X22132833Y16510000D01*
X22024559Y17054329D01*
X21716222Y17515789D01*
X21320801Y17780000D01*
X21716222Y18044211D01*
X22024559Y18505671D01*
X22114521Y18957942D01*
X22388913Y19232334D01*
X22385645Y18983468D01*
X22385645Y18983463D01*
X22382992Y18781333D01*
X22386797Y18760799D01*
X22383778Y18740134D01*
X22410746Y18214614D01*
X22418245Y18184951D01*
X22416701Y18154391D01*
X22479142Y17729358D01*
X22498397Y17675306D01*
X22505723Y17618398D01*
X22715985Y16993106D01*
X22742473Y16946921D01*
X22757880Y16895952D01*
X22842091Y16738029D01*
X22842093Y16738027D01*
X23108698Y16238053D01*
X23137165Y16203296D01*
X23156010Y16162519D01*
X23614122Y15533229D01*
X23645751Y15504047D01*
X23668844Y15467729D01*
X24206057Y14905580D01*
X24232912Y14886741D01*
X24239170Y14877376D01*
X24254951Y14866831D01*
X24276340Y14842168D01*
X24299307Y14824342D01*
X24864464Y14385691D01*
X24903027Y14366408D01*
X24935367Y14337890D01*
X25204755Y14181379D01*
X25232206Y14171977D01*
X25255598Y14154814D01*
X25751829Y13923219D01*
X25779377Y13916468D01*
X25803623Y13901757D01*
X26323984Y13712383D01*
X26357509Y13707224D01*
X26388190Y13692764D01*
X26854001Y13576756D01*
X26892621Y13574911D01*
X26929313Y13562725D01*
X27107155Y13540503D01*
X27130735Y13542205D01*
X27153656Y13536408D01*
X27573243Y13514842D01*
X27591795Y13517551D01*
X27610210Y13514011D01*
X28082849Y13517051D01*
X28099300Y13520434D01*
X28115936Y13518120D01*
X28567919Y13544439D01*
X28591751Y13550639D01*
X28616324Y13549109D01*
X28973942Y13597380D01*
X29003480Y13607515D01*
X29034692Y13608588D01*
X29110912Y13626493D01*
X29132287Y13636221D01*
X29155637Y13638725D01*
X29476105Y13738980D01*
X29493489Y13748467D01*
X29513014Y13751776D01*
X29895788Y13897710D01*
X29909808Y13906511D01*
X29925968Y13910106D01*
X30304021Y14076774D01*
X30322796Y14089940D01*
X30344774Y14096490D01*
X30681239Y14274222D01*
X30715221Y14301833D01*
X30755105Y14319905D01*
X31466334Y14829580D01*
X31507894Y14873954D01*
X31557558Y14909016D01*
X32163015Y15546390D01*
X32194374Y15596036D01*
X32235395Y15638060D01*
X32727749Y16394546D01*
X32748267Y16445823D01*
X32779521Y16491354D01*
X33151437Y17358364D01*
X33162621Y17411124D01*
X33185294Y17460058D01*
X33270480Y17811882D01*
X33272097Y17851095D01*
X33284156Y17888445D01*
X33344990Y18410720D01*
X33342754Y18438467D01*
X33349001Y18465596D01*
X33366437Y19047430D01*
X33362514Y19070787D01*
X33366129Y19094192D01*
X33340868Y19679596D01*
X33334540Y19705514D01*
X33336428Y19732128D01*
X33269173Y20265114D01*
X33256436Y20303309D01*
X33254265Y20343514D01*
X33145718Y20768091D01*
X33129680Y20801579D01*
X33123438Y20838177D01*
X33053526Y21020989D01*
X33040351Y21041928D01*
X33034343Y21065928D01*
X32759953Y21646304D01*
X32732301Y21683601D01*
X32714676Y21726553D01*
X32368446Y22248466D01*
X32338929Y22278180D01*
X32318146Y22314543D01*
X31859089Y22842635D01*
X31827514Y22867084D01*
X31803567Y22899047D01*
X31273861Y23374489D01*
X31229204Y23400962D01*
X31191806Y23436972D01*
X30443017Y23917068D01*
X30390193Y23937787D01*
X30343041Y23969356D01*
X29526169Y24308599D01*
X29490730Y24315682D01*
X29458641Y24332310D01*
X29385170Y24353575D01*
X29353905Y24356251D01*
X29324777Y24367921D01*
X28850450Y24456543D01*
X28816574Y24456149D01*
X28783981Y24465388D01*
X28221165Y24510445D01*
X28195982Y24507499D01*
X28171124Y24512485D01*
X27582702Y24513434D01*
X27557052Y24508375D01*
X27531084Y24511433D01*
X26979936Y24467733D01*
X26944048Y24457589D01*
X26906756Y24457654D01*
X26455767Y24368762D01*
X26406434Y24348428D01*
X26353795Y24339710D01*
X25653749Y24075833D01*
X25610670Y24049015D01*
X25562529Y24032967D01*
X24803487Y23600262D01*
X24763225Y23565342D01*
X24716135Y23540379D01*
X24616315Y23459031D01*
X24616314Y23459030D01*
X24507000Y23369944D01*
X24507000Y37860420D01*
X26401579Y39755000D01*
X33823748Y39755000D01*
X33747167Y39370000D01*
X33855441Y38825671D01*
X34163778Y38364211D01*
X34559199Y38100000D01*
X34163778Y37835789D01*
X33855441Y37374329D01*
X33747167Y36830000D01*
X33855441Y36285671D01*
X34163778Y35824211D01*
X34559199Y35560000D01*
X34163778Y35295789D01*
X33855441Y34834329D01*
X33747167Y34290000D01*
X33855441Y33745671D01*
X34163778Y33284211D01*
X34559199Y33020000D01*
X34163778Y32755789D01*
X33855441Y32294329D01*
X33747167Y31750000D01*
X33855441Y31205671D01*
X34163778Y30744211D01*
X34559199Y30480000D01*
X34163778Y30215789D01*
X33855441Y29754329D01*
X33747167Y29210000D01*
X33855441Y28665671D01*
X34163778Y28204211D01*
X34559199Y27940000D01*
X34163778Y27675789D01*
X33855441Y27214329D01*
X33747167Y26670000D01*
X33855441Y26125671D01*
X34163778Y25664211D01*
X34559199Y25400000D01*
X34163778Y25135789D01*
X33855441Y24674329D01*
X33747167Y24130000D01*
X33855441Y23585671D01*
X34163778Y23124211D01*
X34559199Y22860000D01*
X34163778Y22595789D01*
X33855441Y22134329D01*
X33747167Y21590000D01*
X33855441Y21045671D01*
X34163778Y20584211D01*
X34559199Y20320000D01*
X34163778Y20055789D01*
X33855441Y19594329D01*
X33747167Y19050000D01*
X33855441Y18505671D01*
X34163778Y18044211D01*
X34559199Y17780000D01*
X34163778Y17515789D01*
X33855441Y17054329D01*
X33747167Y16510000D01*
X33855441Y15965671D01*
X34163778Y15504211D01*
X34559199Y15240000D01*
X34163778Y14975789D01*
X33855441Y14514329D01*
X33747167Y13970000D01*
X33855441Y13425671D01*
X34163778Y12964211D01*
X34558830Y12700246D01*
X34542738Y12695525D01*
X34108809Y12345986D01*
X33841673Y11856996D01*
X33824990Y11777060D01*
X33947148Y11557000D01*
X35433000Y11557000D01*
X35433000Y11577000D01*
X35687000Y11577000D01*
X35687000Y11557000D01*
X35707000Y11557000D01*
X35707000Y11303000D01*
X35687000Y11303000D01*
X35687000Y11283000D01*
X35433000Y11283000D01*
X35433000Y11303000D01*
X33947148Y11303000D01*
X33824990Y11082940D01*
X33841673Y11003004D01*
X34108809Y10514014D01*
X34542738Y10164475D01*
X34558830Y10159754D01*
X34163778Y9895789D01*
X33855441Y9434329D01*
X33747167Y8890000D01*
X33855441Y8345671D01*
X34163778Y7884211D01*
X34559199Y7620000D01*
X34163778Y7355789D01*
X33855441Y6894329D01*
X33747167Y6350000D01*
X33855441Y5805671D01*
X34163778Y5344211D01*
X34335460Y5229497D01*
X34181683Y5200562D01*
X33965559Y5061490D01*
X33820569Y4849290D01*
X33769560Y4597400D01*
X33769560Y3022600D01*
X33813838Y2787283D01*
X33952910Y2571159D01*
X34165110Y2426169D01*
X34417000Y2375160D01*
X36580000Y2375160D01*
X36580000Y-634995D01*
X36579999Y-635000D01*
X36619913Y-835655D01*
X36647367Y-973675D01*
X36839210Y-1260790D01*
X37724980Y-2146560D01*
X36449000Y-2146560D01*
X36213683Y-2190838D01*
X35997559Y-2329910D01*
X35909287Y-2459100D01*
X35861437Y-2411166D01*
X35254845Y-2159287D01*
X34598037Y-2158714D01*
X33991005Y-2409534D01*
X33567435Y-2832366D01*
X33549107Y-2825498D01*
X32564605Y-3810000D01*
X33549107Y-4794502D01*
X33567917Y-4787453D01*
X33988563Y-5208834D01*
X34595155Y-5460713D01*
X35251963Y-5461286D01*
X35858995Y-5210466D01*
X35909421Y-5160128D01*
X35984910Y-5277441D01*
X36197110Y-5422431D01*
X36449000Y-5473440D01*
X38481000Y-5473440D01*
X38485000Y-5472687D01*
X38485000Y-12468421D01*
X31003216Y-4986636D01*
X31015766Y-4974107D01*
X31400498Y-4974107D01*
X31501120Y-5242622D01*
X32116642Y-5471816D01*
X32773019Y-5448014D01*
X33268880Y-5242622D01*
X33369502Y-4974107D01*
X32385000Y-3989605D01*
X31400498Y-4974107D01*
X31015766Y-4974107D01*
X31202565Y-4787634D01*
X31220893Y-4794502D01*
X32205395Y-3810000D01*
X31220893Y-2825498D01*
X31202083Y-2832547D01*
X31015755Y-2645893D01*
X31400498Y-2645893D01*
X32385000Y-3630395D01*
X33369502Y-2645893D01*
X33268880Y-2377378D01*
X32653358Y-2148184D01*
X31996981Y-2171986D01*
X31501120Y-2377378D01*
X31400498Y-2645893D01*
X31015755Y-2645893D01*
X30781437Y-2411166D01*
X30174845Y-2159287D01*
X29518037Y-2158714D01*
X28911005Y-2409534D01*
X28446166Y-2873563D01*
X28194287Y-3480155D01*
X28193714Y-4136963D01*
X28425888Y-4698869D01*
X28248037Y-4698714D01*
X27641005Y-4949534D01*
X27176166Y-5413563D01*
X26987346Y-5868291D01*
X26800466Y-5416005D01*
X26535000Y-5150076D01*
X26535000Y-5080000D01*
X26448603Y-4645654D01*
X26202566Y-4277434D01*
X25265000Y-3339868D01*
X25265000Y-1596963D01*
X25907714Y-1596963D01*
X26158534Y-2203995D01*
X26622563Y-2668834D01*
X27229155Y-2920713D01*
X27885963Y-2921286D01*
X28492995Y-2670466D01*
X28957834Y-2206437D01*
X29209713Y-1599845D01*
X29210286Y-943037D01*
X28959466Y-336005D01*
X28495437Y128834D01*
X27888845Y380713D01*
X27232037Y381286D01*
X26625005Y130466D01*
X26160166Y-333563D01*
X25908287Y-940155D01*
X25907714Y-1596963D01*
X25265000Y-1596963D01*
X25265000Y0D01*
X25228672Y182633D01*
X25178604Y434345D01*
X24932566Y802566D01*
X24297566Y1437566D01*
X24134795Y1546326D01*
X23929346Y1683603D01*
X23495000Y1770000D01*
X18885132Y1770000D01*
X17312566Y3342566D01*
X17232002Y3396397D01*
X16944346Y3588603D01*
X16510000Y3675000D01*
X16439811Y3675000D01*
X16305047Y3810000D01*
X18507167Y3810000D01*
X18615441Y3265671D01*
X18923778Y2804211D01*
X19385238Y2495874D01*
X19929567Y2387600D01*
X20710433Y2387600D01*
X21254762Y2495874D01*
X21716222Y2804211D01*
X22024559Y3265671D01*
X22132833Y3810000D01*
X22024559Y4354329D01*
X21716222Y4815789D01*
X21321170Y5079754D01*
X21337262Y5084475D01*
X21771191Y5434014D01*
X22038327Y5923004D01*
X22055010Y6002940D01*
X21932852Y6223000D01*
X20447000Y6223000D01*
X20447000Y6203000D01*
X20193000Y6203000D01*
X20193000Y6223000D01*
X18707148Y6223000D01*
X18584990Y6002940D01*
X18601673Y5923004D01*
X18868809Y5434014D01*
X19302738Y5084475D01*
X19318830Y5079754D01*
X18923778Y4815789D01*
X18615441Y4354329D01*
X18507167Y3810000D01*
X16305047Y3810000D01*
X16176437Y3938834D01*
X15569845Y4190713D01*
X14913037Y4191286D01*
X14580658Y4053950D01*
X14487534Y4147074D01*
X14754387Y4245736D01*
X14980908Y4855461D01*
X14956856Y5505460D01*
X14754387Y5994264D01*
X14487532Y6092927D01*
X13514605Y5120000D01*
X13528748Y5105857D01*
X13349143Y4926252D01*
X13335000Y4940395D01*
X12362073Y3967468D01*
X12460736Y3700613D01*
X12529678Y3675000D01*
X11900132Y3675000D01*
X10327566Y5247566D01*
X10122572Y5384539D01*
X11689092Y5384539D01*
X11713144Y4734540D01*
X11915613Y4245736D01*
X12182468Y4147073D01*
X13155395Y5120000D01*
X12182468Y6092927D01*
X11915613Y5994264D01*
X11689092Y5384539D01*
X10122572Y5384539D01*
X9959346Y5493603D01*
X9525000Y5580000D01*
X4345232Y5580000D01*
X4331120Y5601120D01*
X4129562Y5735796D01*
X4075421Y5790032D01*
X4004021Y5819680D01*
X3800687Y5955543D01*
X3562936Y6002835D01*
X3492159Y6032224D01*
X3414847Y6032291D01*
X3175000Y6080000D01*
X596296Y6080000D01*
X933995Y6219534D01*
X987085Y6272532D01*
X12362073Y6272532D01*
X13335000Y5299605D01*
X14307927Y6272532D01*
X14209264Y6539387D01*
X13599539Y6765908D01*
X12949540Y6741856D01*
X12460736Y6539387D01*
X12362073Y6272532D01*
X987085Y6272532D01*
X1398834Y6683563D01*
X1650713Y7290155D01*
X1651286Y7946963D01*
X1400466Y8553995D01*
X1314611Y8640000D01*
X1822997Y8640000D01*
X1828398Y8626928D01*
X2274579Y8179968D01*
X2857841Y7937776D01*
X3489388Y7937225D01*
X4073072Y8178398D01*
X4520032Y8624579D01*
X4762224Y9207841D01*
X4762775Y9839388D01*
X4521602Y10423072D01*
X4101186Y10844223D01*
X7721828Y10844223D01*
X7853520Y10549343D01*
X8561036Y10277739D01*
X9318632Y10297564D01*
X9926480Y10549343D01*
X10058172Y10844223D01*
X8890000Y12012395D01*
X7721828Y10844223D01*
X4101186Y10844223D01*
X4075421Y10870032D01*
X3492159Y11112224D01*
X2860612Y11112775D01*
X2276928Y10871602D01*
X1829968Y10425421D01*
X1823565Y10410000D01*
X-4713421Y10410000D01*
X-4830000Y10526580D01*
X-4830000Y12699995D01*
X-4829999Y12700000D01*
X-4897367Y13038675D01*
X-4928320Y13085000D01*
X-5089210Y13325790D01*
X-5089213Y13325792D01*
X-6359210Y14595790D01*
X-6369667Y14602777D01*
X-6646325Y14787633D01*
X-6738445Y14805957D01*
X-6985000Y14855001D01*
X-6985005Y14855000D01*
X-7194462Y14855000D01*
X-7274078Y15047686D01*
X-7809495Y15584039D01*
X-8509410Y15874668D01*
X-9267265Y15875330D01*
X-9967686Y15585922D01*
X-10504039Y15050505D01*
X-10794668Y14350590D01*
X-10795330Y13592735D01*
X-10505922Y12892314D01*
X-9970505Y12355961D01*
X-9775000Y12274781D01*
X-9775000Y10947400D01*
X-9915433Y10947400D01*
X-10459762Y10839126D01*
X-10921222Y10530789D01*
X-11229559Y10069329D01*
X-11337833Y9525000D01*
X-11229559Y8980671D01*
X-10921222Y8519211D01*
X-10525801Y8255000D01*
X-10921222Y7990789D01*
X-11229559Y7529329D01*
X-11337833Y6985000D01*
X-11229559Y6440671D01*
X-10921222Y5979211D01*
X-10525801Y5715000D01*
X-10921222Y5450789D01*
X-11229559Y4989329D01*
X-11337833Y4445000D01*
X-11229559Y3900671D01*
X-10921222Y3439211D01*
X-10715871Y3302000D01*
X-15975632Y3302000D01*
X-15693809Y3529014D01*
X-15426673Y4018004D01*
X-15409990Y4097940D01*
X-15532148Y4318000D01*
X-17018000Y4318000D01*
X-17018000Y4298000D01*
X-17272000Y4298000D01*
X-17272000Y4318000D01*
X-18757852Y4318000D01*
X-18880010Y4097940D01*
X-18863327Y4018004D01*
X-18596191Y3529014D01*
X-18314368Y3302000D01*
X-21295251Y3302000D01*
X-21286446Y3326841D01*
X-22225000Y4265395D01*
X-23163554Y3326841D01*
X-23154749Y3302000D01*
X-25209500Y3302000D01*
X-25209500Y4698199D01*
X-23823675Y4698199D01*
X-23798878Y4067139D01*
X-23605088Y3599288D01*
X-23343159Y3506446D01*
X-22404605Y4445000D01*
X-22045395Y4445000D01*
X-21106841Y3506446D01*
X-20844912Y3599288D01*
X-20626325Y4191801D01*
X-20651122Y4822861D01*
X-20844912Y5290712D01*
X-21106841Y5383554D01*
X-22045395Y4445000D01*
X-22404605Y4445000D01*
X-23343159Y5383554D01*
X-23605088Y5290712D01*
X-23823675Y4698199D01*
X-25209500Y4698199D01*
X-25209500Y5563159D01*
X-23163554Y5563159D01*
X-22225000Y4624605D01*
X-21286446Y5563159D01*
X-21379288Y5825088D01*
X-21971801Y6043675D01*
X-22602861Y6018878D01*
X-23070712Y5825088D01*
X-23163554Y5563159D01*
X-25209500Y5563159D01*
X-25209500Y9210612D01*
X-23812775Y9210612D01*
X-23571602Y8626928D01*
X-23125421Y8179968D01*
X-22542159Y7937776D01*
X-21910612Y7937225D01*
X-21326928Y8178398D01*
X-20879968Y8624579D01*
X-20873565Y8640000D01*
X-18917075Y8640000D01*
X-18891162Y8502283D01*
X-18752090Y8286159D01*
X-18539890Y8141169D01*
X-18368197Y8106400D01*
X-18541222Y7990789D01*
X-18849559Y7529329D01*
X-18957833Y6985000D01*
X-18849559Y6440671D01*
X-18541222Y5979211D01*
X-18146170Y5715246D01*
X-18162262Y5710525D01*
X-18596191Y5360986D01*
X-18863327Y4871996D01*
X-18880010Y4792060D01*
X-18757852Y4572000D01*
X-17272000Y4572000D01*
X-17272000Y4592000D01*
X-17018000Y4592000D01*
X-17018000Y4572000D01*
X-15532148Y4572000D01*
X-15409990Y4792060D01*
X-15426673Y4871996D01*
X-15693809Y5360986D01*
X-16127738Y5710525D01*
X-16143830Y5715246D01*
X-15748778Y5979211D01*
X-15440441Y6440671D01*
X-15332167Y6985000D01*
X-15440441Y7529329D01*
X-15748778Y7990789D01*
X-15920460Y8105503D01*
X-15766683Y8134438D01*
X-15550559Y8273510D01*
X-15405569Y8485710D01*
X-15354560Y8737600D01*
X-15354560Y10312400D01*
X-15398838Y10547717D01*
X-15537910Y10763841D01*
X-15750110Y10908831D01*
X-16002000Y10959840D01*
X-17403000Y10959840D01*
X-17403000Y12274462D01*
X-17210314Y12354078D01*
X-16673961Y12889495D01*
X-16383332Y13589410D01*
X-16382670Y14347265D01*
X-16672078Y15047686D01*
X-17207495Y15584039D01*
X-17907410Y15874668D01*
X-18665265Y15875330D01*
X-19365686Y15585922D01*
X-19902039Y15050505D01*
X-20192668Y14350590D01*
X-20193330Y13592735D01*
X-19903922Y12892314D01*
X-19368505Y12355961D01*
X-19173000Y12274781D01*
X-19173000Y10410000D01*
X-20872997Y10410000D01*
X-20878398Y10423072D01*
X-21324579Y10870032D01*
X-21907841Y11112224D01*
X-22539388Y11112775D01*
X-23123072Y10871602D01*
X-23570032Y10425421D01*
X-23812224Y9842159D01*
X-23812775Y9210612D01*
X-25209500Y9210612D01*
X-25209500Y17250893D01*
X-21304502Y17250893D01*
X-21203880Y16982378D01*
X-20588358Y16753184D01*
X-19931981Y16776986D01*
X-19436120Y16982378D01*
X-19335498Y17250893D01*
X-20320000Y18235395D01*
X-21304502Y17250893D01*
X-25209500Y17250893D01*
X-25209500Y18683358D01*
X-21981816Y18683358D01*
X-21958014Y18026981D01*
X-21752622Y17531120D01*
X-21484107Y17430498D01*
X-20499605Y18415000D01*
X-20140395Y18415000D01*
X-19155893Y17430498D01*
X-19095747Y17453037D01*
X-9271286Y17453037D01*
X-9020466Y16846005D01*
X-8556437Y16381166D01*
X-7949845Y16129287D01*
X-7819731Y16129173D01*
X-7641175Y16009867D01*
X-7302500Y15942500D01*
X-4907183Y15942500D01*
X-4826000Y15926060D01*
X-4064000Y15926060D01*
X-3828683Y15970338D01*
X-3612559Y16109410D01*
X-3467569Y16321610D01*
X-3416560Y16573500D01*
X-3416560Y17081500D01*
X-3460838Y17316817D01*
X-3462353Y17319171D01*
X-3429000Y17399691D01*
X-3429000Y17494250D01*
X-3587750Y17653000D01*
X-3775622Y17653000D01*
X-3812110Y17677931D01*
X-4064000Y17728940D01*
X-4826000Y17728940D01*
X-4913371Y17712500D01*
X-5969058Y17712500D01*
X-5968714Y18106963D01*
X-6219534Y18713995D01*
X-6683563Y19178834D01*
X-7290155Y19430713D01*
X-7946963Y19431286D01*
X-8553995Y19180466D01*
X-9018834Y18716437D01*
X-9270713Y18109845D01*
X-9271286Y17453037D01*
X-19095747Y17453037D01*
X-18887378Y17531120D01*
X-18658184Y18146642D01*
X-18681986Y18803019D01*
X-18832945Y19167468D01*
X-16807927Y19167468D01*
X-16709264Y18900613D01*
X-16099539Y18674092D01*
X-15449540Y18698144D01*
X-14960736Y18900613D01*
X-14862073Y19167468D01*
X-15835000Y20140395D01*
X-16807927Y19167468D01*
X-18832945Y19167468D01*
X-18887378Y19298880D01*
X-19155893Y19399502D01*
X-20140395Y18415000D01*
X-20499605Y18415000D01*
X-21484107Y19399502D01*
X-21752622Y19298880D01*
X-21981816Y18683358D01*
X-25209500Y18683358D01*
X-25209500Y19579107D01*
X-21304502Y19579107D01*
X-20320000Y18594605D01*
X-19335498Y19579107D01*
X-19436120Y19847622D01*
X-20051642Y20076816D01*
X-20708019Y20053014D01*
X-21203880Y19847622D01*
X-21304502Y19579107D01*
X-25209500Y19579107D01*
X-25209500Y20584539D01*
X-17480908Y20584539D01*
X-17456856Y19934540D01*
X-17254387Y19445736D01*
X-16987532Y19347073D01*
X-16014605Y20320000D01*
X-15655395Y20320000D01*
X-14682468Y19347073D01*
X-14415613Y19445736D01*
X-14189092Y20055461D01*
X-14213144Y20705460D01*
X-14415613Y21194264D01*
X-14682468Y21292927D01*
X-15655395Y20320000D01*
X-16014605Y20320000D01*
X-16987532Y21292927D01*
X-17254387Y21194264D01*
X-17480908Y20584539D01*
X-25209500Y20584539D01*
X-25209500Y21523483D01*
X-19841912Y21523483D01*
X-19773923Y21282540D01*
X-19254829Y21097799D01*
X-18704552Y21125770D01*
X-18326077Y21282540D01*
X-18272466Y21472532D01*
X-16807927Y21472532D01*
X-15835000Y20499605D01*
X-15014605Y21320000D01*
X-12482440Y21320000D01*
X-12482440Y19320000D01*
X-12438162Y19084683D01*
X-12299090Y18868559D01*
X-12086890Y18723569D01*
X-11835000Y18672560D01*
X-9835000Y18672560D01*
X-9599683Y18716838D01*
X-9383559Y18855910D01*
X-9238569Y19068110D01*
X-9187560Y19320000D01*
X-9187560Y21320000D01*
X-9231838Y21555317D01*
X-9370910Y21771441D01*
X-9583110Y21916431D01*
X-9835000Y21967440D01*
X-11835000Y21967440D01*
X-12070317Y21923162D01*
X-12286441Y21784090D01*
X-12431431Y21571890D01*
X-12482440Y21320000D01*
X-15014605Y21320000D01*
X-14862073Y21472532D01*
X-14960736Y21739387D01*
X-15570461Y21965908D01*
X-16220460Y21941856D01*
X-16709264Y21739387D01*
X-16807927Y21472532D01*
X-18272466Y21472532D01*
X-18258088Y21523483D01*
X-19050000Y22315395D01*
X-19841912Y21523483D01*
X-25209500Y21523483D01*
X-25209500Y25245000D01*
X-20447440Y25245000D01*
X-20447440Y23745000D01*
X-20403162Y23509683D01*
X-20264090Y23293559D01*
X-20186307Y23240412D01*
X-20262460Y23218923D01*
X-20447201Y22699829D01*
X-20419230Y22149552D01*
X-20262460Y21771077D01*
X-20021517Y21703088D01*
X-19229605Y22495000D01*
X-19243747Y22509142D01*
X-19064142Y22688747D01*
X-19050000Y22674605D01*
X-19035857Y22688747D01*
X-18856252Y22509142D01*
X-18870395Y22495000D01*
X-18078483Y21703088D01*
X-17837540Y21771077D01*
X-17652799Y22290171D01*
X-17665783Y22545612D01*
X-6032775Y22545612D01*
X-5791602Y21961928D01*
X-5345421Y21514968D01*
X-5330000Y21508565D01*
X-5330000Y19373667D01*
X-5422431Y19238390D01*
X-5473440Y18986500D01*
X-5473440Y18478500D01*
X-5429162Y18243183D01*
X-5427647Y18240829D01*
X-5461000Y18160309D01*
X-5461000Y18065750D01*
X-5302250Y17907000D01*
X-5114378Y17907000D01*
X-5077890Y17882069D01*
X-4826000Y17831060D01*
X-4064000Y17831060D01*
X-3828683Y17875338D01*
X-3779479Y17907000D01*
X-3587750Y17907000D01*
X-3429000Y18065750D01*
X-3429000Y18160309D01*
X-3463922Y18244619D01*
X-3416560Y18478500D01*
X-3416560Y18986500D01*
X-3460838Y19221817D01*
X-3560000Y19375919D01*
X-3560000Y21507997D01*
X-3546928Y21513398D01*
X-3099968Y21959579D01*
X-2857776Y22542841D01*
X-2857225Y23174388D01*
X-3098398Y23758072D01*
X-3544579Y24205032D01*
X-4127841Y24447224D01*
X-4759388Y24447775D01*
X-5343072Y24206602D01*
X-5790032Y23760421D01*
X-6032224Y23177159D01*
X-6032775Y22545612D01*
X-17665783Y22545612D01*
X-17680770Y22840448D01*
X-17837540Y23218923D01*
X-17912165Y23239981D01*
X-17848559Y23280910D01*
X-17703569Y23493110D01*
X-17652560Y23745000D01*
X-17652560Y24235893D01*
X-8604502Y24235893D01*
X-8503880Y23967378D01*
X-7888358Y23738184D01*
X-7231981Y23761986D01*
X-6736120Y23967378D01*
X-6635498Y24235893D01*
X-7620000Y25220395D01*
X-8604502Y24235893D01*
X-17652560Y24235893D01*
X-17652560Y25245000D01*
X-17696838Y25480317D01*
X-17817839Y25668358D01*
X-9281816Y25668358D01*
X-9258014Y25011981D01*
X-9052622Y24516120D01*
X-8784107Y24415498D01*
X-7799605Y25400000D01*
X-7440395Y25400000D01*
X-6455893Y24415498D01*
X-6187378Y24516120D01*
X-5958184Y25131642D01*
X-5981986Y25788019D01*
X-6187378Y26283880D01*
X-6455893Y26384502D01*
X-7440395Y25400000D01*
X-7799605Y25400000D01*
X-8784107Y26384502D01*
X-9052622Y26283880D01*
X-9281816Y25668358D01*
X-17817839Y25668358D01*
X-17835910Y25696441D01*
X-18048110Y25841431D01*
X-18300000Y25892440D01*
X-19800000Y25892440D01*
X-20035317Y25848162D01*
X-20251441Y25709090D01*
X-20396431Y25496890D01*
X-20447440Y25245000D01*
X-25209500Y25245000D01*
X-25209500Y41245185D01*
X-24997370Y41245185D01*
X-24673020Y40460200D01*
X-24072959Y39859091D01*
X-23288541Y39533372D01*
X-22439185Y39532630D01*
X-21654200Y39856980D01*
X-21053091Y40457041D01*
X-20727372Y41241459D01*
X-20726630Y42090815D01*
X-21050980Y42875800D01*
X-21651041Y43476909D01*
X-22435459Y43802628D01*
X-23284815Y43803370D01*
X-24069800Y43479020D01*
X-24670909Y42878959D01*
X-24996628Y42094541D01*
X-24997370Y41245185D01*
X-25209500Y41245185D01*
X-25209500Y43098697D01*
X-25112387Y43586917D01*
X-24881887Y43931885D01*
X-24536916Y44162388D01*
X-24048698Y44259500D01*
X18242921Y44259500D01*
X16519210Y42535790D01*
G36*
X10627434Y1737434D02*
X10995654Y1491397D01*
X11430000Y1405000D01*
X14040189Y1405000D01*
X14303563Y1141166D01*
X14758291Y952346D01*
X14306005Y765466D01*
X13841166Y301437D01*
X13589287Y-305155D01*
X13588714Y-961963D01*
X13839534Y-1568995D01*
X14303563Y-2033834D01*
X14910155Y-2285713D01*
X15566963Y-2286286D01*
X16173995Y-2035466D01*
X16439924Y-1770000D01*
X17944868Y-1770000D01*
X18247434Y-2072566D01*
X18615655Y-2318604D01*
X19050000Y-2405000D01*
X20706252Y-2405000D01*
X20612569Y-2542110D01*
X20585658Y-2675000D01*
X19685000Y-2675000D01*
X19250655Y-2761396D01*
X18882434Y-3007434D01*
X18641842Y-3248026D01*
X18225505Y-2830961D01*
X17525590Y-2540332D01*
X16767735Y-2539670D01*
X16067314Y-2829078D01*
X15530961Y-3364495D01*
X15240332Y-4064410D01*
X15239670Y-4822265D01*
X15529078Y-5522686D01*
X15594278Y-5588000D01*
X9151141Y-5588000D01*
X9389657Y-5481480D01*
X9661261Y-4773964D01*
X9641436Y-4016368D01*
X9389657Y-3408520D01*
X9094777Y-3276828D01*
X7926605Y-4445000D01*
X7940748Y-4459143D01*
X7761143Y-4638748D01*
X7747000Y-4624605D01*
X7732858Y-4638748D01*
X7553253Y-4459143D01*
X7567395Y-4445000D01*
X7553253Y-4430858D01*
X7732858Y-4251253D01*
X7747000Y-4265395D01*
X8915172Y-3097223D01*
X8783480Y-2802343D01*
X8075964Y-2530739D01*
X7318368Y-2550564D01*
X6710520Y-2802343D01*
X6578829Y-3097221D01*
X6477000Y-2995392D01*
X6477000Y-1869090D01*
X6521259Y-1913349D01*
X6635499Y-1799109D01*
X6736120Y-2067622D01*
X7351642Y-2296816D01*
X8008019Y-2273014D01*
X8503880Y-2067622D01*
X8604502Y-1799107D01*
X7620000Y-814605D01*
X7605858Y-828748D01*
X7426253Y-649143D01*
X7440395Y-635000D01*
X7799605Y-635000D01*
X8784107Y-1619502D01*
X9052622Y-1518880D01*
X9281816Y-903358D01*
X9258014Y-246981D01*
X9052622Y248880D01*
X8784107Y349502D01*
X7799605Y-635000D01*
X7440395Y-635000D01*
X7426253Y-620858D01*
X7605858Y-441253D01*
X7620000Y-455395D01*
X8604502Y529107D01*
X8503880Y797622D01*
X8094987Y949876D01*
X8553995Y1139534D01*
X9018834Y1603563D01*
X9270713Y2210155D01*
X9271286Y2866963D01*
X9111716Y3253152D01*
X10627434Y1737434D01*
X10627434Y1737434D01*
G37*
X10627434Y1737434D02*
X10995654Y1491397D01*
X11430000Y1405000D01*
X14040189Y1405000D01*
X14303563Y1141166D01*
X14758291Y952346D01*
X14306005Y765466D01*
X13841166Y301437D01*
X13589287Y-305155D01*
X13588714Y-961963D01*
X13839534Y-1568995D01*
X14303563Y-2033834D01*
X14910155Y-2285713D01*
X15566963Y-2286286D01*
X16173995Y-2035466D01*
X16439924Y-1770000D01*
X17944868Y-1770000D01*
X18247434Y-2072566D01*
X18615655Y-2318604D01*
X19050000Y-2405000D01*
X20706252Y-2405000D01*
X20612569Y-2542110D01*
X20585658Y-2675000D01*
X19685000Y-2675000D01*
X19250655Y-2761396D01*
X18882434Y-3007434D01*
X18641842Y-3248026D01*
X18225505Y-2830961D01*
X17525590Y-2540332D01*
X16767735Y-2539670D01*
X16067314Y-2829078D01*
X15530961Y-3364495D01*
X15240332Y-4064410D01*
X15239670Y-4822265D01*
X15529078Y-5522686D01*
X15594278Y-5588000D01*
X9151141Y-5588000D01*
X9389657Y-5481480D01*
X9661261Y-4773964D01*
X9641436Y-4016368D01*
X9389657Y-3408520D01*
X9094777Y-3276828D01*
X7926605Y-4445000D01*
X7940748Y-4459143D01*
X7761143Y-4638748D01*
X7747000Y-4624605D01*
X7732858Y-4638748D01*
X7553253Y-4459143D01*
X7567395Y-4445000D01*
X7553253Y-4430858D01*
X7732858Y-4251253D01*
X7747000Y-4265395D01*
X8915172Y-3097223D01*
X8783480Y-2802343D01*
X8075964Y-2530739D01*
X7318368Y-2550564D01*
X6710520Y-2802343D01*
X6578829Y-3097221D01*
X6477000Y-2995392D01*
X6477000Y-1869090D01*
X6521259Y-1913349D01*
X6635499Y-1799109D01*
X6736120Y-2067622D01*
X7351642Y-2296816D01*
X8008019Y-2273014D01*
X8503880Y-2067622D01*
X8604502Y-1799107D01*
X7620000Y-814605D01*
X7605858Y-828748D01*
X7426253Y-649143D01*
X7440395Y-635000D01*
X7799605Y-635000D01*
X8784107Y-1619502D01*
X9052622Y-1518880D01*
X9281816Y-903358D01*
X9258014Y-246981D01*
X9052622Y248880D01*
X8784107Y349502D01*
X7799605Y-635000D01*
X7440395Y-635000D01*
X7426253Y-620858D01*
X7605858Y-441253D01*
X7620000Y-455395D01*
X8604502Y529107D01*
X8503880Y797622D01*
X8094987Y949876D01*
X8553995Y1139534D01*
X9018834Y1603563D01*
X9270713Y2210155D01*
X9271286Y2866963D01*
X9111716Y3253152D01*
X10627434Y1737434D01*
G36*
X13213092Y29942539D02*
X13237144Y29292540D01*
X13439613Y28803736D01*
X13706468Y28705073D01*
X14679395Y29678000D01*
X14665253Y29692142D01*
X14844858Y29871747D01*
X14859000Y29857605D01*
X14873143Y29871747D01*
X15052748Y29692142D01*
X15038605Y29678000D01*
X16011532Y28705073D01*
X16278387Y28803736D01*
X16456164Y29282257D01*
X16895000Y28843421D01*
X16895000Y27940005D01*
X16894999Y27940000D01*
X16947555Y27675789D01*
X16962367Y27601325D01*
X17154210Y27314210D01*
X18424208Y26044213D01*
X18424210Y26044210D01*
X18651351Y25892440D01*
X18711325Y25852367D01*
X18811351Y25832470D01*
X18923778Y25664211D01*
X19319199Y25400000D01*
X18923778Y25135789D01*
X18615441Y24674329D01*
X18507167Y24130000D01*
X18615441Y23585671D01*
X18923778Y23124211D01*
X19319199Y22860000D01*
X18923778Y22595789D01*
X18615441Y22134329D01*
X18507167Y21590000D01*
X18615441Y21045671D01*
X18923778Y20584211D01*
X19319199Y20320000D01*
X18923778Y20055789D01*
X18615441Y19594329D01*
X18507167Y19050000D01*
X18615441Y18505671D01*
X18923778Y18044211D01*
X19319199Y17780000D01*
X18923778Y17515789D01*
X18843070Y17395000D01*
X17145005Y17395000D01*
X17145000Y17395001D01*
X16806326Y17327634D01*
X16723996Y17272623D01*
X16519210Y17135790D01*
X16519208Y17135787D01*
X16338071Y16954651D01*
X16296216Y16954687D01*
X15899311Y16790689D01*
X15595378Y16487286D01*
X15490000Y16233509D01*
X15490000Y17145000D01*
X15422633Y17483675D01*
X15233854Y17766204D01*
X15239724Y17780341D01*
X15240275Y18411888D01*
X14999102Y18995572D01*
X14627565Y19367757D01*
X14667553Y19407675D01*
X14701673Y19325301D01*
X14880302Y19146673D01*
X15113691Y19050000D01*
X15906750Y19050000D01*
X16065500Y19208750D01*
X16065500Y20510500D01*
X16319500Y20510500D01*
X16319500Y19208750D01*
X16478250Y19050000D01*
X17271309Y19050000D01*
X17504698Y19146673D01*
X17683327Y19325301D01*
X17780000Y19558690D01*
X17780000Y20351750D01*
X17621250Y20510500D01*
X16319500Y20510500D01*
X16065500Y20510500D01*
X16045500Y20510500D01*
X16045500Y20764500D01*
X16065500Y20764500D01*
X16065500Y22066250D01*
X16319500Y22066250D01*
X16319500Y20764500D01*
X17621250Y20764500D01*
X17780000Y20923250D01*
X17780000Y21716310D01*
X17683327Y21949699D01*
X17504698Y22128327D01*
X17271309Y22225000D01*
X16478250Y22225000D01*
X16319500Y22066250D01*
X16065500Y22066250D01*
X15906750Y22225000D01*
X15113691Y22225000D01*
X14880302Y22128327D01*
X14701673Y21949699D01*
X14667662Y21867590D01*
X14552921Y21982532D01*
X14537500Y21988935D01*
X14537500Y23030560D01*
X15859000Y23030560D01*
X16094317Y23074838D01*
X16310441Y23213910D01*
X16455431Y23426110D01*
X16506440Y23678000D01*
X16506440Y25678000D01*
X16462162Y25913317D01*
X16323090Y26129441D01*
X16110890Y26274431D01*
X15859000Y26325440D01*
X13859000Y26325440D01*
X13623683Y26281162D01*
X13407559Y26142090D01*
X13262569Y25929890D01*
X13211560Y25678000D01*
X13211560Y24282140D01*
X13026710Y24097290D01*
X12834867Y23810175D01*
X12827825Y23774774D01*
X12767499Y23471500D01*
X12767500Y23471495D01*
X12767500Y21989503D01*
X12754428Y21984102D01*
X12315000Y21545440D01*
X12315000Y24765000D01*
X12247633Y25103675D01*
X12055790Y25390790D01*
X12055787Y25390792D01*
X10520383Y26926196D01*
X10540713Y26975155D01*
X10541286Y27631963D01*
X10290466Y28238995D01*
X10004493Y28525468D01*
X13886073Y28525468D01*
X13984736Y28258613D01*
X14594461Y28032092D01*
X15244460Y28056144D01*
X15733264Y28258613D01*
X15831927Y28525468D01*
X14859000Y29498395D01*
X13886073Y28525468D01*
X10004493Y28525468D01*
X9826437Y28703834D01*
X9219845Y28955713D01*
X8563037Y28956286D01*
X8511562Y28935017D01*
X7851580Y29595000D01*
X12064995Y29595000D01*
X12065000Y29594999D01*
X12347484Y29651190D01*
X12403675Y29662367D01*
X12690790Y29854210D01*
X13066579Y30230000D01*
X13319888Y30230000D01*
X13213092Y29942539D01*
X13213092Y29942539D01*
G37*
X13213092Y29942539D02*
X13237144Y29292540D01*
X13439613Y28803736D01*
X13706468Y28705073D01*
X14679395Y29678000D01*
X14665253Y29692142D01*
X14844858Y29871747D01*
X14859000Y29857605D01*
X14873143Y29871747D01*
X15052748Y29692142D01*
X15038605Y29678000D01*
X16011532Y28705073D01*
X16278387Y28803736D01*
X16456164Y29282257D01*
X16895000Y28843421D01*
X16895000Y27940005D01*
X16894999Y27940000D01*
X16947555Y27675789D01*
X16962367Y27601325D01*
X17154210Y27314210D01*
X18424208Y26044213D01*
X18424210Y26044210D01*
X18651351Y25892440D01*
X18711325Y25852367D01*
X18811351Y25832470D01*
X18923778Y25664211D01*
X19319199Y25400000D01*
X18923778Y25135789D01*
X18615441Y24674329D01*
X18507167Y24130000D01*
X18615441Y23585671D01*
X18923778Y23124211D01*
X19319199Y22860000D01*
X18923778Y22595789D01*
X18615441Y22134329D01*
X18507167Y21590000D01*
X18615441Y21045671D01*
X18923778Y20584211D01*
X19319199Y20320000D01*
X18923778Y20055789D01*
X18615441Y19594329D01*
X18507167Y19050000D01*
X18615441Y18505671D01*
X18923778Y18044211D01*
X19319199Y17780000D01*
X18923778Y17515789D01*
X18843070Y17395000D01*
X17145005Y17395000D01*
X17145000Y17395001D01*
X16806326Y17327634D01*
X16723996Y17272623D01*
X16519210Y17135790D01*
X16519208Y17135787D01*
X16338071Y16954651D01*
X16296216Y16954687D01*
X15899311Y16790689D01*
X15595378Y16487286D01*
X15490000Y16233509D01*
X15490000Y17145000D01*
X15422633Y17483675D01*
X15233854Y17766204D01*
X15239724Y17780341D01*
X15240275Y18411888D01*
X14999102Y18995572D01*
X14627565Y19367757D01*
X14667553Y19407675D01*
X14701673Y19325301D01*
X14880302Y19146673D01*
X15113691Y19050000D01*
X15906750Y19050000D01*
X16065500Y19208750D01*
X16065500Y20510500D01*
X16319500Y20510500D01*
X16319500Y19208750D01*
X16478250Y19050000D01*
X17271309Y19050000D01*
X17504698Y19146673D01*
X17683327Y19325301D01*
X17780000Y19558690D01*
X17780000Y20351750D01*
X17621250Y20510500D01*
X16319500Y20510500D01*
X16065500Y20510500D01*
X16045500Y20510500D01*
X16045500Y20764500D01*
X16065500Y20764500D01*
X16065500Y22066250D01*
X16319500Y22066250D01*
X16319500Y20764500D01*
X17621250Y20764500D01*
X17780000Y20923250D01*
X17780000Y21716310D01*
X17683327Y21949699D01*
X17504698Y22128327D01*
X17271309Y22225000D01*
X16478250Y22225000D01*
X16319500Y22066250D01*
X16065500Y22066250D01*
X15906750Y22225000D01*
X15113691Y22225000D01*
X14880302Y22128327D01*
X14701673Y21949699D01*
X14667662Y21867590D01*
X14552921Y21982532D01*
X14537500Y21988935D01*
X14537500Y23030560D01*
X15859000Y23030560D01*
X16094317Y23074838D01*
X16310441Y23213910D01*
X16455431Y23426110D01*
X16506440Y23678000D01*
X16506440Y25678000D01*
X16462162Y25913317D01*
X16323090Y26129441D01*
X16110890Y26274431D01*
X15859000Y26325440D01*
X13859000Y26325440D01*
X13623683Y26281162D01*
X13407559Y26142090D01*
X13262569Y25929890D01*
X13211560Y25678000D01*
X13211560Y24282140D01*
X13026710Y24097290D01*
X12834867Y23810175D01*
X12827825Y23774774D01*
X12767499Y23471500D01*
X12767500Y23471495D01*
X12767500Y21989503D01*
X12754428Y21984102D01*
X12315000Y21545440D01*
X12315000Y24765000D01*
X12247633Y25103675D01*
X12055790Y25390790D01*
X12055787Y25390792D01*
X10520383Y26926196D01*
X10540713Y26975155D01*
X10541286Y27631963D01*
X10290466Y28238995D01*
X10004493Y28525468D01*
X13886073Y28525468D01*
X13984736Y28258613D01*
X14594461Y28032092D01*
X15244460Y28056144D01*
X15733264Y28258613D01*
X15831927Y28525468D01*
X14859000Y29498395D01*
X13886073Y28525468D01*
X10004493Y28525468D01*
X9826437Y28703834D01*
X9219845Y28955713D01*
X8563037Y28956286D01*
X8511562Y28935017D01*
X7851580Y29595000D01*
X12064995Y29595000D01*
X12065000Y29594999D01*
X12347484Y29651190D01*
X12403675Y29662367D01*
X12690790Y29854210D01*
X13066579Y30230000D01*
X13319888Y30230000D01*
X13213092Y29942539D01*
G36*
X61295750Y41506951D02*
X61184868Y41229737D01*
X62230000Y40184605D01*
X63275132Y41229737D01*
X63164250Y41506951D01*
X62757771Y41660000D01*
X63133420Y41660000D01*
X63905000Y40888421D01*
X63905000Y40521472D01*
X63731951Y40939250D01*
X63454737Y41050132D01*
X62409605Y40005000D01*
X63454737Y38959868D01*
X63731951Y39070750D01*
X63905000Y39530346D01*
X63905000Y35953440D01*
X63774000Y35953440D01*
X63538683Y35909162D01*
X63322559Y35770090D01*
X63189221Y35574943D01*
X63133880Y35722622D01*
X62518358Y35951816D01*
X61861981Y35928014D01*
X61366120Y35722622D01*
X61265498Y35454107D01*
X62250000Y34469605D01*
X62264143Y34483747D01*
X62443748Y34304142D01*
X62429605Y34290000D01*
X62443748Y34275857D01*
X62264143Y34096252D01*
X62250000Y34110395D01*
X61265498Y33125893D01*
X61366120Y32857378D01*
X61981642Y32628184D01*
X62638019Y32651986D01*
X63133880Y32857378D01*
X63190419Y33008254D01*
X63309910Y32822559D01*
X63522110Y32677569D01*
X63774000Y32626560D01*
X65790000Y32626560D01*
X65790000Y30211579D01*
X63133420Y27555000D01*
X58166005Y27555000D01*
X58166000Y27555001D01*
X57883516Y27498810D01*
X57827325Y27487633D01*
X57540210Y27295790D01*
X57540208Y27295787D01*
X56546404Y26301984D01*
X56216005Y26165466D01*
X55879821Y25829868D01*
X55546437Y26163834D01*
X54939845Y26415713D01*
X54283037Y26416286D01*
X53676005Y26165466D01*
X53252435Y25742634D01*
X53234107Y25749502D01*
X52249605Y24765000D01*
X52263748Y24750857D01*
X52084143Y24571252D01*
X52070000Y24585395D01*
X52055858Y24571252D01*
X51876253Y24750857D01*
X51890395Y24765000D01*
X50905893Y25749502D01*
X50637378Y25648880D01*
X50408184Y25033358D01*
X50431986Y24376981D01*
X50637378Y23881120D01*
X50905891Y23780499D01*
X50791651Y23666259D01*
X50839910Y23618000D01*
X50150579Y23618000D01*
X47839473Y25929107D01*
X51085498Y25929107D01*
X52070000Y24944605D01*
X53054502Y25929107D01*
X52953880Y26197622D01*
X52338358Y26426816D01*
X51681981Y26403014D01*
X51186120Y26197622D01*
X51085498Y25929107D01*
X47839473Y25929107D01*
X42795000Y30973580D01*
X42795000Y37091000D01*
X42964332Y37020687D01*
X43393784Y37020313D01*
X43790689Y37184311D01*
X43821432Y37215000D01*
X44083420Y37215000D01*
X44200000Y37098421D01*
X44200000Y33020005D01*
X44199999Y33020000D01*
X44252555Y32755789D01*
X44267367Y32681325D01*
X44303960Y32626560D01*
X44459210Y32394210D01*
X45094208Y31759213D01*
X45094210Y31759210D01*
X45121778Y31740790D01*
X45381326Y31567366D01*
X45720000Y31499999D01*
X45720005Y31500000D01*
X51434995Y31500000D01*
X51435000Y31499999D01*
X51717484Y31556190D01*
X51773675Y31567367D01*
X52060790Y31759210D01*
X52715787Y32414208D01*
X52715790Y32414210D01*
X52907633Y32701325D01*
X52926813Y32797750D01*
X52938003Y32854003D01*
X53023995Y32889534D01*
X53360179Y33225132D01*
X53693563Y32891166D01*
X54300155Y32639287D01*
X54956963Y32638714D01*
X55563995Y32889534D01*
X55900179Y33225132D01*
X56233563Y32891166D01*
X56840155Y32639287D01*
X57496963Y32638714D01*
X58103995Y32889534D01*
X58440179Y33225132D01*
X58773563Y32891166D01*
X59380155Y32639287D01*
X60036963Y32638714D01*
X60643995Y32889534D01*
X61067565Y33312366D01*
X61085893Y33305498D01*
X62070395Y34290000D01*
X61085893Y35274502D01*
X61067083Y35267453D01*
X60646437Y35688834D01*
X60039845Y35940713D01*
X59383037Y35941286D01*
X58776005Y35690466D01*
X58439821Y35354868D01*
X58106437Y35688834D01*
X58035000Y35718497D01*
X58035000Y35828420D01*
X60315787Y38109208D01*
X60315790Y38109210D01*
X60507633Y38396325D01*
X60522682Y38471980D01*
X60671413Y38533434D01*
X60918673Y38780263D01*
X61184868Y38780263D01*
X61295750Y38503049D01*
X61941637Y38259857D01*
X62631425Y38282346D01*
X63164250Y38503049D01*
X63275132Y38780263D01*
X62230000Y39825395D01*
X61184868Y38780263D01*
X60918673Y38780263D01*
X61159851Y39021020D01*
X61226199Y39180804D01*
X62050395Y40005000D01*
X61226757Y40828638D01*
X61161566Y40986413D01*
X60673980Y41474851D01*
X60228092Y41660000D01*
X61665244Y41660000D01*
X61295750Y41506951D01*
X61295750Y41506951D01*
G37*
X61295750Y41506951D02*
X61184868Y41229737D01*
X62230000Y40184605D01*
X63275132Y41229737D01*
X63164250Y41506951D01*
X62757771Y41660000D01*
X63133420Y41660000D01*
X63905000Y40888421D01*
X63905000Y40521472D01*
X63731951Y40939250D01*
X63454737Y41050132D01*
X62409605Y40005000D01*
X63454737Y38959868D01*
X63731951Y39070750D01*
X63905000Y39530346D01*
X63905000Y35953440D01*
X63774000Y35953440D01*
X63538683Y35909162D01*
X63322559Y35770090D01*
X63189221Y35574943D01*
X63133880Y35722622D01*
X62518358Y35951816D01*
X61861981Y35928014D01*
X61366120Y35722622D01*
X61265498Y35454107D01*
X62250000Y34469605D01*
X62264143Y34483747D01*
X62443748Y34304142D01*
X62429605Y34290000D01*
X62443748Y34275857D01*
X62264143Y34096252D01*
X62250000Y34110395D01*
X61265498Y33125893D01*
X61366120Y32857378D01*
X61981642Y32628184D01*
X62638019Y32651986D01*
X63133880Y32857378D01*
X63190419Y33008254D01*
X63309910Y32822559D01*
X63522110Y32677569D01*
X63774000Y32626560D01*
X65790000Y32626560D01*
X65790000Y30211579D01*
X63133420Y27555000D01*
X58166005Y27555000D01*
X58166000Y27555001D01*
X57883516Y27498810D01*
X57827325Y27487633D01*
X57540210Y27295790D01*
X57540208Y27295787D01*
X56546404Y26301984D01*
X56216005Y26165466D01*
X55879821Y25829868D01*
X55546437Y26163834D01*
X54939845Y26415713D01*
X54283037Y26416286D01*
X53676005Y26165466D01*
X53252435Y25742634D01*
X53234107Y25749502D01*
X52249605Y24765000D01*
X52263748Y24750857D01*
X52084143Y24571252D01*
X52070000Y24585395D01*
X52055858Y24571252D01*
X51876253Y24750857D01*
X51890395Y24765000D01*
X50905893Y25749502D01*
X50637378Y25648880D01*
X50408184Y25033358D01*
X50431986Y24376981D01*
X50637378Y23881120D01*
X50905891Y23780499D01*
X50791651Y23666259D01*
X50839910Y23618000D01*
X50150579Y23618000D01*
X47839473Y25929107D01*
X51085498Y25929107D01*
X52070000Y24944605D01*
X53054502Y25929107D01*
X52953880Y26197622D01*
X52338358Y26426816D01*
X51681981Y26403014D01*
X51186120Y26197622D01*
X51085498Y25929107D01*
X47839473Y25929107D01*
X42795000Y30973580D01*
X42795000Y37091000D01*
X42964332Y37020687D01*
X43393784Y37020313D01*
X43790689Y37184311D01*
X43821432Y37215000D01*
X44083420Y37215000D01*
X44200000Y37098421D01*
X44200000Y33020005D01*
X44199999Y33020000D01*
X44252555Y32755789D01*
X44267367Y32681325D01*
X44303960Y32626560D01*
X44459210Y32394210D01*
X45094208Y31759213D01*
X45094210Y31759210D01*
X45121778Y31740790D01*
X45381326Y31567366D01*
X45720000Y31499999D01*
X45720005Y31500000D01*
X51434995Y31500000D01*
X51435000Y31499999D01*
X51717484Y31556190D01*
X51773675Y31567367D01*
X52060790Y31759210D01*
X52715787Y32414208D01*
X52715790Y32414210D01*
X52907633Y32701325D01*
X52926813Y32797750D01*
X52938003Y32854003D01*
X53023995Y32889534D01*
X53360179Y33225132D01*
X53693563Y32891166D01*
X54300155Y32639287D01*
X54956963Y32638714D01*
X55563995Y32889534D01*
X55900179Y33225132D01*
X56233563Y32891166D01*
X56840155Y32639287D01*
X57496963Y32638714D01*
X58103995Y32889534D01*
X58440179Y33225132D01*
X58773563Y32891166D01*
X59380155Y32639287D01*
X60036963Y32638714D01*
X60643995Y32889534D01*
X61067565Y33312366D01*
X61085893Y33305498D01*
X62070395Y34290000D01*
X61085893Y35274502D01*
X61067083Y35267453D01*
X60646437Y35688834D01*
X60039845Y35940713D01*
X59383037Y35941286D01*
X58776005Y35690466D01*
X58439821Y35354868D01*
X58106437Y35688834D01*
X58035000Y35718497D01*
X58035000Y35828420D01*
X60315787Y38109208D01*
X60315790Y38109210D01*
X60507633Y38396325D01*
X60522682Y38471980D01*
X60671413Y38533434D01*
X60918673Y38780263D01*
X61184868Y38780263D01*
X61295750Y38503049D01*
X61941637Y38259857D01*
X62631425Y38282346D01*
X63164250Y38503049D01*
X63275132Y38780263D01*
X62230000Y39825395D01*
X61184868Y38780263D01*
X60918673Y38780263D01*
X61159851Y39021020D01*
X61226199Y39180804D01*
X62050395Y40005000D01*
X61226757Y40828638D01*
X61161566Y40986413D01*
X60673980Y41474851D01*
X60228092Y41660000D01*
X61665244Y41660000D01*
X61295750Y41506951D01*
G36*
X-3425000Y-1446267D02*
X-3425000Y-1479462D01*
X-3617686Y-1559078D01*
X-4154039Y-2094495D01*
X-4444668Y-2794410D01*
X-4445330Y-3552265D01*
X-4155922Y-4252686D01*
X-3620505Y-4789039D01*
X-2920590Y-5079668D01*
X-2162735Y-5080330D01*
X-1462314Y-4790922D01*
X-925961Y-4255505D01*
X-844781Y-4060000D01*
X209462Y-4060000D01*
X289078Y-4252686D01*
X824495Y-4789039D01*
X1524410Y-5079668D01*
X2191156Y-5080250D01*
X6281007Y-7726625D01*
X6350000Y-7747000D01*
X10742394Y-7747000D01*
X12573000Y-9577606D01*
X12573000Y-32258000D01*
X3937000Y-32258000D01*
X3937000Y-24765000D01*
X3915670Y-24694553D01*
X1397000Y-20916548D01*
X1397000Y-10795000D01*
X1386994Y-10745590D01*
X1359803Y-10705197D01*
X89803Y-9435197D01*
X47789Y-9407334D01*
X0Y-9398000D01*
X-10747282Y-9398000D01*
X-15791370Y-4984423D01*
X-15835144Y-4959416D01*
X-15875000Y-4953000D01*
X-24638000Y-4953000D01*
X-24638000Y-762000D01*
X-4482504Y-762000D01*
X-3425000Y-1446267D01*
X-3425000Y-1446267D01*
G37*
X-3425000Y-1446267D02*
X-3425000Y-1479462D01*
X-3617686Y-1559078D01*
X-4154039Y-2094495D01*
X-4444668Y-2794410D01*
X-4445330Y-3552265D01*
X-4155922Y-4252686D01*
X-3620505Y-4789039D01*
X-2920590Y-5079668D01*
X-2162735Y-5080330D01*
X-1462314Y-4790922D01*
X-925961Y-4255505D01*
X-844781Y-4060000D01*
X209462Y-4060000D01*
X289078Y-4252686D01*
X824495Y-4789039D01*
X1524410Y-5079668D01*
X2191156Y-5080250D01*
X6281007Y-7726625D01*
X6350000Y-7747000D01*
X10742394Y-7747000D01*
X12573000Y-9577606D01*
X12573000Y-32258000D01*
X3937000Y-32258000D01*
X3937000Y-24765000D01*
X3915670Y-24694553D01*
X1397000Y-20916548D01*
X1397000Y-10795000D01*
X1386994Y-10745590D01*
X1359803Y-10705197D01*
X89803Y-9435197D01*
X47789Y-9407334D01*
X0Y-9398000D01*
X-10747282Y-9398000D01*
X-15791370Y-4984423D01*
X-15835144Y-4959416D01*
X-15875000Y-4953000D01*
X-24638000Y-4953000D01*
X-24638000Y-762000D01*
X-4482504Y-762000D01*
X-3425000Y-1446267D01*
M02*
