G04 #@! TF.FileFunction,Soldermask,Bot*
%FSLAX46Y46*%
G04 Gerber Fmt 4.6, Leading zero omitted, Abs format (unit mm)*
G04 Created by KiCad (PCBNEW 4.0.4-stable) date 04/20/17 09:34:57*
%MOMM*%
%LPD*%
G01*
G04 APERTURE LIST*
%ADD10C,0.150000*%
%ADD11R,2.540000X2.540000*%
%ADD12C,2.540000*%
%ADD13C,3.508000*%
%ADD14C,2.413000*%
%ADD15R,2.794000X2.082800*%
%ADD16O,2.794000X2.082800*%
%ADD17R,2.008000X2.008000*%
%ADD18C,2.008000*%
%ADD19C,3.048000*%
%ADD20C,2.286000*%
%ADD21O,2.506980X4.508500*%
%ADD22R,2.608580X2.608580*%
%ADD23C,2.707640*%
%ADD24C,2.608580*%
%ADD25R,2.413000X2.413000*%
%ADD26R,3.007360X3.007360*%
%ADD27C,3.007360*%
%ADD28R,2.508000X2.508000*%
%ADD29C,2.508000*%
G04 APERTURE END LIST*
D10*
D11*
X85725000Y-20320000D03*
D12*
X83185000Y-20320000D03*
X80645000Y-20320000D03*
X78105000Y-20320000D03*
D13*
X93165000Y-21300000D03*
X93165000Y-43800000D03*
X70665000Y-43800000D03*
X70665000Y-21300000D03*
X95631000Y-68453000D03*
D14*
X51435000Y-62230000D03*
X51435000Y-67310000D03*
X14605000Y-64135000D03*
X19705000Y-63135000D03*
D15*
X8890000Y-35560000D03*
D16*
X8890000Y-38100000D03*
X8890000Y-40640000D03*
X8890000Y-43180000D03*
X16510000Y-43180000D03*
X16510000Y-40640000D03*
X16510000Y-38100000D03*
X16510000Y-35560000D03*
D11*
X90825000Y-10795000D03*
D12*
X88285000Y-10795000D03*
X85745000Y-10795000D03*
X83205000Y-10795000D03*
X80665000Y-10795000D03*
X78125000Y-10795000D03*
X75585000Y-10795000D03*
X73045000Y-10795000D03*
X55880000Y-48895000D03*
X58420000Y-48895000D03*
X60960000Y-48895000D03*
D11*
X63500000Y-48895000D03*
X13462000Y-10795000D03*
D12*
X10922000Y-10795000D03*
X8382000Y-10795000D03*
X5842000Y-10795000D03*
D17*
X12652000Y-12906000D03*
D18*
X10652000Y-12906000D03*
X8652000Y-12906000D03*
X6652000Y-12906000D03*
D11*
X38735000Y-6350000D03*
D12*
X36195000Y-6350000D03*
X33655000Y-6350000D03*
X31115000Y-6350000D03*
D17*
X37925000Y-8461000D03*
D18*
X35925000Y-8461000D03*
X33925000Y-8461000D03*
X31925000Y-8461000D03*
D11*
X26035000Y-6350000D03*
D12*
X23495000Y-6350000D03*
X20955000Y-6350000D03*
X18415000Y-6350000D03*
D17*
X25225000Y-8461000D03*
D18*
X23225000Y-8461000D03*
X21225000Y-8461000D03*
X19225000Y-8461000D03*
D14*
X54610000Y-62230000D03*
X54610000Y-67310000D03*
X3810000Y-35560000D03*
X3810000Y-40640000D03*
X29210000Y-35560000D03*
X29210000Y-40640000D03*
X21590000Y-22225000D03*
X26670000Y-22225000D03*
D19*
X59690000Y-67310000D03*
X59690000Y-57912000D03*
X46355000Y-67310000D03*
X46355000Y-57912000D03*
X27940000Y-48260000D03*
X27940000Y-57658000D03*
X23495000Y-48260000D03*
X23495000Y-57658000D03*
X17145000Y-31115000D03*
X7747000Y-31115000D03*
D12*
X48260000Y-46355000D03*
D11*
X48260000Y-48895000D03*
D19*
X43180000Y-49530000D03*
X33782000Y-49530000D03*
X34925000Y-23495000D03*
X34925000Y-32893000D03*
D20*
X70485000Y-68580000D03*
X75565000Y-68580000D03*
X73025000Y-68580000D03*
X70485000Y-54610000D03*
X75565000Y-54610000D03*
D21*
X78740000Y-61595000D03*
X67310000Y-61595000D03*
D14*
X22225000Y-38100000D03*
X23225000Y-43200000D03*
D12*
X29845000Y-17780000D03*
X34925000Y-17780000D03*
D11*
X43180000Y-10795000D03*
X43180000Y-8636000D03*
D22*
X75565000Y-5080000D03*
D23*
X78105000Y-5080000D03*
X80645000Y-5080000D03*
X83185000Y-5080000D03*
X85725000Y-5080000D03*
X88265000Y-5080000D03*
D24*
X3175000Y-54610000D03*
X3175000Y-52070000D03*
D22*
X3175000Y-49530000D03*
D12*
X54610000Y-51435000D03*
X54610000Y-59055000D03*
X57150000Y-59690000D03*
X57150000Y-67310000D03*
X51435000Y-51435000D03*
X51435000Y-59055000D03*
X48895000Y-59690000D03*
X48895000Y-67310000D03*
X82550000Y-29210000D03*
X82550000Y-36830000D03*
X26035000Y-45085000D03*
X26035000Y-37465000D03*
X41275000Y-45720000D03*
X33655000Y-45720000D03*
X33655000Y-42545000D03*
X41275000Y-42545000D03*
X29845000Y-24130000D03*
X29845000Y-31750000D03*
X20955000Y-17145000D03*
X13335000Y-17145000D03*
D25*
X42227500Y-24447500D03*
D14*
X39687500Y-24447500D03*
X39687500Y-26987500D03*
X36195000Y-64135000D03*
X41295000Y-63135000D03*
D15*
X61595000Y-41275000D03*
D16*
X61595000Y-38735000D03*
X61595000Y-36195000D03*
X61595000Y-33655000D03*
X61595000Y-31115000D03*
X61595000Y-28575000D03*
X61595000Y-26035000D03*
X61595000Y-23495000D03*
X61595000Y-20955000D03*
X61595000Y-18415000D03*
X61595000Y-15875000D03*
X61595000Y-13335000D03*
X61595000Y-10795000D03*
X61595000Y-8255000D03*
X61595000Y-5715000D03*
X46355000Y-5715000D03*
X46355000Y-8255000D03*
X46355000Y-10795000D03*
X46355000Y-13335000D03*
X46355000Y-15875000D03*
X46355000Y-18415000D03*
X46355000Y-20955000D03*
X46355000Y-23495000D03*
X46355000Y-26035000D03*
X46355000Y-28575000D03*
X46355000Y-31115000D03*
X46355000Y-33655000D03*
X46355000Y-36195000D03*
X46355000Y-38735000D03*
X46355000Y-41275000D03*
D12*
X18415000Y-27305000D03*
X18415000Y-19685000D03*
X57150000Y-56515000D03*
X48895000Y-52705000D03*
X3175000Y-60325000D03*
X5715000Y-26670000D03*
X53594000Y-46355000D03*
X8890000Y-17145000D03*
D26*
X12305000Y-74265000D03*
D27*
X22305000Y-74265000D03*
D26*
X33895000Y-74265000D03*
D27*
X43895000Y-74265000D03*
D11*
X36235000Y-56515000D03*
D12*
X41235000Y-56515000D03*
D28*
X15200000Y-24765000D03*
D29*
X10200000Y-24765000D03*
D17*
X6985000Y-20590000D03*
D18*
X6985000Y-22590000D03*
D28*
X39370000Y-34965000D03*
D29*
X39370000Y-39965000D03*
D28*
X40894000Y-20407000D03*
D29*
X40894000Y-15407000D03*
D13*
X95631000Y-3429000D03*
X3173000Y-3417000D03*
X3173000Y-68417000D03*
M02*
