M48
;DRILL file {KiCad 4.0.4-stable} date 04/20/17 09:34:58
;FORMAT={-:-/ absolute / inch / decimal}
FMAT,2
INCH,TZ
T1C0.020
T2C0.024
T3C0.025
T4C0.031
T5C0.032
T6C0.032
T7C0.039
T8C0.063
T9C0.118
%
G90
G05
M72
T2
X0.275Y-0.8106
X0.275Y-0.8894
X0.4016Y-0.975
X0.5984Y-0.975
X1.55Y-1.3766
X1.55Y-1.5734
X1.61Y-0.6066
X1.61Y-0.8034
T3
X1.25Y-0.475
X1.45Y-1.15
X1.45Y-1.225
X1.55Y-1.15
X1.55Y-1.225
X1.675Y-1.15
X1.675Y-1.225
X1.675Y-1.305
X2.525Y-0.175
X2.625Y-0.275
X2.625Y-2.25
X2.725Y-0.275
X3.075Y-0.3
X3.45Y-0.05
T4
X0.2619Y-0.5081
X0.3406Y-0.5081
X0.4194Y-0.5081
X0.4981Y-0.5081
X0.575Y-2.525
X0.7569Y-0.3331
X0.7758Y-2.4856
X0.8356Y-0.3331
X0.875Y-1.5
X0.9144Y-0.3331
X0.9144Y-1.7008
X0.9931Y-0.3331
X1.2569Y-0.3331
X1.3356Y-0.3331
X1.4144Y-0.3331
X1.425Y-2.525
X1.4931Y-0.3331
X1.6258Y-2.4856
T5
X0.15Y-1.4
X0.15Y-1.6
X0.525Y-0.675
X0.725Y-0.775
X0.725Y-1.075
X0.825Y-0.675
X0.85Y-0.875
X1.025Y-1.475
X1.025Y-1.775
X1.05Y-0.875
X1.15Y-1.4
X1.15Y-1.6
X1.175Y-0.7
X1.175Y-0.95
X1.175Y-1.25
X1.325Y-1.675
X1.325Y-1.8
X1.375Y-0.7
X1.4266Y-2.225
X1.5625Y-0.9625
X1.5625Y-1.0625
X1.6234Y-2.225
X1.625Y-1.675
X1.625Y-1.8
X1.6625Y-0.9625
X1.925Y-2.35
X1.925Y-2.65
X2.025Y-2.025
X2.025Y-2.325
X2.025Y-2.45
X2.025Y-2.65
X2.15Y-2.025
X2.15Y-2.325
X2.15Y-2.45
X2.15Y-2.65
X2.25Y-2.35
X2.25Y-2.65
X3.25Y-1.15
X3.25Y-1.45
T6
X0.35Y-1.4
X0.35Y-1.5
X0.35Y-1.6
X0.35Y-1.7
X0.65Y-1.4
X0.65Y-1.5
X0.65Y-1.6
X0.65Y-1.7
X1.825Y-0.225
X1.825Y-0.325
X1.825Y-0.425
X1.825Y-0.525
X1.825Y-0.625
X1.825Y-0.725
X1.825Y-0.825
X1.825Y-0.925
X1.825Y-1.025
X1.825Y-1.125
X1.825Y-1.225
X1.825Y-1.325
X1.825Y-1.425
X1.825Y-1.525
X1.825Y-1.625
X1.9Y-1.825
X1.9Y-1.925
X2.2Y-1.925
X2.3Y-1.925
X2.4Y-1.925
X2.425Y-0.225
X2.425Y-0.325
X2.425Y-0.425
X2.425Y-0.525
X2.425Y-0.625
X2.425Y-0.725
X2.425Y-0.825
X2.425Y-0.925
X2.425Y-1.025
X2.425Y-1.125
X2.425Y-1.225
X2.425Y-1.325
X2.425Y-1.425
X2.425Y-1.525
X2.425Y-1.625
X2.5Y-1.925
X2.8758Y-0.425
T7
X0.125Y-1.95
X0.125Y-2.05
X0.125Y-2.15
X0.125Y-2.375
X0.225Y-1.05
X0.23Y-0.425
X0.305Y-1.225
X0.33Y-0.425
X0.35Y-0.675
X0.43Y-0.425
X0.53Y-0.425
X0.675Y-1.225
X0.725Y-0.25
X0.825Y-0.25
X0.925Y-0.25
X0.925Y-1.9
X0.925Y-2.27
X1.025Y-0.25
X1.1Y-1.9
X1.1Y-2.27
X1.225Y-0.25
X1.325Y-0.25
X1.33Y-1.95
X1.375Y-0.925
X1.375Y-1.295
X1.425Y-0.25
X1.525Y-0.25
X1.7Y-0.34
X1.7Y-0.425
X1.7Y-1.95
X1.825Y-2.28
X1.825Y-2.65
X1.925Y-2.075
X2.11Y-1.825
X2.25Y-2.225
X2.35Y-2.28
X2.35Y-2.65
X2.775Y-2.15
X2.775Y-2.7
X2.875Y-2.7
X2.975Y-0.2
X2.975Y-2.15
X2.975Y-2.7
X2.9758Y-0.425
X3.075Y-0.2
X3.075Y-0.8
X3.0758Y-0.425
X3.175Y-0.2
X3.175Y-0.8
X3.1758Y-0.425
X3.275Y-0.2
X3.275Y-0.8
X3.2758Y-0.425
X3.375Y-0.2
X3.375Y-0.8
X3.3758Y-0.425
X3.475Y-0.2
X3.4758Y-0.425
X3.5758Y-0.425
T8
X0.4844Y-2.9238
X0.8781Y-2.9238
X1.3344Y-2.9238
X1.7281Y-2.9238
T9
X0.1249Y-0.1345
X0.1249Y-2.6936
X2.7821Y-0.8386
X2.7821Y-1.7244
X3.6679Y-0.8386
X3.6679Y-1.7244
X3.765Y-0.135
X3.765Y-2.695
T1
X3.2216Y-2.3919G85X3.2216Y-2.3624
G05
X3.3102Y-2.4411G85X3.3102Y-2.4116
G05
X3.4234Y-2.6961G85X3.3939Y-2.6961
G05
X3.6006Y-2.2394G85X3.571Y-2.2394
G05
X3.6055Y-2.5297G85X3.6055Y-2.5002
G05
T7
X2.65Y-2.3955G85X2.65Y-2.4545
G05
X3.1Y-2.3955G85X3.1Y-2.4545
G05
T0
M30
