G04 #@! TF.FileFunction,Soldermask,Top*
%FSLAX46Y46*%
G04 Gerber Fmt 4.6, Leading zero omitted, Abs format (unit mm)*
G04 Created by KiCad (PCBNEW 4.0.4-stable) date 04/14/17 15:57:30*
%MOMM*%
%LPD*%
G01*
G04 APERTURE LIST*
%ADD10C,0.150000*%
%ADD11R,2.540000X2.540000*%
%ADD12C,2.540000*%
%ADD13C,3.508000*%
%ADD14C,2.413000*%
%ADD15R,2.794000X2.082800*%
%ADD16O,2.794000X2.082800*%
%ADD17R,2.008000X2.008000*%
%ADD18C,2.008000*%
%ADD19O,1.708000X2.908000*%
%ADD20O,2.908000X1.708000*%
%ADD21C,3.048000*%
%ADD22C,2.286000*%
%ADD23O,2.506980X4.508500*%
%ADD24C,10.010000*%
%ADD25R,2.608580X2.608580*%
%ADD26C,2.707640*%
%ADD27C,2.608580*%
%ADD28R,2.413000X2.413000*%
%ADD29R,1.016000X0.762000*%
%ADD30R,3.007360X3.007360*%
%ADD31C,3.007360*%
%ADD32R,2.508000X2.508000*%
%ADD33C,2.508000*%
G04 APERTURE END LIST*
D10*
D11*
X59690000Y24765000D03*
D12*
X57150000Y24765000D03*
X54610000Y24765000D03*
X52070000Y24765000D03*
D13*
X67130000Y23785000D03*
X67130000Y1285000D03*
X44630000Y1285000D03*
X44630000Y23785000D03*
X72138000Y-23332000D03*
D14*
X25400000Y-17145000D03*
X25400000Y-22225000D03*
X-11430000Y-19050000D03*
X-6330000Y-18050000D03*
D15*
X-17145000Y9525000D03*
D16*
X-17145000Y6985000D03*
X-17145000Y4445000D03*
X-17145000Y1905000D03*
X-9525000Y1905000D03*
X-9525000Y4445000D03*
X-9525000Y6985000D03*
X-9525000Y9525000D03*
D11*
X64790000Y34290000D03*
D12*
X62250000Y34290000D03*
X59710000Y34290000D03*
X57170000Y34290000D03*
X54630000Y34290000D03*
X52090000Y34290000D03*
X49550000Y34290000D03*
X47010000Y34290000D03*
X29845000Y-3810000D03*
X32385000Y-3810000D03*
X34925000Y-3810000D03*
D11*
X37465000Y-3810000D03*
X-12573000Y34290000D03*
D12*
X-15113000Y34290000D03*
X-17653000Y34290000D03*
X-20193000Y34290000D03*
D17*
X-13383000Y32179000D03*
D18*
X-15383000Y32179000D03*
X-17383000Y32179000D03*
X-19383000Y32179000D03*
D11*
X12700000Y38735000D03*
D12*
X10160000Y38735000D03*
X7620000Y38735000D03*
X5080000Y38735000D03*
D17*
X11890000Y36624000D03*
D18*
X9890000Y36624000D03*
X7890000Y36624000D03*
X5890000Y36624000D03*
D11*
X0Y38735000D03*
D12*
X-2540000Y38735000D03*
X-5080000Y38735000D03*
X-7620000Y38735000D03*
D17*
X-810000Y36624000D03*
D18*
X-2810000Y36624000D03*
X-4810000Y36624000D03*
X-6810000Y36624000D03*
D19*
X59060000Y-16545000D03*
D20*
X61560000Y-23395000D03*
D19*
X66560000Y-18795000D03*
X56810000Y-15295000D03*
D20*
X66060000Y-11795000D03*
D14*
X28575000Y-17145000D03*
X28575000Y-22225000D03*
X-22225000Y9525000D03*
X-22225000Y4445000D03*
X3175000Y9525000D03*
X3175000Y4445000D03*
X-4445000Y22860000D03*
X635000Y22860000D03*
D21*
X33655000Y-22225000D03*
X33655000Y-12827000D03*
X20320000Y-22225000D03*
X20320000Y-12827000D03*
X1905000Y-3175000D03*
X1905000Y-12573000D03*
X-2540000Y-3175000D03*
X-2540000Y-12573000D03*
X-8890000Y13970000D03*
X-18288000Y13970000D03*
D12*
X22225000Y-1270000D03*
D11*
X22225000Y-3810000D03*
D21*
X17145000Y-4445000D03*
X7747000Y-4445000D03*
X8890000Y21590000D03*
X8890000Y12192000D03*
D22*
X44450000Y-23495000D03*
X49530000Y-23495000D03*
X46990000Y-23495000D03*
X44450000Y-9525000D03*
X49530000Y-9525000D03*
D23*
X52705000Y-16510000D03*
X41275000Y-16510000D03*
D14*
X-3810000Y6985000D03*
X-2810000Y1885000D03*
D12*
X3810000Y27305000D03*
X8890000Y27305000D03*
D24*
X27940000Y19050000D03*
D11*
X17145000Y34290000D03*
X17145000Y36449000D03*
D25*
X49530000Y40005000D03*
D26*
X52070000Y40005000D03*
X54610000Y40005000D03*
X57150000Y40005000D03*
X59690000Y40005000D03*
X62230000Y40005000D03*
D27*
X-22860000Y-9525000D03*
X-22860000Y-6985000D03*
D25*
X-22860000Y-4445000D03*
D12*
X28575000Y-6350000D03*
X28575000Y-13970000D03*
X31115000Y-14605000D03*
X31115000Y-22225000D03*
X25400000Y-6350000D03*
X25400000Y-13970000D03*
X22860000Y-14605000D03*
X22860000Y-22225000D03*
X56515000Y15875000D03*
X56515000Y8255000D03*
X0Y0D03*
X0Y7620000D03*
X15240000Y-635000D03*
X7620000Y-635000D03*
X7620000Y2540000D03*
X15240000Y2540000D03*
X3810000Y20955000D03*
X3810000Y13335000D03*
X-5080000Y27940000D03*
X-12700000Y27940000D03*
D28*
X16192500Y20637500D03*
D14*
X13652500Y20637500D03*
X13652500Y18097500D03*
X10160000Y-19050000D03*
X15260000Y-18050000D03*
D15*
X35560000Y3810000D03*
D16*
X35560000Y6350000D03*
X35560000Y8890000D03*
X35560000Y11430000D03*
X35560000Y13970000D03*
X35560000Y16510000D03*
X35560000Y19050000D03*
X35560000Y21590000D03*
X35560000Y24130000D03*
X35560000Y26670000D03*
X35560000Y29210000D03*
X35560000Y31750000D03*
X35560000Y34290000D03*
X35560000Y36830000D03*
X35560000Y39370000D03*
X20320000Y39370000D03*
X20320000Y36830000D03*
X20320000Y34290000D03*
X20320000Y31750000D03*
X20320000Y29210000D03*
X20320000Y26670000D03*
X20320000Y24130000D03*
X20320000Y21590000D03*
X20320000Y19050000D03*
X20320000Y16510000D03*
X20320000Y13970000D03*
X20320000Y11430000D03*
X20320000Y8890000D03*
X20320000Y6350000D03*
X20320000Y3810000D03*
D12*
X-7620000Y17780000D03*
X-7620000Y25400000D03*
X31115000Y-11430000D03*
X22860000Y-7620000D03*
X-22860000Y-15240000D03*
X-20320000Y18415000D03*
X27559000Y-1270000D03*
X-17145000Y27940000D03*
D29*
X-1905000Y17780000D03*
X-4445000Y18732500D03*
X-4445000Y16827500D03*
X-1905000Y18732500D03*
X-4445000Y17780000D03*
X-1905000Y16827500D03*
D30*
X-13730000Y-29180000D03*
D31*
X-3730000Y-29180000D03*
D30*
X7860000Y-29180000D03*
D31*
X17860000Y-29180000D03*
D11*
X10200000Y-11430000D03*
D12*
X15200000Y-11430000D03*
D32*
X-10835000Y20320000D03*
D33*
X-15835000Y20320000D03*
D17*
X-19050000Y24495000D03*
D18*
X-19050000Y22495000D03*
D32*
X13335000Y10120000D03*
D33*
X13335000Y5120000D03*
D32*
X14859000Y24678000D03*
D33*
X14859000Y29678000D03*
D13*
X72138000Y41668000D03*
X-22862000Y41668000D03*
X-22862000Y-23332000D03*
M02*
